<?xml version="1.0" encoding="UTF-8"?>
<svg xmlns="http://www.w3.org/2000/svg" xmlns:xlink="http://www.w3.org/1999/xlink" version="1.2" >
<font id="Futura PT Cond Bold Oblique">
<font-face  font-family="Futura PT Cond Bold Italic" units-per-em="1000" ascent="763" descent="-237" font-style="normal" font-weight="400" font-stretch="condensed" slope="-7" cap-height="667" x-height="447" underline-position="-75" underline-thickness="50" />
<missing-glyph  horiz-adv-x="233" d="" />
<glyph glyph-name="NULL" d="" />
<glyph glyph-name="CR" unicode="&#xd;" horiz-adv-x="250" d="" />
<glyph glyph-name="space" unicode="&#x20;" horiz-adv-x="233" d="" />
<glyph glyph-name="exclam" unicode="&#x21;" horiz-adv-x="284" d="M260 667 L132 667 L74 200 L203 200 L260 667 Z M207 83 C207 125 176 157 134 157 C84 157 39 113 39 63 C39 22 71 -11 112 -11 C162 -11 207 33 207 83 L207 83 Z " />
<glyph glyph-name="quotedbl" unicode="&#x22;" horiz-adv-x="403" d="M410 667 L273 667 L296 399 L387 399 L410 667 Z M228 667 L91 667 L114 399 L205 399 L228 667 Z " />
<glyph glyph-name="numbersign" unicode="&#x23;" horiz-adv-x="600" d="M635 495 L535 495 L583 667 L456 667 L408 495 L318 495 L366 667 L241 667 L193 495 L91 495 L60 385 L162 385 L137 296 L34 296 L4 185 L106 185 L54 0 L179 0 L232 185 L322 185 L269 0 L396 0 L448 185 L551 185 L581 296 L479 296 L504 385 L605 385 L635 495 Z M377 385 L352 296 L262 296 L287 385 L377 385 Z " />
<glyph glyph-name="dollar" unicode="&#x24;" horiz-adv-x="433" d="M440 594 C405 644 356 671 313 677 L322 751 L250 751 L241 677 C145 665 56 576 56 457 C56 357 133 318 211 280 C258 257 294 239 294 193 C294 139 254 99 200 99 C145 99 115 128 80 165 L7 67 C52 17 97 -1 157 -11 L147 -91 L219 -91 L229 -11 C339 11 418 113 418 227 C418 338 339 374 244 418 C213 432 182 447 182 486 C182 535 217 565 265 565 C307 565 333 546 359 515 L440 594 Z " />
<glyph glyph-name="percent" unicode="&#x25;" horiz-adv-x="718" d="M341 549 C341 606 310 671 228 671 C100 671 64 532 64 461 C64 395 100 328 180 328 C302 328 341 464 341 549 L341 549 Z M236 538 C236 522 227 419 191 419 C169 419 169 458 169 463 C169 480 177 581 214 581 C235 581 236 542 236 538 L236 538 Z M602 667 L517 667 L144 0 L231 0 L602 667 Z M683 214 C683 271 652 336 570 336 C456 336 406 214 406 126 C406 60 442 -7 522 -7 C644 -7 683 129 683 214 L683 214 Z M578 203 C578 187 569 84 533 84 C511 84 511 123 511 128 C511 145 519 246 556 246 C577 246 578 207 578 203 L578 203 Z " />
<glyph glyph-name="ampersand" unicode="&#x26;" horiz-adv-x="537" d="M454 276 C428 249 402 225 375 206 L303 352 C339 370 369 394 396 428 C427 467 440 505 440 552 C440 576 434 613 403 642 C385 659 353 677 302 677 C238 677 197 651 173 625 C143 592 126 544 126 495 C126 463 134 416 156 374 C125 351 91 318 70 283 C51 251 36 208 36 164 C36 109 57 65 87 34 C119 1 153 -9 195 -9 C264 -9 303 18 325 39 L346 0 L486 0 L429 106 C458 125 485 149 511 176 L454 276 Z M261 449 C249 470 242 496 242 519 C242 536 247 554 258 564 C265 571 277 575 285 575 C293 575 304 571 310 564 C315 558 318 547 318 539 C318 524 312 506 303 492 C293 476 276 460 261 449 L261 449 Z M274 134 C258 121 241 117 230 117 C217 117 199 120 185 136 C173 149 166 169 166 192 C166 224 182 253 208 274 L274 134 Z " />
<glyph glyph-name="quotesingle" unicode="&#x27;" horiz-adv-x="221" d="M228 667 L91 667 L114 399 L204 399 L228 667 Z " />
<glyph glyph-name="parenleft" unicode="&#x28;" horiz-adv-x="303" d="M210 737 C107 556 48 347 48 127 C48 9 66 -99 98 -201 L222 -171 C195 -75 179 25 179 136 C179 346 236 534 328 710 L210 737 Z " />
<glyph glyph-name="parenright" unicode="&#x29;" horiz-adv-x="303" d="M90 707 C117 611 134 512 134 401 C134 191 77 3 -15 -173 L102 -201 C206 -20 264 190 264 410 C264 528 248 635 215 737 L90 707 Z " />
<glyph glyph-name="asterisk" unicode="&#x2a;" horiz-adv-x="434" d="M417 595 L402 655 L294 617 L312 726 L248 734 L237 621 L131 658 L111 596 L213 566 L133 474 L180 437 L256 529 L308 438 L363 471 L305 563 L417 595 Z " />
<glyph glyph-name="plus" unicode="&#x2b;" horiz-adv-x="500" d="M480 282 L480 396 L325 396 L325 552 L202 552 L202 396 L47 396 L47 282 L202 282 L202 127 L325 127 L325 282 L480 282 Z " />
<glyph glyph-name="comma" unicode="&#x2c;" horiz-adv-x="246" d="M214 121 L83 121 L-37 -149 L50 -149 L214 121 Z " />
<glyph glyph-name="hyphen" unicode="&#x2d;" horiz-adv-x="268" d="M213 191 L227 299 L59 299 L45 191 L213 191 Z " />
<glyph glyph-name="period" unicode="&#x2e;" horiz-adv-x="246" d="M188 83 C188 125 157 157 115 157 C65 157 20 113 20 63 C20 22 51 -12 93 -12 C143 -12 188 33 188 83 L188 83 Z " />
<glyph glyph-name="slash" unicode="&#x2f;" horiz-adv-x="470" d="M525 729 L418 729 L-62 -193 L48 -193 L525 729 Z " />
<glyph glyph-name="zero" unicode="0" horiz-adv-x="433" d="M420 432 C420 531 402 677 273 677 C146 677 82 524 59 419 C45 357 39 292 39 228 C39 129 58 -11 186 -11 C262 -11 317 45 351 108 C398 196 420 333 420 432 L420 432 Z M298 458 C298 417 294 376 288 335 C281 288 265 111 202 111 C160 111 160 182 160 211 C160 252 165 294 171 335 C178 381 194 559 256 559 C298 559 298 487 298 458 L298 458 Z " />
<glyph glyph-name="one" unicode="1" horiz-adv-x="433" d="M348 667 L159 667 L145 551 L207 551 L139 0 L266 0 L348 667 Z " />
<glyph glyph-name="two" unicode="2" horiz-adv-x="433" d="M193 435 C195 478 202 585 263 585 C298 585 306 551 306 523 C305 447 245 356 202 291 C201 289 200 287 11 0 L355 0 L369 115 L217 115 C256 177 295 239 335 301 C345 317 356 332 366 347 C401 401 431 469 431 534 C431 637 370 677 273 677 C119 677 81 568 73 435 L193 435 Z " />
<glyph glyph-name="three" unicode="3" horiz-adv-x="433" d="M204 479 C206 510 216 568 257 568 C285 568 295 543 295 519 C295 491 289 448 268 427 C246 405 211 405 182 405 L169 293 C218 293 258 289 258 229 C258 186 245 93 187 93 C158 93 144 116 144 143 C144 154 146 165 148 175 L27 175 C24 161 23 148 23 134 C23 40 86 -11 177 -11 C310 -11 396 86 396 216 C396 279 376 325 313 345 C391 379 416 459 416 538 C416 627 357 677 270 677 C209 677 154 653 123 599 C101 560 96 522 91 479 L204 479 Z " />
<glyph glyph-name="four" unicode="4" horiz-adv-x="433" d="M407 271 L353 271 L401 667 L259 667 L35 260 L23 157 L213 157 L194 0 L319 0 L339 157 L393 157 L407 271 Z M257 515 L227 271 L131 271 L257 515 Z " />
<glyph glyph-name="five" unicode="5" horiz-adv-x="433" d="M423 667 L172 667 L80 338 C98 341 116 343 134 343 C198 343 250 316 250 245 C250 176 208 103 132 103 C102 103 77 115 55 135 L19 20 C59 0 97 -11 142 -11 C307 -11 390 114 390 268 C390 331 368 393 308 423 C279 437 250 441 218 444 L249 553 L409 553 L423 667 Z " />
<glyph glyph-name="six" unicode="6" horiz-adv-x="433" d="M361 667 L236 667 C147 518 31 351 31 171 C31 70 78 -11 188 -11 C340 -11 402 157 402 285 C402 353 373 441 291 441 C256 441 231 426 204 404 L361 667 Z M271 248 C271 206 255 103 199 103 C164 103 159 158 159 183 C159 223 178 324 231 324 C267 324 271 275 271 248 L271 248 Z " />
<glyph glyph-name="seven" unicode="7" horiz-adv-x="433" d="M461 667 L107 667 L93 552 L269 552 L-2 0 L132 0 L461 667 Z " />
<glyph glyph-name="eight" unicode="8" horiz-adv-x="433" d="M415 524 C415 612 364 677 272 677 C165 677 85 583 85 479 C85 422 105 383 158 359 C127 347 99 335 76 310 C38 269 21 208 21 153 C21 56 91 -11 187 -11 C313 -11 401 93 401 215 C401 292 378 328 307 359 C349 377 375 398 395 440 C408 466 415 495 415 524 L415 524 Z M287 525 C287 497 277 427 239 427 C211 427 209 461 209 482 C209 511 218 573 257 573 C282 573 287 544 287 525 L287 525 Z M268 217 C268 180 247 103 201 103 C164 103 156 145 156 174 C156 214 172 295 224 295 C262 295 268 245 268 217 L268 217 Z " />
<glyph glyph-name="nine" unicode="9" horiz-adv-x="433" d="M97 0 L222 0 C312 150 428 314 428 496 C428 596 380 677 271 677 C118 677 57 511 57 382 C57 313 85 225 168 225 C202 225 229 241 254 262 L97 0 Z M299 484 C299 443 281 342 227 342 C191 342 187 393 187 419 C187 460 204 563 259 563 C294 563 299 509 299 484 L299 484 Z " />
<glyph glyph-name="colon" unicode="&#x3a;" horiz-adv-x="246" d="M225 381 C225 423 194 455 152 455 C102 455 57 411 57 361 C57 319 88 287 130 287 C181 287 225 330 225 381 L225 381 Z M188 86 C188 128 157 160 115 160 C65 160 20 116 20 66 C20 25 51 -9 93 -9 C143 -9 188 36 188 86 L188 86 Z " />
<glyph glyph-name="semicolon" unicode="&#x3b;" horiz-adv-x="246" d="M244 383 C244 425 214 458 171 458 C121 458 76 413 76 363 C76 322 108 289 149 289 C199 289 244 333 244 383 L244 383 Z M214 121 L83 121 L-37 -149 L50 -149 L214 121 Z " />
<glyph glyph-name="less" unicode="&#x3c;" horiz-adv-x="500" d="M466 63 L466 184 L163 333 L466 482 L466 604 L33 385 L33 282 L466 63 Z " />
<glyph glyph-name="equal" unicode="&#x3d;" horiz-adv-x="500" d="M480 372 L480 479 L47 479 L47 372 L480 372 Z M480 201 L480 309 L47 309 L47 201 L480 201 Z " />
<glyph glyph-name="greater" unicode="&#x3e;" horiz-adv-x="500" d="M493 281 L493 385 L60 604 L60 483 L363 334 L60 185 L60 63 L493 281 Z " />
<glyph glyph-name="question" unicode="&#x3f;" horiz-adv-x="408" d="M183 482 C184 512 196 561 234 561 C266 561 271 523 271 499 C271 444 248 370 182 370 C175 370 169 371 162 372 L142 208 L270 208 L281 294 C315 305 341 322 362 352 C392 395 412 457 412 509 C412 609 353 676 251 676 C178 676 111 639 82 570 C70 542 65 512 61 482 L183 482 Z M273 83 C273 125 242 157 200 157 C150 157 106 113 106 63 C106 21 137 -11 179 -11 C229 -11 273 33 273 83 L273 83 Z " />
<glyph glyph-name="at" unicode="&#x40;" horiz-adv-x="733" d="M557 96 C496 75 432 64 367 64 C296 64 227 79 179 136 C143 179 126 236 126 292 C126 459 266 602 434 602 C552 602 646 536 646 411 C646 358 625 295 590 255 C578 241 559 222 539 222 C524 222 518 234 518 247 C518 264 526 283 531 299 L592 491 L507 492 L494 451 C477 487 439 502 401 502 C292 502 201 382 201 279 C201 207 247 145 323 145 C374 145 424 169 456 209 C460 174 492 153 526 153 C589 153 644 208 675 258 C705 307 721 363 721 420 C721 583 594 678 439 678 C228 678 43 498 43 286 C43 97 173 -12 357 -12 C428 -12 500 -3 567 20 L557 96 Z M459 352 C459 297 418 231 357 231 C320 231 299 258 299 293 C299 348 344 414 403 414 C440 414 459 387 459 352 L459 352 Z " />
<glyph glyph-name="A" unicode="A" horiz-adv-x="453" d="M422 0 L347 667 L210 667 L-25 0 L105 0 L142 112 L273 112 L284 0 L422 0 Z M175 215 C194 274 215 332 230 392 C239 426 246 461 253 495 C249 401 259 308 266 215 L175 215 Z " />
<glyph glyph-name="B" unicode="B" horiz-adv-x="429" d="M105 667 L23 0 L161 0 C210 0 279 7 333 62 C368 97 389 148 389 209 C389 225 387 265 367 296 C355 314 334 332 306 342 C332 348 352 360 371 380 C405 415 415 453 415 502 C415 547 406 589 370 624 C329 664 284 667 244 667 L105 667 Z M222 558 C242 558 264 552 276 539 C283 531 291 517 291 492 C291 469 282 437 264 418 C251 404 228 393 201 393 L222 558 Z M189 291 L195 291 C207 291 225 290 241 274 C258 257 262 234 262 215 C262 191 258 163 234 140 C221 128 199 114 167 114 L189 291 Z " />
<glyph glyph-name="C" unicode="C" horiz-adv-x="418" d="M367 155 C339 129 307 120 282 120 C264 120 236 126 215 153 C189 187 186 241 186 262 C186 340 213 459 266 512 C288 533 316 548 346 548 C362 548 392 544 419 516 L438 655 C409 669 384 674 354 674 C278 674 221 649 175 605 C85 521 46 370 46 252 C46 162 72 89 114 46 C152 7 197 -7 247 -7 C288 -7 320 3 348 17 L367 155 Z " />
<glyph glyph-name="D" unicode="D" horiz-adv-x="481" d="M105 667 L23 0 L150 0 C226 0 296 20 350 76 C431 159 462 291 462 403 C462 497 436 599 344 644 C301 665 261 667 214 667 L105 667 Z M168 122 L221 550 C313 545 330 457 330 382 C330 292 290 121 176 122 L168 122 Z " />
<glyph glyph-name="E" unicode="E" horiz-adv-x="350" d="M366 667 L105 667 L23 0 L286 0 L301 123 L168 123 L187 273 L302 273 L318 399 L202 399 L220 543 L351 543 L366 667 Z " />
<glyph glyph-name="F" unicode="F" horiz-adv-x="343" d="M367 667 L105 667 L23 0 L153 0 L187 275 L306 275 L321 402 L203 402 L220 544 L352 544 L367 667 Z " />
<glyph glyph-name="G" unicode="G" horiz-adv-x="517" d="M499 519 C483 615 424 677 324 677 C183 677 99 550 66 427 C51 370 44 310 44 251 C44 127 95 -11 241 -11 C354 -11 430 79 463 179 C484 241 491 306 498 371 L286 371 L272 253 L355 253 C347 199 328 109 258 109 C189 109 182 192 182 243 C182 318 206 561 310 561 C361 561 366 508 366 469 L499 519 Z " />
<glyph glyph-name="H" unicode="H" horiz-adv-x="494" d="M496 667 L366 667 L336 420 L205 420 L235 667 L105 667 L23 0 L153 0 L190 295 L321 295 L285 0 L415 0 L496 667 Z " />
<glyph glyph-name="I" unicode="I" horiz-adv-x="232" d="M235 667 L105 667 L23 0 L153 0 L235 667 Z " />
<glyph glyph-name="J" unicode="J" horiz-adv-x="305" d="M308 667 L178 667 L121 205 C116 162 109 105 53 105 C24 105 5 120 -11 142 L-27 10 C2 -5 34 -11 66 -11 C135 -11 194 27 223 89 C240 125 246 166 251 205 L308 667 Z " />
<glyph glyph-name="K" unicode="K" horiz-adv-x="445" d="M477 667 L345 667 L198 369 L235 667 L105 667 L23 0 L153 0 L195 339 L274 0 L407 0 L314 356 L477 667 Z " />
<glyph glyph-name="L" unicode="L" horiz-adv-x="324" d="M305 125 L169 125 L235 667 L105 667 L23 0 L289 0 L305 125 Z " />
<glyph glyph-name="M" unicode="M" horiz-adv-x="636" d="M600 667 L426 667 L325 273 L309 667 L138 667 L-2 0 L138 0 L217 480 C216 465 215 451 215 436 C215 403 218 369 219 336 C224 224 235 112 244 0 L344 0 L442 326 C457 377 471 428 480 480 L454 0 L587 0 L600 667 Z " />
<glyph glyph-name="N" unicode="N" horiz-adv-x="510" d="M512 667 L380 667 L341 356 C339 341 339 327 339 312 C339 296 339 280 340 264 L228 667 L105 667 L23 0 L153 0 L192 316 C196 345 196 373 196 402 L308 0 L430 0 L512 667 Z " />
<glyph glyph-name="O" unicode="O" horiz-adv-x="534" d="M517 434 C517 552 458 677 324 677 C180 677 97 549 65 423 C49 364 43 302 43 241 C43 185 49 132 78 83 C110 28 171 -11 236 -11 C360 -11 444 90 482 199 C507 270 517 358 517 434 L517 434 Z M378 427 C378 389 376 351 370 314 C362 255 330 116 253 116 C194 116 182 201 182 245 C182 283 184 321 190 358 C198 417 231 556 307 556 C367 556 378 472 378 427 L378 427 Z " />
<glyph glyph-name="P" unicode="P" horiz-adv-x="428" d="M105 667 L23 0 L153 0 L187 274 C331 263 440 350 440 498 C440 555 421 614 370 645 C334 667 303 667 263 667 L105 667 Z M200 385 L222 560 L245 560 C295 560 311 537 311 489 C311 419 279 385 208 385 L200 385 Z " />
<glyph glyph-name="Q" unicode="Q" horiz-adv-x="541" d="M403 -57 L487 -4 L429 93 C464 139 484 185 497 240 C510 294 517 366 517 417 C517 475 509 563 452 622 C422 653 376 677 322 677 C278 677 219 663 164 609 C54 502 43 319 43 248 C43 189 50 100 113 40 C141 13 184 -11 244 -11 C294 -11 329 6 355 23 L403 -57 Z M326 255 L246 201 L292 127 C282 120 271 116 256 116 C239 116 226 121 215 133 C202 147 183 178 183 252 C183 301 190 366 201 411 C209 443 227 505 258 535 C277 554 297 557 309 557 C319 557 335 554 349 539 C363 525 379 494 379 419 C379 362 373 282 354 199 L326 255 Z " />
<glyph glyph-name="R" unicode="R" horiz-adv-x="466" d="M105 667 L23 0 L153 0 L191 307 L269 0 L405 0 L328 303 C403 347 444 413 444 500 C444 551 428 604 385 635 C346 663 292 667 246 667 L105 667 Z M222 563 L247 563 C296 563 317 538 317 490 C317 430 285 379 220 379 C213 379 207 379 200 380 L222 563 Z " />
<glyph glyph-name="S" unicode="S" horiz-adv-x="385" d="M374 645 C337 667 306 677 263 677 C140 677 65 565 65 451 C65 370 102 329 163 283 C174 275 185 267 195 258 C207 248 220 236 226 221 C229 214 229 205 229 198 C229 147 193 113 142 113 C106 113 79 128 51 149 L35 23 C67 -1 105 -11 145 -11 C276 -11 359 102 359 226 C359 371 195 387 195 483 C195 527 225 559 269 559 C305 559 333 540 358 516 L374 645 Z " />
<glyph glyph-name="T" unicode="T" horiz-adv-x="334" d="M388 667 L54 667 L39 545 L141 545 L74 0 L204 0 L271 545 L373 545 L388 667 Z " />
<glyph glyph-name="U" unicode="U" horiz-adv-x="491" d="M494 667 L364 667 L309 224 C302 171 301 109 231 109 C189 109 176 136 176 174 C176 191 179 207 181 224 L235 667 L105 667 L46 188 C44 171 41 153 41 136 C41 30 116 -11 213 -11 C283 -11 357 9 399 68 C423 101 428 131 433 170 L494 667 Z " />
<glyph glyph-name="V" unicode="V" horiz-adv-x="478" d="M532 667 L397 667 L293 409 C291 404 289 399 287 394 C267 340 257 283 242 228 L242 284 C242 326 238 368 232 409 L194 667 L54 667 L162 0 L268 0 L532 667 Z " />
<glyph glyph-name="W" unicode="W" horiz-adv-x="684" d="M734 667 L598 667 L519 400 C516 388 512 377 508 365 C501 343 498 320 493 298 C487 267 480 237 477 206 C477 222 478 237 478 253 C478 279 476 306 474 332 L448 667 L346 667 C311 560 276 453 241 346 C226 300 215 253 203 206 C206 237 209 269 209 300 C209 325 208 349 207 374 L190 667 L57 667 L108 0 L221 0 L315 262 C340 331 361 402 375 474 C372 435 369 396 369 357 C369 323 372 289 376 255 L404 0 L517 0 L734 667 Z " />
<glyph glyph-name="X" unicode="X" horiz-adv-x="436" d="M479 667 L339 667 C305 604 265 540 244 471 C244 534 217 606 200 667 L54 667 L153 344 L-28 0 L118 0 C151 68 186 135 212 206 C212 150 242 57 257 0 L408 0 L299 344 L479 667 Z " />
<glyph glyph-name="Y" unicode="Y" horiz-adv-x="440" d="M494 667 L349 667 L282 517 C268 485 257 460 244 423 C242 439 235 493 230 514 L197 667 L54 667 L164 285 L129 0 L259 0 L295 285 L494 667 Z " />
<glyph glyph-name="Z" unicode="Z" horiz-adv-x="449" d="M485 667 L99 667 L84 541 L275 541 L-10 0 L385 0 L401 125 L194 125 L485 667 Z " />
<glyph glyph-name="bracketleft" unicode="&#x5b;" horiz-adv-x="364" d="M390 729 L128 729 L15 -193 L278 -193 L293 -71 L161 -71 L244 606 L374 606 L390 729 Z " />
<glyph glyph-name="backslash" unicode="&#x5c;" horiz-adv-x="543" d="M66 729 L429 -193 L539 -193 L173 729 L66 729 Z " />
<glyph glyph-name="bracketright" unicode="&#x5d;" horiz-adv-x="364" d="M358 729 L95 729 L80 607 L212 607 L129 -70 L-1 -70 L-16 -193 L245 -193 L358 729 Z " />
<glyph glyph-name="asciicircum" unicode="&#x5e;" horiz-adv-x="500" d="M507 335 L344 667 L183 667 L20 335 L149 335 L263 569 L377 335 L507 335 Z " />
<glyph glyph-name="underscore" unicode="&#x5f;" horiz-adv-x="500" d="M472 -148 L472 -48 L-28 -48 L-28 -148 L472 -148 Z " />
<glyph glyph-name="grave" unicode="&#x60;" horiz-adv-x="500" d="M337 553 L269 681 L175 639 L272 517 L337 553 Z " />
<glyph glyph-name="a" unicode="a" horiz-adv-x="390" d="M377 447 L254 447 L247 392 C236 428 213 455 173 455 C87 455 46 342 33 272 C25 234 22 196 22 157 C22 95 35 -9 117 -9 C157 -9 185 20 205 51 L199 0 L323 0 L377 447 Z M238 276 C238 240 228 103 179 103 C149 103 147 154 147 175 C147 211 159 343 209 343 C237 343 238 295 238 276 L238 276 Z " />
<glyph glyph-name="b" unicode="b" horiz-adv-x="390" d="M224 729 L101 729 L11 0 L135 0 L141 51 C154 18 176 -9 214 -9 C300 -9 343 110 357 179 C365 217 368 256 368 295 C368 358 356 455 273 455 C231 455 202 426 183 392 L224 729 Z M242 272 C242 236 230 103 180 103 C151 103 150 151 150 171 C150 207 161 343 210 343 C239 343 242 293 242 272 L242 272 Z " />
<glyph glyph-name="c" unicode="c" horiz-adv-x="277" d="M284 443 C261 453 248 456 223 456 C169 456 129 437 95 395 C46 335 22 248 22 172 C22 85 56 -9 158 -9 C186 -9 204 -4 230 7 L244 121 C232 113 220 108 205 108 C156 108 149 156 149 195 C149 248 169 348 237 348 C251 348 261 344 270 333 L284 443 Z " />
<glyph glyph-name="d" unicode="d" horiz-adv-x="394" d="M414 729 L291 729 L247 392 C236 428 213 455 173 455 C87 455 47 342 33 272 C25 234 22 196 22 157 C22 95 35 -9 117 -9 C157 -9 185 20 205 51 L199 0 L323 0 L414 729 Z M238 276 C238 240 228 103 179 103 C149 103 147 154 147 175 C147 211 159 343 209 343 C237 343 238 295 238 276 L238 276 Z " />
<glyph glyph-name="e" unicode="e" horiz-adv-x="367" d="M222 154 C220 139 215 118 209 107 C201 93 190 85 174 85 C161 85 153 90 148 95 C138 106 136 130 136 144 C136 160 138 182 142 201 L337 201 C345 247 346 283 346 289 C346 323 343 383 302 423 C280 444 253 455 219 455 C176 455 139 439 108 408 C46 347 21 244 21 167 C21 97 43 55 67 29 C96 -1 129 -9 164 -9 C195 -9 234 -2 267 29 C300 60 321 111 326 154 L222 154 Z M152 278 C154 296 163 331 177 346 C187 357 199 360 207 360 C221 360 229 353 235 342 C241 331 243 317 243 302 C243 294 242 286 241 278 L152 278 Z " />
<glyph glyph-name="f" unicode="f" horiz-adv-x="240" d="M295 729 C277 735 262 739 243 739 C197 739 148 719 123 679 C106 652 104 629 100 598 L80 447 L35 447 L22 343 L67 343 L25 0 L149 0 L191 343 L247 343 L259 447 L203 447 L217 553 C220 579 225 616 259 616 C267 616 274 613 280 609 L295 729 Z " />
<glyph glyph-name="g" unicode="g" horiz-adv-x="394" d="M381 447 L258 447 L251 393 C235 430 213 455 170 455 C53 455 20 246 20 158 C20 96 38 -9 119 -9 C162 -9 187 24 210 56 L202 4 C197 -32 188 -105 142 -105 C105 -105 103 -72 103 -51 L-5 -51 C-6 -52 -6 -61 -6 -70 C-6 -157 43 -206 130 -206 C200 -206 265 -177 299 -113 C315 -83 318 -56 322 -23 L381 447 Z M238 275 C238 239 228 105 179 105 C149 105 146 156 146 177 C146 213 159 343 208 343 C237 343 238 295 238 275 L238 275 Z " />
<glyph glyph-name="h" unicode="h" horiz-adv-x="388" d="M224 729 L101 729 L11 0 L135 0 L166 255 C169 282 172 330 209 330 C226 330 232 316 232 301 C232 286 231 270 229 255 L197 0 L321 0 L357 299 C360 324 364 348 364 373 C364 418 346 455 296 455 C242 455 208 419 181 377 L224 729 Z " />
<glyph glyph-name="i" unicode="i" horiz-adv-x="203" d="M225 602 C225 641 197 672 157 672 C110 672 68 631 68 584 C68 546 97 514 136 514 C183 514 225 555 225 602 L225 602 Z M190 447 L66 447 L11 0 L135 0 L190 447 Z " />
<glyph glyph-name="j" unicode="j" horiz-adv-x="201" d="M223 602 C223 641 195 672 155 672 C108 672 66 631 66 584 C66 546 95 514 134 514 C181 514 223 555 223 602 L223 602 Z M188 447 L64 447 L-16 -206 L108 -206 L188 447 Z " />
<glyph glyph-name="k" unicode="k" horiz-adv-x="383" d="M391 447 L259 447 L169 275 L224 729 L101 729 L11 0 L135 0 L164 233 L228 0 L358 0 L269 249 L391 447 Z " />
<glyph glyph-name="l" unicode="l" horiz-adv-x="204" d="M224 729 L101 729 L11 0 L135 0 L224 729 Z " />
<glyph glyph-name="m" unicode="m" horiz-adv-x="573" d="M190 447 L66 447 L11 0 L135 0 L167 261 C170 287 175 329 210 329 C229 329 232 312 232 297 C232 285 230 273 229 261 L197 0 L321 0 L352 253 C355 279 357 331 394 331 C413 331 418 314 418 298 C418 283 416 268 414 253 L383 0 L507 0 L546 319 C548 337 550 355 550 373 C550 417 532 455 482 455 C433 455 393 417 367 379 C363 420 347 455 300 455 C245 455 210 417 181 375 L190 447 Z " />
<glyph glyph-name="n" unicode="n" horiz-adv-x="388" d="M190 447 L66 447 L11 0 L135 0 L166 255 C169 282 172 330 209 330 C226 330 232 316 232 301 C232 286 231 270 229 255 L197 0 L321 0 L357 299 C360 324 364 348 364 373 C364 418 346 455 296 455 C242 455 208 419 181 377 L190 447 Z " />
<glyph glyph-name="o" unicode="o" horiz-adv-x="386" d="M363 289 C363 379 321 455 222 455 C80 455 23 296 23 177 C23 82 54 -9 165 -9 C320 -9 363 164 363 289 L363 289 Z M237 277 C237 241 227 103 178 103 C149 103 147 155 147 175 C147 211 160 343 208 343 C236 343 237 296 237 277 L237 277 Z " />
<glyph glyph-name="p" unicode="p" horiz-adv-x="389" d="M189 447 L65 447 L-15 -206 L109 -206 L140 51 C153 18 175 -9 213 -9 C299 -9 342 110 356 179 C364 217 367 256 367 295 C367 358 355 455 272 455 C230 455 201 426 182 392 L189 447 Z M241 272 C241 236 229 103 180 103 C151 103 149 151 149 171 C149 207 160 343 209 343 C238 343 241 293 241 272 L241 272 Z " />
<glyph glyph-name="q" unicode="q" horiz-adv-x="390" d="M377 447 L254 447 L247 392 C236 428 213 455 173 455 C87 455 47 342 33 272 C25 234 22 196 22 157 C22 95 35 -9 117 -9 C157 -9 185 20 205 51 L173 -206 L297 -206 L377 447 Z M238 276 C238 240 228 103 179 103 C149 103 147 154 147 175 C147 211 159 343 209 343 C237 343 238 295 238 276 L238 276 Z " />
<glyph glyph-name="r" unicode="r" horiz-adv-x="274" d="M293 463 C240 456 215 432 183 392 L190 447 L66 447 L11 0 L135 0 L164 233 C172 299 183 344 260 344 C266 344 272 343 278 342 L293 463 Z " />
<glyph glyph-name="s" unicode="s" horiz-adv-x="310" d="M318 417 C283 444 250 455 206 455 C117 455 41 398 41 304 C41 190 163 193 163 145 C163 120 144 103 120 103 C96 103 80 115 63 131 L-3 42 C34 11 74 -9 123 -9 C221 -9 285 76 285 169 C285 275 167 276 167 319 C167 340 182 356 203 356 C227 356 243 343 258 326 L318 417 Z " />
<glyph glyph-name="t" unicode="t" horiz-adv-x="226" d="M251 447 L201 447 L217 574 L94 574 L78 447 L36 447 L23 343 L65 343 L23 0 L146 0 L189 343 L239 343 L251 447 Z " />
<glyph glyph-name="u" unicode="u" horiz-adv-x="387" d="M374 447 L251 447 L219 191 C216 166 215 107 179 107 C159 107 154 123 154 140 C154 157 156 174 158 191 L190 447 L66 447 L32 168 C30 149 27 131 27 112 C27 34 90 -9 163 -9 C217 -9 273 16 306 60 C329 90 334 114 338 151 L374 447 Z " />
<glyph glyph-name="v" unicode="v" horiz-adv-x="361" d="M391 447 L264 447 C234 363 202 279 174 194 C167 279 155 363 145 447 L24 447 L95 0 L209 0 L391 447 Z " />
<glyph glyph-name="w" unicode="w" horiz-adv-x="571" d="M601 447 L485 447 L412 247 C404 226 397 205 391 184 C388 272 376 360 366 447 L261 447 L171 184 C166 272 154 360 143 447 L24 447 L94 0 L196 0 C230 93 266 184 291 280 C294 186 310 93 324 0 L425 0 L601 447 Z " />
<glyph glyph-name="x" unicode="x" horiz-adv-x="380" d="M392 447 L265 447 L235 401 C223 383 213 367 201 339 C197 360 190 389 183 406 L167 447 L41 447 L125 240 L-31 0 L96 0 L140 70 C154 92 162 102 178 135 C187 102 193 87 201 65 L225 0 L355 0 L255 240 L392 447 Z " />
<glyph glyph-name="y" unicode="y" horiz-adv-x="359" d="M389 447 L265 447 L176 192 C175 223 171 254 167 284 L145 447 L22 447 L96 9 L3 -206 L123 -206 L389 447 Z " />
<glyph glyph-name="z" unicode="z" horiz-adv-x="336" d="M349 447 L54 447 L42 343 L167 343 L-15 0 L280 0 L293 103 L171 103 L349 447 Z " />
<glyph glyph-name="braceleft" unicode="&#x7b;" horiz-adv-x="504" d="M458 727 C437 727 417 729 396 729 C288 729 233 699 219 586 L196 402 C191 360 173 335 131 325 L118 221 C156 213 164 192 164 156 C164 149 164 141 163 134 L141 -35 C138 -61 137 -72 137 -84 C137 -180 200 -193 281 -193 C302 -193 323 -192 344 -191 L357 -83 C348 -83 337 -84 326 -84 C296 -84 264 -79 264 -45 C264 -38 265 -32 268 -11 C276 49 281 95 287 142 C288 154 289 166 289 178 C289 221 278 243 242 268 C265 282 285 294 297 319 C321 367 329 502 339 560 C343 581 347 603 368 612 C384 619 409 619 427 619 C433 619 439 619 445 618 L458 727 Z " />
<glyph glyph-name="bar" unicode="&#x7c;" horiz-adv-x="500" d="M314 -250 L314 750 L191 750 L191 -250 L314 -250 Z " />
<glyph glyph-name="braceright" unicode="&#x7d;" horiz-adv-x="503" d="M409 317 C376 323 363 343 363 375 C363 384 364 394 365 403 L388 584 C389 596 391 607 391 619 C391 709 334 729 255 729 C231 729 207 728 183 727 L170 619 C178 619 188 620 198 620 C228 620 263 615 263 581 C263 515 239 426 239 360 C239 317 250 294 285 269 C232 237 218 205 210 144 L191 -12 C190 -16 190 -21 190 -25 C185 -75 161 -83 115 -83 L84 -83 L70 -191 C93 -193 117 -193 140 -193 C245 -193 297 -157 310 -50 L332 135 C337 177 354 203 397 213 L409 317 Z " />
<glyph glyph-name="asciitilde" unicode="&#x7e;" horiz-adv-x="667" d="M559 745 C541 714 523 692 484 692 C423 692 361 744 293 744 C209 744 170 677 143 607 L211 563 C227 595 244 625 285 625 C344 625 408 573 471 573 C514 573 555 594 583 626 C603 649 616 678 629 705 L559 745 Z " />
<glyph glyph-name="uni00A0" unicode="&#xa0;" horiz-adv-x="233" d="" />
<glyph glyph-name="exclamdown" unicode="&#xa1;" horiz-adv-x="284" d="M248 380 C248 422 218 455 175 455 C125 455 81 410 81 360 C81 318 112 286 154 286 C204 286 248 330 248 380 L248 380 Z M213 243 L84 243 L27 -223 L156 -223 L213 243 Z " />
<glyph glyph-name="cent" unicode="&#xa2;" horiz-adv-x="433" d="M371 554 C355 561 338 565 326 567 L336 653 L264 653 L252 561 C150 526 110 371 110 266 C110 222 124 170 153 137 C167 118 185 107 198 103 L187 23 L259 23 L269 99 C283 100 302 108 317 116 L331 228 C319 221 307 217 293 217 C248 217 239 263 239 299 C239 347 264 455 326 455 C338 455 348 449 357 442 L371 554 Z " />
<glyph glyph-name="sterling" unicode="&#xa3;" horiz-adv-x="433" d="M437 514 C438 521 438 527 438 534 C438 572 426 609 401 635 C366 671 315 677 279 677 C231 677 176 668 132 625 C83 578 74 518 74 473 C74 463 74 421 87 368 L27 368 L17 288 L102 288 C106 278 115 251 115 219 C115 198 112 156 85 114 C55 105 34 93 3 71 L46 0 C78 22 100 28 124 28 C159 28 185 16 211 7 C240 -3 267 -11 298 -11 C332 -11 358 -1 378 14 C394 26 414 50 428 72 L361 126 C339 94 313 91 300 91 C277 91 261 98 246 106 C227 116 215 122 190 127 C208 148 235 191 235 244 C235 259 232 275 228 288 L321 288 L331 368 L219 368 C211 413 204 444 204 479 C204 496 206 529 224 550 C237 565 252 569 270 569 C282 569 297 567 308 556 C320 544 323 525 323 508 C323 497 322 487 321 481 L437 514 Z " />
<glyph glyph-name="currency" unicode="&#xa4;" horiz-adv-x="667" d="M662 136 L559 238 C588 281 604 323 604 375 C604 429 587 470 558 515 L659 616 L592 683 L490 582 C446 611 405 625 352 625 C298 625 256 611 212 581 L109 684 L41 616 L145 513 C115 470 100 428 100 376 C100 326 115 279 144 238 L42 136 L109 69 L211 170 C255 142 299 125 352 125 C405 125 450 141 493 171 L595 69 L662 136 Z M491 375 C491 298 429 235 352 235 C275 235 212 298 212 375 C212 452 275 515 352 515 C429 515 491 452 491 375 L491 375 Z " />
<glyph glyph-name="yen" unicode="&#xa5;" horiz-adv-x="433" d="M491 667 L345 667 L262 492 C256 479 250 466 245 453 C241 465 240 480 237 492 L193 667 L50 667 L125 439 L42 439 L34 371 L147 371 L165 319 L27 319 L19 251 L156 251 L125 0 L256 0 L287 251 L420 251 L428 319 L295 319 L325 371 L434 371 L443 439 L363 439 L491 667 Z " />
<glyph glyph-name="brokenbar" unicode="&#xa6;" horiz-adv-x="500" d="M314 335 L314 750 L190 750 L190 335 L314 335 Z M314 -250 L314 165 L190 165 L190 -250 L314 -250 Z " />
<glyph glyph-name="section" unicode="&#xa7;" horiz-adv-x="427" d="M409 607 C409 686 355 740 276 740 C168 740 103 636 103 544 C103 504 122 465 148 436 C82 388 49 313 49 232 C49 36 222 86 222 -33 C222 -60 209 -107 175 -107 C148 -107 142 -83 142 -61 C142 -47 142 -32 144 -18 L30 -18 C30 -34 29 -50 29 -66 C29 -148 79 -206 163 -206 C264 -206 334 -122 334 -24 C334 30 323 67 295 94 C362 140 387 224 387 302 C387 334 384 367 368 395 C323 460 216 487 216 570 C216 597 230 641 263 641 C294 641 295 603 295 581 L295 562 L408 562 C409 569 409 576 409 583 L409 607 Z M275 300 C275 253 269 157 204 157 C165 157 160 200 160 230 C160 272 174 370 230 370 C268 370 275 330 275 300 L275 300 Z " />
<glyph glyph-name="dieresis" unicode="&#xa8;" horiz-adv-x="474" d="M433 590 C433 623 408 649 375 649 C336 649 302 614 302 575 C302 543 325 517 358 517 C397 517 433 550 433 590 L433 590 Z M260 590 C260 623 235 649 202 649 C163 649 129 614 129 575 C129 542 153 517 186 517 C225 517 260 551 260 590 L260 590 Z " />
<glyph glyph-name="copyright" unicode="&#xa9;" horiz-adv-x="762" d="M741 333 C741 524 587 681 395 681 C203 681 47 525 47 333 C47 141 203 -15 395 -15 C587 -15 741 142 741 333 L741 333 Z M673 333 C673 179 552 46 395 46 C237 46 115 178 115 334 C115 490 237 621 395 621 C553 621 673 488 673 333 L673 333 Z M472 219 C460 215 447 212 434 212 C369 212 333 277 333 336 C333 399 368 455 436 455 C448 455 460 453 472 450 L472 530 C456 535 440 538 423 538 C313 538 236 441 236 336 C236 225 312 129 428 129 C444 129 457 132 472 137 L472 219 Z " />
<glyph glyph-name="ordfeminine" unicode="&#xaa;" horiz-adv-x="285" d="M296 667 L211 667 L208 647 C196 664 184 673 163 673 C86 673 63 557 63 484 C63 428 77 367 126 367 C147 367 162 377 176 392 L174 372 L260 372 L296 667 Z M256 341 L46 341 L40 297 L250 297 L256 341 Z M199 567 C198 514 194 441 166 441 C152 441 149 470 149 495 C149 529 157 601 184 601 C197 601 199 582 199 567 L199 567 Z " />
<glyph glyph-name="guillemotleft" unicode="&#xab;" horiz-adv-x="390" d="M382 406 L320 440 L181 234 L270 28 L341 66 L272 234 L382 406 Z M231 406 L169 440 L30 234 L119 28 L190 66 L121 234 L231 406 Z " />
<glyph glyph-name="logicalnot" unicode="&#xac;" horiz-adv-x="500" d="M455 0 L455 267 L22 267 L22 156 L332 156 L332 0 L455 0 Z " />
<glyph glyph-name="uni00AD" unicode="&#xad;" horiz-adv-x="268" d="M213 191 L227 299 L59 299 L45 191 L213 191 Z " />
<glyph glyph-name="registered" unicode="&#xae;" horiz-adv-x="762" d="M532 145 L457 322 C499 342 517 374 517 427 C517 509 447 535 375 535 L281 535 L281 145 L371 145 L371 314 L435 145 L532 145 Z M371 370 L371 467 L379 467 C416 467 426 452 426 424 C426 385 413 370 377 370 L371 370 Z M673 333 C673 179 552 46 395 46 C237 46 115 178 115 334 C115 490 237 621 395 621 C553 621 673 488 673 333 L673 333 Z M741 333 C741 524 587 681 395 681 C203 681 47 525 47 333 C47 141 203 -15 395 -15 C587 -15 741 142 741 333 L741 333 Z " />
<glyph glyph-name="macron" unicode="&#xaf;" horiz-adv-x="500" d="M438 611 L156 611 L146 531 L428 531 L438 611 Z " />
<glyph glyph-name="degree" unicode="&#xb0;" horiz-adv-x="500" d="M438 511 C438 595 368 661 285 661 C202 661 132 595 132 511 C132 427 202 361 285 361 C368 361 438 427 438 511 L438 511 Z M364 511 C364 468 327 434 285 434 C242 434 206 467 206 511 C206 555 242 589 285 589 C328 589 364 554 364 511 L364 511 Z " />
<glyph glyph-name="plusminus" unicode="&#xb1;" horiz-adv-x="500" d="M471 355 L471 469 L316 469 L316 625 L192 625 L192 469 L37 469 L37 355 L192 355 L192 200 L316 200 L316 355 L471 355 Z M471 52 L471 166 L37 166 L37 52 L471 52 Z " />
<glyph glyph-name="twosuperior" unicode="&#xb2;" horiz-adv-x="282" d="M147 523 C148 548 150 612 187 612 C206 612 211 594 211 578 C211 532 170 476 145 440 L25 267 L251 267 L260 341 L166 341 L237 446 C266 489 296 530 296 585 C296 650 253 674 193 674 C97 674 68 609 65 523 L147 523 Z " />
<glyph glyph-name="threesuperior" unicode="&#xb3;" horiz-adv-x="283" d="M156 549 C157 567 161 602 186 602 C201 602 207 588 207 575 C207 523 187 512 137 512 L128 440 C158 440 186 442 186 404 C186 379 179 328 145 328 C129 328 121 341 121 356 C121 363 123 370 124 377 L40 377 C39 367 38 357 38 347 C38 287 88 261 142 261 C222 261 280 317 280 398 C280 433 266 462 232 474 C274 495 290 543 290 587 C290 641 249 673 197 673 C113 673 87 626 78 549 L156 549 Z " />
<glyph glyph-name="acute" unicode="&#xb4;" horiz-adv-x="500" d="M426 639 L343 681 L243 553 L299 517 L426 639 Z " />
<glyph glyph-name="&amp;#xb5;" unicode="&#xb5;" horiz-adv-x="523" d="M455 0 L510 447 L386 447 L359 229 C353 183 348 139 317 110 C297 92 272 88 249 88 C217 88 197 101 185 112 C172 125 160 146 160 181 C160 194 163 227 165 242 L190 447 L65 447 L-15 -206 L110 -206 L143 70 C148 51 158 29 172 15 C191 -5 213 -10 235 -10 C252 -10 274 -8 295 5 C312 15 328 34 338 56 L331 0 L455 0 Z " />
<glyph glyph-name="&amp;#x3bc;" unicode="&#x3bc;" horiz-adv-x="523" d="M455 0 L510 447 L386 447 L359 229 C353 183 348 139 317 110 C297 92 272 88 249 88 C217 88 197 101 185 112 C172 125 160 146 160 181 C160 194 163 227 165 242 L190 447 L65 447 L-15 -206 L110 -206 L143 70 C148 51 158 29 172 15 C191 -5 213 -10 235 -10 C252 -10 274 -8 295 5 C312 15 328 34 338 56 L331 0 L455 0 Z " />
<glyph glyph-name="paragraph" unicode="&#xb6;" horiz-adv-x="657" d="M638 667 L310 667 C245 667 169 658 119 612 C79 576 57 521 57 467 C57 373 126 320 216 320 L229 320 L176 -100 L281 -100 L364 572 L450 572 L366 -100 L471 -100 L554 572 L626 572 L638 667 Z " />
<glyph glyph-name="periodcentered" unicode="&#xb7;" horiz-adv-x="279" d="M248 345 C248 396 212 435 160 435 C100 435 47 381 47 321 C47 271 85 233 135 233 C195 233 248 285 248 345 L248 345 Z " />
<glyph glyph-name="cedilla" unicode="&#xb8;" horiz-adv-x="500" d="M294 -74 L220 -42 L137 -164 L188 -193 L294 -74 Z " />
<glyph glyph-name="onesuperior" unicode="&#xb9;" horiz-adv-x="282" d="M243 667 L118 667 L109 592 L148 592 L108 267 L194 267 L243 667 Z " />
<glyph glyph-name="ordmasculine" unicode="&#xba;" horiz-adv-x="285" d="M63 488 C63 465 67 422 95 393 C111 377 132 367 160 367 C193 367 218 377 240 401 C283 446 290 510 290 548 C290 602 274 632 257 649 C238 668 215 673 195 673 C163 673 136 662 114 640 C73 599 63 533 63 488 L63 488 Z M255 297 L261 341 L48 341 L42 297 L255 297 Z M186 599 C189 599 194 598 197 593 C200 589 202 582 202 560 C202 543 199 514 196 497 C194 486 189 458 178 447 C174 443 170 441 164 441 C161 441 158 443 156 445 C151 450 149 460 149 482 C149 502 150 519 155 545 C161 574 166 586 172 593 C175 596 179 599 186 599 L186 599 Z " />
<glyph glyph-name="guillemotright" unicode="&#xbb;" horiz-adv-x="390" d="M361 234 L273 440 L202 406 L270 234 L161 66 L222 28 L361 234 Z M210 234 L122 440 L51 406 L119 234 L10 66 L71 28 L210 234 Z " />
<glyph glyph-name="onequarter" unicode="&#xbc;" horiz-adv-x="709" d="M677 166 L643 166 L672 400 L577 400 L436 157 L428 92 L549 92 L537 0 L623 0 L634 92 L668 92 L677 166 Z M596 667 L520 667 L125 0 L201 0 L596 667 Z M243 667 L118 667 L109 592 L148 592 L108 267 L194 267 L243 667 Z M573 291 L558 166 L505 166 L573 291 Z " />
<glyph glyph-name="onehalf" unicode="&#xbd;" horiz-adv-x="708" d="M540 257 C541 281 545 346 580 346 C600 346 604 327 604 311 C604 266 563 208 539 173 L418 0 L644 0 L654 74 L560 74 C585 112 610 151 636 189 C663 228 689 269 689 319 C689 384 645 407 586 407 C490 407 461 343 459 257 L540 257 Z M596 667 L520 667 L125 0 L201 0 L596 667 Z M243 667 L118 667 L109 592 L148 592 L108 267 L194 267 L243 667 Z " />
<glyph glyph-name="threequarters" unicode="&#xbe;" horiz-adv-x="709" d="M678 166 L644 166 L672 400 L578 400 L437 157 L429 92 L549 92 L538 0 L623 0 L634 92 L669 92 L678 166 Z M596 667 L521 667 L126 0 L202 0 L596 667 Z M156 549 C157 567 161 602 186 602 C201 602 207 588 207 575 C207 523 187 512 137 512 L128 440 C158 440 186 442 186 404 C186 379 179 328 145 328 C129 328 121 341 121 356 C121 363 123 370 124 377 L40 377 C39 367 38 357 38 347 C38 287 88 261 142 261 C222 261 280 317 280 398 C280 433 266 462 232 474 C274 495 290 543 290 587 C290 641 249 673 197 673 C113 673 87 626 78 549 L156 549 Z M574 291 L558 166 L505 166 L574 291 Z " />
<glyph glyph-name="questiondown" unicode="&#xbf;" horiz-adv-x="408" d="M305 380 C305 422 275 455 232 455 C182 455 138 410 138 360 C138 318 169 286 211 286 C261 286 305 330 305 380 L305 380 Z M228 -39 C228 -69 215 -117 177 -117 C145 -117 140 -80 140 -56 C140 -1 164 73 230 73 C236 73 243 73 249 72 L269 235 L141 235 L131 149 C96 138 70 122 49 92 C19 49 0 -13 0 -65 C0 -165 57 -233 160 -233 C233 -233 300 -196 329 -127 C341 -99 346 -69 350 -39 L228 -39 Z " />
<glyph glyph-name="Agrave" unicode="&#xc0;" horiz-adv-x="453" d="M422 0 L347 667 L210 667 L-25 0 L105 0 L142 112 L273 112 L284 0 L422 0 Z M175 215 C194 274 215 332 230 392 C239 426 246 461 253 495 C249 401 259 308 266 215 L175 215 Z M333 747 L255 875 L168 825 L268 711 L333 747 Z " />
<glyph glyph-name="Aacute" unicode="&#xc1;" horiz-adv-x="453" d="M422 0 L347 667 L210 667 L-25 0 L105 0 L142 112 L273 112 L284 0 L422 0 Z M175 215 C194 274 215 332 230 392 C239 426 246 461 253 495 C249 401 259 308 266 215 L175 215 Z M222 747 L283 711 L397 825 L316 875 L222 747 Z " />
<glyph glyph-name="Acircumflex" unicode="&#xc2;" horiz-adv-x="453" d="M422 0 L347 667 L210 667 L-25 0 L105 0 L142 112 L273 112 L284 0 L422 0 Z M175 215 C194 274 215 332 230 392 C239 426 246 461 253 495 C249 401 259 308 266 215 L175 215 Z M413 779 L299 886 L162 786 L203 724 L287 786 L353 724 L413 779 Z " />
<glyph glyph-name="Atilde" unicode="&#xc3;" horiz-adv-x="453" d="M422 0 L347 667 L210 667 L-25 0 L105 0 L142 112 L273 112 L284 0 L422 0 Z M175 215 C194 274 215 332 230 392 C239 426 246 461 253 495 C249 401 259 308 266 215 L175 215 Z M372 846 C364 827 361 811 337 811 C303 811 278 845 236 845 C170 845 151 780 139 727 L203 727 C208 742 217 755 234 755 C263 755 296 724 336 724 C401 724 422 790 436 842 L372 846 Z " />
<glyph glyph-name="Adieresis" unicode="&#xc4;" horiz-adv-x="453" d="M422 0 L347 667 L210 667 L-25 0 L105 0 L142 112 L273 112 L284 0 L422 0 Z M175 215 C194 274 215 332 230 392 C239 426 246 461 253 495 C249 401 259 308 266 215 L175 215 Z M428 797 C428 830 403 856 370 856 C331 856 297 821 297 782 C297 750 320 724 353 724 C392 724 428 757 428 797 L428 797 Z M255 797 C255 830 230 856 197 856 C158 856 124 821 124 782 C124 749 148 724 181 724 C220 724 255 758 255 797 L255 797 Z " />
<glyph glyph-name="Aring" unicode="&#xc5;" horiz-adv-x="453" d="M422 0 L347 667 L210 667 L-25 0 L105 0 L142 112 L273 112 L284 0 L422 0 Z M175 215 C194 274 215 332 230 392 C239 426 246 461 253 495 C249 401 259 308 266 215 L175 215 Z M198 810 C198 757 241 714 294 714 C347 714 390 757 390 810 C390 863 347 906 294 906 C241 906 198 863 198 810 L198 810 Z M253 810 C253 834 270 851 294 851 C318 851 335 834 335 810 C335 786 318 769 294 769 C270 769 253 786 253 810 L253 810 Z " />
<glyph glyph-name="AE" unicode="&#xc6;" horiz-adv-x="583" d="M549 0 L533 125 L408 125 L389 279 L518 279 L503 405 L373 405 L357 543 L486 543 L474 667 L206 667 L-25 0 L105 0 L138 111 L275 111 L285 0 L549 0 Z M173 216 L217 355 C231 400 241 447 250 494 C250 470 249 447 249 423 C249 401 251 379 253 357 C257 310 261 263 266 216 L173 216 Z " />
<glyph glyph-name="Ccedilla" unicode="&#xc7;" horiz-adv-x="418" d="M367 155 C339 129 307 120 282 120 C264 120 236 126 215 153 C189 187 186 241 186 262 C186 340 213 459 266 512 C288 533 316 548 346 548 C362 548 392 544 419 516 L438 655 C409 669 384 674 354 674 C278 674 221 649 175 605 C85 521 46 370 46 252 C46 162 72 89 114 46 C152 7 197 -7 247 -7 C288 -7 320 3 348 17 L367 155 Z M302 -77 L212 -42 L133 -169 L193 -205 L302 -77 Z " />
<glyph glyph-name="Egrave" unicode="&#xc8;" horiz-adv-x="350" d="M366 667 L105 667 L23 0 L286 0 L301 123 L168 123 L187 273 L302 273 L318 399 L202 399 L220 543 L351 543 L366 667 Z M308 747 L230 875 L143 825 L243 711 L308 747 Z " />
<glyph glyph-name="Eacute" unicode="&#xc9;" horiz-adv-x="350" d="M366 667 L105 667 L23 0 L286 0 L301 123 L168 123 L187 273 L302 273 L318 399 L202 399 L220 543 L351 543 L366 667 Z M170 747 L231 711 L345 825 L264 875 L170 747 Z " />
<glyph glyph-name="Ecircumflex" unicode="&#xca;" horiz-adv-x="350" d="M366 667 L105 667 L23 0 L286 0 L301 123 L168 123 L187 273 L302 273 L318 399 L202 399 L220 543 L351 543 L366 667 Z M383 779 L269 886 L132 786 L173 724 L257 786 L323 724 L383 779 Z " />
<glyph glyph-name="Edieresis" unicode="&#xcb;" horiz-adv-x="350" d="M366 667 L105 667 L23 0 L286 0 L301 123 L168 123 L187 273 L302 273 L318 399 L202 399 L220 543 L351 543 L366 667 Z M403 797 C403 830 378 856 345 856 C306 856 272 821 272 782 C272 750 295 724 328 724 C367 724 403 757 403 797 L403 797 Z M230 797 C230 830 205 856 172 856 C133 856 99 821 99 782 C99 749 123 724 156 724 C195 724 230 758 230 797 L230 797 Z " />
<glyph glyph-name="Igrave" unicode="&#xcc;" horiz-adv-x="232" d="M235 667 L105 667 L23 0 L153 0 L235 667 Z M228 747 L150 875 L63 825 L163 711 L228 747 Z " />
<glyph glyph-name="Iacute" unicode="&#xcd;" horiz-adv-x="232" d="M235 667 L105 667 L23 0 L153 0 L235 667 Z M111 747 L172 711 L286 825 L205 875 L111 747 Z " />
<glyph glyph-name="Icircumflex" unicode="&#xce;" horiz-adv-x="232" d="M235 667 L105 667 L23 0 L153 0 L235 667 Z M308 779 L194 886 L57 786 L98 724 L182 786 L248 724 L308 779 Z " />
<glyph glyph-name="Idieresis" unicode="&#xcf;" horiz-adv-x="232" d="M235 667 L105 667 L23 0 L153 0 L235 667 Z M333 797 C333 830 308 856 275 856 C236 856 202 821 202 782 C202 750 225 724 258 724 C297 724 333 757 333 797 L333 797 Z M160 797 C160 830 135 856 102 856 C63 856 29 821 29 782 C29 749 53 724 86 724 C125 724 160 758 160 797 L160 797 Z " />
<glyph glyph-name="Eth" unicode="&#xd0;" horiz-adv-x="481" d="M106 667 L72 393 L25 393 L13 293 L60 293 L24 0 L150 0 C226 0 297 20 351 76 C431 159 462 291 462 403 C462 497 435 599 344 644 C302 665 261 667 215 667 L106 667 Z M190 293 L263 293 L275 393 L202 393 L221 550 C247 548 264 545 284 527 C321 493 330 429 330 381 C330 311 311 225 266 169 C240 136 211 122 169 121 L190 293 Z " />
<glyph glyph-name="Ntilde" unicode="&#xd1;" horiz-adv-x="510" d="M512 667 L380 667 L341 356 C339 341 339 327 339 312 C339 296 339 280 340 264 L228 667 L105 667 L23 0 L153 0 L192 316 C196 345 196 373 196 402 L308 0 L430 0 L512 667 Z M412 846 C404 827 401 811 377 811 C343 811 318 845 276 845 C210 845 191 780 179 727 L243 727 C248 742 257 755 274 755 C303 755 336 724 376 724 C441 724 462 790 476 842 L412 846 Z " />
<glyph glyph-name="Ograve" unicode="&#xd2;" horiz-adv-x="534" d="M517 434 C517 552 458 677 324 677 C180 677 97 549 65 423 C49 364 43 302 43 241 C43 185 49 132 78 83 C110 28 171 -11 236 -11 C360 -11 444 90 482 199 C507 270 517 358 517 434 L517 434 Z M378 427 C378 389 376 351 370 314 C362 255 330 116 253 116 C194 116 182 201 182 245 C182 283 184 321 190 358 C198 417 231 556 307 556 C367 556 378 472 378 427 L378 427 Z M408 747 L330 875 L243 825 L343 711 L408 747 Z " />
<glyph glyph-name="Oacute" unicode="&#xd3;" horiz-adv-x="534" d="M517 434 C517 552 458 677 324 677 C180 677 97 549 65 423 C49 364 43 302 43 241 C43 185 49 132 78 83 C110 28 171 -11 236 -11 C360 -11 444 90 482 199 C507 270 517 358 517 434 L517 434 Z M378 427 C378 389 376 351 370 314 C362 255 330 116 253 116 C194 116 182 201 182 245 C182 283 184 321 190 358 C198 417 231 556 307 556 C367 556 378 472 378 427 L378 427 Z M262 747 L323 711 L437 825 L356 875 L262 747 Z " />
<glyph glyph-name="Ocircumflex" unicode="&#xd4;" horiz-adv-x="534" d="M517 434 C517 552 458 677 324 677 C180 677 97 549 65 423 C49 364 43 302 43 241 C43 185 49 132 78 83 C110 28 171 -11 236 -11 C360 -11 444 90 482 199 C507 270 517 358 517 434 L517 434 Z M378 427 C378 389 376 351 370 314 C362 255 330 116 253 116 C194 116 182 201 182 245 C182 283 184 321 190 358 C198 417 231 556 307 556 C367 556 378 472 378 427 L378 427 Z M458 779 L344 886 L207 786 L248 724 L332 786 L398 724 L458 779 Z " />
<glyph glyph-name="Otilde" unicode="&#xd5;" horiz-adv-x="534" d="M517 434 C517 552 458 677 324 677 C180 677 97 549 65 423 C49 364 43 302 43 241 C43 185 49 132 78 83 C110 28 171 -11 236 -11 C360 -11 444 90 482 199 C507 270 517 358 517 434 L517 434 Z M378 427 C378 389 376 351 370 314 C362 255 330 116 253 116 C194 116 182 201 182 245 C182 283 184 321 190 358 C198 417 231 556 307 556 C367 556 378 472 378 427 L378 427 Z M417 846 C409 827 406 811 382 811 C348 811 323 845 281 845 C215 845 196 780 184 727 L248 727 C253 742 262 755 279 755 C308 755 341 724 381 724 C446 724 467 790 481 842 L417 846 Z " />
<glyph glyph-name="Odieresis" unicode="&#xd6;" horiz-adv-x="534" d="M517 434 C517 552 458 677 324 677 C180 677 97 549 65 423 C49 364 43 302 43 241 C43 185 49 132 78 83 C110 28 171 -11 236 -11 C360 -11 444 90 482 199 C507 270 517 358 517 434 L517 434 Z M378 427 C378 389 376 351 370 314 C362 255 330 116 253 116 C194 116 182 201 182 245 C182 283 184 321 190 358 C198 417 231 556 307 556 C367 556 378 472 378 427 L378 427 Z M483 797 C483 830 458 856 425 856 C386 856 352 821 352 782 C352 750 375 724 408 724 C447 724 483 757 483 797 L483 797 Z M310 797 C310 830 285 856 252 856 C213 856 179 821 179 782 C179 749 203 724 236 724 C275 724 310 758 310 797 L310 797 Z " />
<glyph glyph-name="multiply" unicode="&#xd7;" horiz-adv-x="500" d="M375 145 L456 227 L343 340 L456 452 L375 534 L262 421 L149 534 L68 452 L181 340 L68 227 L149 145 L262 258 L375 145 Z " />
<glyph glyph-name="Oslash" unicode="&#xd8;" horiz-adv-x="534" d="M546 641 L500 671 L459 617 C423 656 379 677 326 677 C181 677 98 551 65 425 C49 366 43 304 43 243 C43 186 47 148 71 95 L19 27 L65 -6 L104 45 C145 9 184 -11 239 -11 C365 -11 452 100 486 211 C507 280 516 352 516 424 C516 476 513 518 491 566 L546 641 Z M182 243 C184 319 202 558 308 558 C343 558 360 528 369 499 L182 243 Z M378 414 C374 341 357 113 255 113 C225 113 205 136 194 162 L378 414 Z " />
<glyph glyph-name="Ugrave" unicode="&#xd9;" horiz-adv-x="491" d="M494 667 L364 667 L309 224 C302 171 301 109 231 109 C189 109 176 136 176 174 C176 191 179 207 181 224 L235 667 L105 667 L46 188 C44 171 41 153 41 136 C41 30 116 -11 213 -11 C283 -11 357 9 399 68 C423 101 428 131 433 170 L494 667 Z M348 747 L270 875 L183 825 L283 711 L348 747 Z " />
<glyph glyph-name="Uacute" unicode="&#xda;" horiz-adv-x="491" d="M494 667 L364 667 L309 224 C302 171 301 109 231 109 C189 109 176 136 176 174 C176 191 179 207 181 224 L235 667 L105 667 L46 188 C44 171 41 153 41 136 C41 30 116 -11 213 -11 C283 -11 357 9 399 68 C423 101 428 131 433 170 L494 667 Z M241 747 L302 711 L416 825 L335 875 L241 747 Z " />
<glyph glyph-name="Ucircumflex" unicode="&#xdb;" horiz-adv-x="491" d="M494 667 L364 667 L309 224 C302 171 301 109 231 109 C189 109 176 136 176 174 C176 191 179 207 181 224 L235 667 L105 667 L46 188 C44 171 41 153 41 136 C41 30 116 -11 213 -11 C283 -11 357 9 399 68 C423 101 428 131 433 170 L494 667 Z M438 779 L324 886 L187 786 L228 724 L312 786 L378 724 L438 779 Z " />
<glyph glyph-name="Udieresis" unicode="&#xdc;" horiz-adv-x="491" d="M494 667 L364 667 L309 224 C302 171 301 109 231 109 C189 109 176 136 176 174 C176 191 179 207 181 224 L235 667 L105 667 L46 188 C44 171 41 153 41 136 C41 30 116 -11 213 -11 C283 -11 357 9 399 68 C423 101 428 131 433 170 L494 667 Z M463 797 C463 830 438 856 405 856 C366 856 332 821 332 782 C332 750 355 724 388 724 C427 724 463 757 463 797 L463 797 Z M290 797 C290 830 265 856 232 856 C193 856 159 821 159 782 C159 749 183 724 216 724 C255 724 290 758 290 797 L290 797 Z " />
<glyph glyph-name="Yacute" unicode="&#xdd;" horiz-adv-x="440" d="M494 667 L349 667 L282 517 C268 485 257 460 244 423 C242 439 235 493 230 514 L197 667 L54 667 L164 285 L129 0 L259 0 L295 285 L494 667 Z M207 747 L268 711 L382 825 L301 875 L207 747 Z " />
<glyph glyph-name="Thorn" unicode="&#xde;" horiz-adv-x="428" d="M235 667 L105 667 L23 0 L153 0 L175 181 C185 179 194 179 204 179 C338 179 428 272 428 406 C428 463 409 520 358 551 C316 576 270 573 223 573 L235 667 Z M210 467 L230 467 C282 467 299 446 299 395 C299 361 289 324 259 305 C238 291 214 291 189 291 L210 467 Z " />
<glyph glyph-name="germandbls" unicode="&#xdf;" horiz-adv-x="417" d="M31 0 L155 0 L222 547 C225 569 228 629 262 629 C287 629 289 602 289 583 C289 552 284 505 272 479 C264 463 255 458 238 454 L224 343 C240 339 248 335 254 319 C259 306 261 290 261 276 C261 239 253 168 235 136 C225 118 216 114 196 112 L182 0 C195 -3 208 -5 221 -5 C273 -5 320 21 346 67 C376 121 393 207 393 268 C393 324 381 368 331 400 C406 432 419 521 419 595 C419 682 376 740 285 740 C182 740 119 679 103 577 C100 558 97 538 95 519 L86 447 L31 447 L18 343 L73 343 L31 0 Z " />
<glyph glyph-name="agrave" unicode="&#xe0;" horiz-adv-x="390" d="M377 447 L254 447 L247 392 C236 428 213 455 173 455 C87 455 46 342 33 272 C25 234 22 196 22 157 C22 95 35 -9 117 -9 C157 -9 185 20 205 51 L199 0 L323 0 L377 447 Z M238 276 C238 240 228 103 179 103 C149 103 147 154 147 175 C147 211 159 343 209 343 C237 343 238 295 238 276 L238 276 Z M306 553 L238 681 L144 639 L241 517 L306 553 Z " />
<glyph glyph-name="aacute" unicode="&#xe1;" horiz-adv-x="390" d="M377 447 L254 447 L247 392 C236 428 213 455 173 455 C87 455 46 342 33 272 C25 234 22 196 22 157 C22 95 35 -9 117 -9 C157 -9 185 20 205 51 L199 0 L323 0 L377 447 Z M238 276 C238 240 228 103 179 103 C149 103 147 154 147 175 C147 211 159 343 209 343 C237 343 238 295 238 276 L238 276 Z M361 639 L278 681 L178 553 L234 517 L361 639 Z " />
<glyph glyph-name="acircumflex" unicode="&#xe2;" horiz-adv-x="390" d="M377 447 L254 447 L247 392 C236 428 213 455 173 455 C87 455 46 342 33 272 C25 234 22 196 22 157 C22 95 35 -9 117 -9 C157 -9 185 20 205 51 L199 0 L323 0 L377 447 Z M238 276 C238 240 228 103 179 103 C149 103 147 154 147 175 C147 211 159 343 209 343 C237 343 238 295 238 276 L238 276 Z M353 572 L239 679 L102 579 L143 517 L227 579 L293 517 L353 572 Z " />
<glyph glyph-name="atilde" unicode="&#xe3;" horiz-adv-x="390" d="M377 447 L254 447 L247 392 C236 428 213 455 173 455 C87 455 46 342 33 272 C25 234 22 196 22 157 C22 95 35 -9 117 -9 C157 -9 185 20 205 51 L199 0 L323 0 L377 447 Z M238 276 C238 240 228 103 179 103 C149 103 147 154 147 175 C147 211 159 343 209 343 C237 343 238 295 238 276 L238 276 Z M322 639 C314 620 311 604 287 604 C253 604 228 638 186 638 C120 638 101 573 89 520 L153 520 C158 535 167 548 184 548 C213 548 246 517 286 517 C351 517 372 583 386 635 L322 639 Z " />
<glyph glyph-name="adieresis" unicode="&#xe4;" horiz-adv-x="390" d="M377 447 L254 447 L247 392 C236 428 213 455 173 455 C87 455 46 342 33 272 C25 234 22 196 22 157 C22 95 35 -9 117 -9 C157 -9 185 20 205 51 L199 0 L323 0 L377 447 Z M238 276 C238 240 228 103 179 103 C149 103 147 154 147 175 C147 211 159 343 209 343 C237 343 238 295 238 276 L238 276 Z M391 590 C391 623 366 649 333 649 C294 649 260 614 260 575 C260 543 283 517 316 517 C355 517 391 550 391 590 L391 590 Z M218 590 C218 623 193 649 160 649 C121 649 87 614 87 575 C87 542 111 517 144 517 C183 517 218 551 218 590 L218 590 Z " />
<glyph glyph-name="aring" unicode="&#xe5;" horiz-adv-x="390" d="M377 447 L254 447 L247 392 C236 428 213 455 173 455 C87 455 46 342 33 272 C25 234 22 196 22 157 C22 95 35 -9 117 -9 C157 -9 185 20 205 51 L199 0 L323 0 L377 447 Z M238 276 C238 240 228 103 179 103 C149 103 147 154 147 175 C147 211 159 343 209 343 C237 343 238 295 238 276 L238 276 Z M136 619 C136 566 179 523 232 523 C285 523 328 566 328 619 C328 672 285 715 232 715 C179 715 136 672 136 619 L136 619 Z M191 619 C191 643 208 660 232 660 C256 660 273 643 273 619 C273 595 256 578 232 578 C208 578 191 595 191 619 L191 619 Z " />
<glyph glyph-name="ae" unicode="&#xe6;" horiz-adv-x="562" d="M77 329 C106 342 134 352 166 352 C204 352 229 336 229 295 C229 281 227 266 226 252 C207 265 184 268 162 268 C73 268 13 196 13 110 C13 33 67 -9 141 -9 C191 -9 225 13 260 46 C284 7 317 -9 362 -9 C453 -9 505 51 518 137 L417 137 C415 110 401 83 371 83 C332 83 328 132 328 161 C328 171 329 182 330 192 L531 192 C534 225 538 258 538 291 C538 370 517 455 421 455 C368 455 334 433 305 390 C282 443 247 456 192 456 C156 456 123 447 90 436 L77 329 Z M340 269 C344 299 357 364 397 364 C429 364 433 323 433 299 C433 289 432 279 431 269 L340 269 Z M219 137 C219 109 194 84 166 84 C143 84 125 102 125 125 C125 153 150 178 178 178 C201 178 219 160 219 137 L219 137 Z " />
<glyph glyph-name="ccedilla" unicode="&#xe7;" horiz-adv-x="277" d="M284 443 C261 453 248 456 223 456 C169 456 129 437 95 395 C46 335 22 248 22 172 C22 85 56 -9 158 -9 C186 -9 204 -4 230 7 L244 121 C232 113 220 108 205 108 C156 108 149 156 149 195 C149 248 169 348 237 348 C251 348 261 344 270 333 L284 443 Z M204 -74 L130 -42 L47 -164 L98 -193 L204 -74 Z " />
<glyph glyph-name="egrave" unicode="&#xe8;" horiz-adv-x="367" d="M222 154 C220 139 215 118 209 107 C201 93 190 85 174 85 C161 85 153 90 148 95 C138 106 136 130 136 144 C136 160 138 182 142 201 L337 201 C345 247 346 283 346 289 C346 323 343 383 302 423 C280 444 253 455 219 455 C176 455 139 439 108 408 C46 347 21 244 21 167 C21 97 43 55 67 29 C96 -1 129 -9 164 -9 C195 -9 234 -2 267 29 C300 60 321 111 326 154 L222 154 Z M152 278 C154 296 163 331 177 346 C187 357 199 360 207 360 C221 360 229 353 235 342 C241 331 243 317 243 302 C243 294 242 286 241 278 L152 278 Z M291 553 L223 681 L129 639 L226 517 L291 553 Z " />
<glyph glyph-name="eacute" unicode="&#xe9;" horiz-adv-x="367" d="M222 154 C220 139 215 118 209 107 C201 93 190 85 174 85 C161 85 153 90 148 95 C138 106 136 130 136 144 C136 160 138 182 142 201 L337 201 C345 247 346 283 346 289 C346 323 343 383 302 423 C280 444 253 455 219 455 C176 455 139 439 108 408 C46 347 21 244 21 167 C21 97 43 55 67 29 C96 -1 129 -9 164 -9 C195 -9 234 -2 267 29 C300 60 321 111 326 154 L222 154 Z M152 278 C154 296 163 331 177 346 C187 357 199 360 207 360 C221 360 229 353 235 342 C241 331 243 317 243 302 C243 294 242 286 241 278 L152 278 Z M350 639 L267 681 L167 553 L223 517 L350 639 Z " />
<glyph glyph-name="ecircumflex" unicode="&#xea;" horiz-adv-x="367" d="M222 154 C220 139 215 118 209 107 C201 93 190 85 174 85 C161 85 153 90 148 95 C138 106 136 130 136 144 C136 160 138 182 142 201 L337 201 C345 247 346 283 346 289 C346 323 343 383 302 423 C280 444 253 455 219 455 C176 455 139 439 108 408 C46 347 21 244 21 167 C21 97 43 55 67 29 C96 -1 129 -9 164 -9 C195 -9 234 -2 267 29 C300 60 321 111 326 154 L222 154 Z M152 278 C154 296 163 331 177 346 C187 357 199 360 207 360 C221 360 229 353 235 342 C241 331 243 317 243 302 C243 294 242 286 241 278 L152 278 Z M358 572 L244 679 L107 579 L148 517 L232 579 L298 517 L358 572 Z " />
<glyph glyph-name="edieresis" unicode="&#xeb;" horiz-adv-x="367" d="M222 154 C220 139 215 118 209 107 C201 93 190 85 174 85 C161 85 153 90 148 95 C138 106 136 130 136 144 C136 160 138 182 142 201 L337 201 C345 247 346 283 346 289 C346 323 343 383 302 423 C280 444 253 455 219 455 C176 455 139 439 108 408 C46 347 21 244 21 167 C21 97 43 55 67 29 C96 -1 129 -9 164 -9 C195 -9 234 -2 267 29 C300 60 321 111 326 154 L222 154 Z M152 278 C154 296 163 331 177 346 C187 357 199 360 207 360 C221 360 229 353 235 342 C241 331 243 317 243 302 C243 294 242 286 241 278 L152 278 Z M380 590 C380 623 355 649 322 649 C283 649 249 614 249 575 C249 543 272 517 305 517 C344 517 380 550 380 590 L380 590 Z M207 590 C207 623 182 649 149 649 C110 649 76 614 76 575 C76 542 100 517 133 517 C172 517 207 551 207 590 L207 590 Z " />
<glyph glyph-name="igrave" unicode="&#xec;" horiz-adv-x="203" d="M190 447 L66 447 L11 0 L135 0 L190 447 Z M188 553 L120 681 L26 639 L123 517 L188 553 Z " />
<glyph glyph-name="iacute" unicode="&#xed;" horiz-adv-x="203" d="M190 447 L66 447 L11 0 L135 0 L190 447 Z M268 639 L185 681 L85 553 L141 517 L268 639 Z " />
<glyph glyph-name="icircumflex" unicode="&#xee;" horiz-adv-x="203" d="M190 447 L66 447 L11 0 L135 0 L190 447 Z M269 572 L155 679 L18 579 L59 517 L143 579 L209 517 L269 572 Z " />
<glyph glyph-name="idieresis" unicode="&#xef;" horiz-adv-x="203" d="M190 447 L66 447 L11 0 L135 0 L190 447 Z M293 590 C293 623 268 649 235 649 C196 649 162 614 162 575 C162 543 185 517 218 517 C257 517 293 550 293 590 L293 590 Z M120 590 C120 623 95 649 62 649 C23 649 -11 614 -11 575 C-11 542 13 517 46 517 C85 517 120 551 120 590 L120 590 Z " />
<glyph glyph-name="eth" unicode="&#xf0;" horiz-adv-x="386" d="M370 665 L321 726 L238 672 C208 699 175 721 139 740 L83 667 C117 654 133 645 158 618 L79 566 L124 503 L205 555 C231 515 241 485 246 431 C231 443 217 451 197 451 C140 451 92 406 67 359 C39 306 23 236 23 176 C23 77 55 -9 168 -9 C335 -9 366 194 366 322 C366 413 347 537 290 611 L370 665 Z M238 274 C238 242 227 103 180 103 C149 103 147 153 147 174 C147 209 159 343 209 343 C237 343 238 292 238 274 L238 274 Z " />
<glyph glyph-name="ntilde" unicode="&#xf1;" horiz-adv-x="388" d="M190 447 L66 447 L11 0 L135 0 L166 255 C169 282 172 330 209 330 C226 330 232 316 232 301 C232 286 231 270 229 255 L197 0 L321 0 L357 299 C360 324 364 348 364 373 C364 418 346 455 296 455 C242 455 208 419 181 377 L190 447 Z M321 639 C313 620 310 604 286 604 C252 604 227 638 185 638 C119 638 100 573 88 520 L152 520 C157 535 166 548 183 548 C212 548 245 517 285 517 C350 517 371 583 385 635 L321 639 Z " />
<glyph glyph-name="ograve" unicode="&#xf2;" horiz-adv-x="386" d="M363 289 C363 379 321 455 222 455 C80 455 23 296 23 177 C23 82 54 -9 165 -9 C320 -9 363 164 363 289 L363 289 Z M237 277 C237 241 227 103 178 103 C149 103 147 155 147 175 C147 211 160 343 208 343 C236 343 237 296 237 277 L237 277 Z M297 553 L229 681 L135 639 L232 517 L297 553 Z " />
<glyph glyph-name="oacute" unicode="&#xf3;" horiz-adv-x="386" d="M363 289 C363 379 321 455 222 455 C80 455 23 296 23 177 C23 82 54 -9 165 -9 C320 -9 363 164 363 289 L363 289 Z M237 277 C237 241 227 103 178 103 C149 103 147 155 147 175 C147 211 160 343 208 343 C236 343 237 296 237 277 L237 277 Z M362 639 L279 681 L179 553 L235 517 L362 639 Z " />
<glyph glyph-name="ocircumflex" unicode="&#xf4;" horiz-adv-x="386" d="M363 289 C363 379 321 455 222 455 C80 455 23 296 23 177 C23 82 54 -9 165 -9 C320 -9 363 164 363 289 L363 289 Z M237 277 C237 241 227 103 178 103 C149 103 147 155 147 175 C147 211 160 343 208 343 C236 343 237 296 237 277 L237 277 Z M356 572 L242 679 L105 579 L146 517 L230 579 L296 517 L356 572 Z " />
<glyph glyph-name="otilde" unicode="&#xf5;" horiz-adv-x="386" d="M363 289 C363 379 321 455 222 455 C80 455 23 296 23 177 C23 82 54 -9 165 -9 C320 -9 363 164 363 289 L363 289 Z M237 277 C237 241 227 103 178 103 C149 103 147 155 147 175 C147 211 160 343 208 343 C236 343 237 296 237 277 L237 277 Z M315 639 C307 620 304 604 280 604 C246 604 221 638 179 638 C113 638 94 573 82 520 L146 520 C151 535 160 548 177 548 C206 548 239 517 279 517 C344 517 365 583 379 635 L315 639 Z " />
<glyph glyph-name="odieresis" unicode="&#xf6;" horiz-adv-x="386" d="M363 289 C363 379 321 455 222 455 C80 455 23 296 23 177 C23 82 54 -9 165 -9 C320 -9 363 164 363 289 L363 289 Z M237 277 C237 241 227 103 178 103 C149 103 147 155 147 175 C147 211 160 343 208 343 C236 343 237 296 237 277 L237 277 Z M389 590 C389 623 364 649 331 649 C292 649 258 614 258 575 C258 543 281 517 314 517 C353 517 389 550 389 590 L389 590 Z M216 590 C216 623 191 649 158 649 C119 649 85 614 85 575 C85 542 109 517 142 517 C181 517 216 551 216 590 L216 590 Z " />
<glyph glyph-name="divide" unicode="&#xf7;" horiz-adv-x="500" d="M335 510 C335 550 303 582 263 582 C223 582 192 549 192 510 C192 470 225 439 264 439 C303 439 335 471 335 510 L335 510 Z M480 282 L480 396 L47 396 L47 282 L480 282 Z M335 167 C335 207 303 239 263 239 C224 239 192 207 192 168 C192 128 224 96 264 96 C303 96 335 128 335 167 L335 167 Z " />
<glyph glyph-name="oslash" unicode="&#xf8;" horiz-adv-x="387" d="M380 441 L339 469 L311 431 C286 452 254 460 222 460 C79 460 23 298 23 178 C23 140 28 102 43 67 L4 14 L46 -16 L74 23 C103 0 128 -9 165 -9 C313 -9 364 156 364 278 C364 320 358 351 342 390 L380 441 Z M238 270 C238 236 226 103 180 103 C149 103 147 153 147 175 C147 210 159 344 207 344 C238 344 238 291 238 270 L238 270 Z " />
<glyph glyph-name="ugrave" unicode="&#xf9;" horiz-adv-x="387" d="M374 447 L251 447 L219 191 C216 166 215 107 179 107 C159 107 154 123 154 140 C154 157 156 174 158 191 L190 447 L66 447 L32 168 C30 149 27 131 27 112 C27 34 90 -9 163 -9 C217 -9 273 16 306 60 C329 90 334 114 338 151 L374 447 Z M291 553 L223 681 L129 639 L226 517 L291 553 Z " />
<glyph glyph-name="uacute" unicode="&#xfa;" horiz-adv-x="387" d="M374 447 L251 447 L219 191 C216 166 215 107 179 107 C159 107 154 123 154 140 C154 157 156 174 158 191 L190 447 L66 447 L32 168 C30 149 27 131 27 112 C27 34 90 -9 163 -9 C217 -9 273 16 306 60 C329 90 334 114 338 151 L374 447 Z M360 639 L277 681 L177 553 L233 517 L360 639 Z " />
<glyph glyph-name="ucircumflex" unicode="&#xfb;" horiz-adv-x="387" d="M374 447 L251 447 L219 191 C216 166 215 107 179 107 C159 107 154 123 154 140 C154 157 156 174 158 191 L190 447 L66 447 L32 168 C30 149 27 131 27 112 C27 34 90 -9 163 -9 C217 -9 273 16 306 60 C329 90 334 114 338 151 L374 447 Z M362 572 L248 679 L111 579 L152 517 L236 579 L302 517 L362 572 Z " />
<glyph glyph-name="udieresis" unicode="&#xfc;" horiz-adv-x="387" d="M374 447 L251 447 L219 191 C216 166 215 107 179 107 C159 107 154 123 154 140 C154 157 156 174 158 191 L190 447 L66 447 L32 168 C30 149 27 131 27 112 C27 34 90 -9 163 -9 C217 -9 273 16 306 60 C329 90 334 114 338 151 L374 447 Z M380 590 C380 623 355 649 322 649 C283 649 249 614 249 575 C249 543 272 517 305 517 C344 517 380 550 380 590 L380 590 Z M207 590 C207 623 182 649 149 649 C110 649 76 614 76 575 C76 542 100 517 133 517 C172 517 207 551 207 590 L207 590 Z " />
<glyph glyph-name="yacute" unicode="&#xfd;" horiz-adv-x="359" d="M389 447 L265 447 L176 192 C175 223 171 254 167 284 L145 447 L22 447 L96 9 L3 -206 L123 -206 L389 447 Z M357 639 L274 681 L174 553 L230 517 L357 639 Z " />
<glyph glyph-name="thorn" unicode="&#xfe;" horiz-adv-x="390" d="M225 729 L102 729 L-15 -206 L108 -206 L141 51 C155 15 175 -9 216 -9 C300 -9 343 115 356 180 C364 218 367 257 367 296 C367 357 354 456 274 456 C231 456 203 428 183 392 L225 729 Z M241 273 C241 238 230 103 179 103 C151 103 150 155 150 173 C150 206 161 344 208 344 C239 344 241 294 241 273 L241 273 Z " />
<glyph glyph-name="ydieresis" unicode="&#xff;" horiz-adv-x="359" d="M389 447 L265 447 L176 192 C175 223 171 254 167 284 L145 447 L22 447 L96 9 L3 -206 L123 -206 L389 447 Z M377 590 C377 623 352 649 319 649 C280 649 246 614 246 575 C246 543 269 517 302 517 C341 517 377 550 377 590 L377 590 Z M204 590 C204 623 179 649 146 649 C107 649 73 614 73 575 C73 542 97 517 130 517 C169 517 204 551 204 590 L204 590 Z " />
<glyph glyph-name="Amacron" unicode="&#x100;" horiz-adv-x="453" d="M422 0 L347 667 L210 667 L-25 0 L105 0 L142 112 L273 112 L284 0 L422 0 Z M175 215 C194 274 215 332 230 392 C239 426 246 461 253 495 C249 401 259 308 266 215 L175 215 Z M428 818 L146 818 L136 738 L418 738 L428 818 Z " />
<glyph glyph-name="amacron" unicode="&#x101;" horiz-adv-x="390" d="M377 447 L254 447 L247 392 C236 428 213 455 173 455 C87 455 46 342 33 272 C25 234 22 196 22 157 C22 95 35 -9 117 -9 C157 -9 185 20 205 51 L199 0 L323 0 L377 447 Z M238 276 C238 240 228 103 179 103 C149 103 147 154 147 175 C147 211 159 343 209 343 C237 343 238 295 238 276 L238 276 Z M383 611 L101 611 L91 531 L373 531 L383 611 Z " />
<glyph glyph-name="Abreve" unicode="&#x102;" horiz-adv-x="453" d="M422 0 L347 667 L210 667 L-25 0 L105 0 L142 112 L273 112 L284 0 L422 0 Z M175 215 C194 274 215 332 230 392 C239 426 246 461 253 495 C249 401 259 308 266 215 L175 215 Z M362 838 C358 826 351 815 343 809 C330 798 307 796 291 796 C281 796 260 797 247 809 C240 816 235 827 234 838 L168 838 C168 800 180 767 199 748 C223 723 255 718 283 718 C323 718 355 726 385 755 C401 771 421 798 428 838 L362 838 Z " />
<glyph glyph-name="abreve" unicode="&#x103;" horiz-adv-x="390" d="M377 447 L254 447 L247 392 C236 428 213 455 173 455 C87 455 46 342 33 272 C25 234 22 196 22 157 C22 95 35 -9 117 -9 C157 -9 185 20 205 51 L199 0 L323 0 L377 447 Z M238 276 C238 240 228 103 179 103 C149 103 147 154 147 175 C147 211 159 343 209 343 C237 343 238 295 238 276 L238 276 Z M310 637 C306 625 299 614 291 608 C278 597 255 595 239 595 C229 595 208 596 195 608 C188 615 183 626 182 637 L116 637 C116 599 128 566 147 547 C171 522 203 517 231 517 C271 517 303 525 333 554 C349 570 369 597 376 637 L310 637 Z " />
<glyph glyph-name="Aogonek" unicode="&#x104;" horiz-adv-x="453" d="M210 667 L-25 0 L105 0 L142 112 L273 112 L284 0 C268 -11 252 -25 242 -37 C225 -58 219 -80 219 -102 C219 -116 222 -135 237 -150 C255 -168 280 -170 295 -170 C315 -170 330 -168 346 -160 L370 -85 C361 -91 348 -95 335 -95 C324 -95 315 -92 310 -86 C307 -83 303 -77 303 -67 C303 -52 311 -40 319 -29 C327 -19 336 -9 347 0 L422 0 L347 667 L210 667 Z M175 215 L190 261 C204 304 217 339 230 392 C237 420 246 467 253 495 C253 405 256 335 262 264 L266 215 L175 215 Z " />
<glyph glyph-name="aogonek" unicode="&#x105;" horiz-adv-x="390" d="M377 447 L254 447 L247 392 C242 409 225 455 173 455 C150 455 126 447 103 425 C73 396 51 345 40 303 C27 256 22 200 22 157 C22 127 25 51 60 15 C73 2 91 -9 117 -9 C152 -9 180 11 205 51 L199 0 L236 0 C220 -11 203 -26 191 -41 C177 -59 168 -77 168 -102 C168 -125 177 -140 187 -150 C198 -161 216 -170 245 -170 C262 -170 277 -167 292 -160 L315 -89 C306 -95 292 -99 281 -99 C272 -99 263 -96 257 -91 C251 -86 248 -78 248 -70 C248 -59 254 -46 264 -32 C273 -20 282 -10 293 0 L323 0 L377 447 Z M147 175 C147 199 151 237 157 263 C162 287 172 319 187 333 C193 339 201 343 209 343 C218 343 225 338 229 330 C233 324 238 310 238 278 C238 247 233 208 228 181 C221 144 211 125 201 114 C195 107 188 103 179 103 C170 103 164 106 159 114 C150 127 147 154 147 175 L147 175 Z " />
<glyph glyph-name="Cacute" unicode="&#x106;" horiz-adv-x="418" d="M367 155 C339 129 307 120 282 120 C264 120 236 126 215 153 C189 187 186 241 186 262 C186 340 213 459 266 512 C288 533 316 548 346 548 C362 548 392 544 419 516 L438 655 C409 669 384 674 354 674 C278 674 221 649 175 605 C85 521 46 370 46 252 C46 162 72 89 114 46 C152 7 197 -7 247 -7 C288 -7 320 3 348 17 L367 155 Z M337 747 L398 711 L512 825 L431 875 L337 747 Z " />
<glyph glyph-name="cacute" unicode="&#x107;" horiz-adv-x="277" d="M284 443 C261 453 248 456 223 456 C169 456 129 437 95 395 C46 335 22 248 22 172 C22 85 56 -9 158 -9 C186 -9 204 -4 230 7 L244 121 C232 113 220 108 205 108 C156 108 149 156 149 195 C149 248 169 348 237 348 C251 348 261 344 270 333 L284 443 Z M366 639 L283 681 L183 553 L239 517 L366 639 Z " />
<glyph glyph-name="Ccircumflex" unicode="&#x108;" horiz-adv-x="418" d="M367 155 C339 129 307 120 282 120 C264 120 236 126 215 153 C189 187 186 241 186 262 C186 340 213 459 266 512 C288 533 316 548 346 548 C362 548 392 544 419 516 L438 655 C409 669 384 674 354 674 C278 674 221 649 175 605 C85 521 46 370 46 252 C46 162 72 89 114 46 C152 7 197 -7 247 -7 C288 -7 320 3 348 17 L367 155 Z M508 779 L394 886 L257 786 L298 724 L382 786 L448 724 L508 779 Z " />
<glyph glyph-name="ccircumflex" unicode="&#x109;" horiz-adv-x="277" d="M284 443 C261 453 248 456 223 456 C169 456 129 437 95 395 C46 335 22 248 22 172 C22 85 56 -9 158 -9 C186 -9 204 -4 230 7 L244 121 C232 113 220 108 205 108 C156 108 149 156 149 195 C149 248 169 348 237 348 C251 348 261 344 270 333 L284 443 Z M358 572 L244 679 L107 579 L148 517 L232 579 L298 517 L358 572 Z " />
<glyph glyph-name="Cdotaccent" unicode="&#x10a;" horiz-adv-x="418" d="M367 155 C339 129 307 120 282 120 C264 120 236 126 215 153 C189 187 186 241 186 262 C186 340 213 459 266 512 C288 533 316 548 346 548 C362 548 392 544 419 516 L438 655 C409 669 384 674 354 674 C278 674 221 649 175 605 C85 521 46 370 46 252 C46 162 72 89 114 46 C152 7 197 -7 247 -7 C288 -7 320 3 348 17 L367 155 Z M429 798 C429 831 404 857 371 857 C331 857 297 821 297 782 C297 749 321 724 354 724 C393 724 429 758 429 798 L429 798 Z " />
<glyph glyph-name="cdotaccent" unicode="&#x10b;" horiz-adv-x="277" d="M284 443 C261 453 248 456 223 456 C169 456 129 437 95 395 C46 335 22 248 22 172 C22 85 56 -9 158 -9 C186 -9 204 -4 230 7 L244 121 C232 113 220 108 205 108 C156 108 149 156 149 195 C149 248 169 348 237 348 C251 348 261 344 270 333 L284 443 Z M298 591 C298 624 273 650 240 650 C200 650 166 614 166 575 C166 542 190 517 223 517 C262 517 298 551 298 591 L298 591 Z " />
<glyph glyph-name="Ccaron" unicode="&#x10c;" horiz-adv-x="418" d="M367 155 C339 129 307 120 282 120 C264 120 236 126 215 153 C189 187 186 241 186 262 C186 340 213 459 266 512 C288 533 316 548 346 548 C362 548 392 544 419 516 L438 655 C409 669 384 674 354 674 C278 674 221 649 175 605 C85 521 46 370 46 252 C46 162 72 89 114 46 C152 7 197 -7 247 -7 C288 -7 320 3 348 17 L367 155 Z M514 824 L473 886 L389 824 L323 886 L263 831 L377 724 L514 824 Z " />
<glyph glyph-name="ccaron" unicode="&#x10d;" horiz-adv-x="277" d="M284 443 C261 453 248 456 223 456 C169 456 129 437 95 395 C46 335 22 248 22 172 C22 85 56 -9 158 -9 C186 -9 204 -4 230 7 L244 121 C232 113 220 108 205 108 C156 108 149 156 149 195 C149 248 169 348 237 348 C251 348 261 344 270 333 L284 443 Z M364 617 L323 679 L239 617 L173 679 L113 624 L227 517 L364 617 Z " />
<glyph glyph-name="Dcaron" unicode="&#x10e;" horiz-adv-x="481" d="M105 667 L23 0 L150 0 C226 0 296 20 350 76 C431 159 462 291 462 403 C462 497 436 599 344 644 C301 665 261 667 214 667 L105 667 Z M168 122 L221 550 C313 545 330 457 330 382 C330 292 290 121 176 122 L168 122 Z M404 824 L363 886 L279 824 L213 886 L153 831 L267 724 L404 824 Z " />
<glyph glyph-name="dcaron" unicode="&#x10f;" horiz-adv-x="581" d="M414 729 L291 729 L247 392 C236 428 213 455 173 455 C87 455 47 342 33 272 C25 234 22 196 22 157 C22 95 35 -9 117 -9 C157 -9 185 20 205 51 L199 0 L323 0 L414 729 Z M238 276 C238 240 228 103 179 103 C149 103 147 154 147 175 C147 211 159 343 209 343 C237 343 238 295 238 276 L238 276 Z M588 667 L485 667 L415 463 L485 463 L588 667 Z " />
<glyph glyph-name="Dcroat" unicode="&#x110;" horiz-adv-x="481" d="M106 667 L72 393 L25 393 L13 293 L60 293 L24 0 L150 0 C226 0 297 20 351 76 C431 159 462 291 462 403 C462 497 435 599 344 644 C302 665 261 667 215 667 L106 667 Z M190 293 L263 293 L275 393 L202 393 L221 550 C247 548 264 545 284 527 C321 493 330 429 330 381 C330 311 311 225 266 169 C240 136 211 122 169 121 L190 293 Z " />
<glyph glyph-name="dcroat" unicode="&#x111;" horiz-adv-x="427" d="M246 372 C234 408 211 435 171 435 C85 435 47 342 33 272 C25 234 22 196 22 157 C22 95 35 -9 117 -9 C157 -9 185 20 205 51 L199 0 L323 0 L386 507 L436 507 L446 595 L396 595 L413 729 L290 729 L272 595 L163 595 L153 507 L262 507 L246 372 Z M237 256 C237 220 228 103 179 103 C149 103 147 154 147 175 C147 211 158 323 208 323 C236 323 237 275 237 256 L237 256 Z " />
<glyph glyph-name="Emacron" unicode="&#x112;" horiz-adv-x="350" d="M366 667 L105 667 L23 0 L286 0 L301 123 L168 123 L187 273 L302 273 L318 399 L202 399 L220 543 L351 543 L366 667 Z M388 818 L106 818 L96 738 L378 738 L388 818 Z " />
<glyph glyph-name="emacron" unicode="&#x113;" horiz-adv-x="367" d="M222 154 C220 139 215 118 209 107 C201 93 190 85 174 85 C161 85 153 90 148 95 C138 106 136 130 136 144 C136 160 138 182 142 201 L337 201 C345 247 346 283 346 289 C346 323 343 383 302 423 C280 444 253 455 219 455 C176 455 139 439 108 408 C46 347 21 244 21 167 C21 97 43 55 67 29 C96 -1 129 -9 164 -9 C195 -9 234 -2 267 29 C300 60 321 111 326 154 L222 154 Z M152 278 C154 296 163 331 177 346 C187 357 199 360 207 360 C221 360 229 353 235 342 C241 331 243 317 243 302 C243 294 242 286 241 278 L152 278 Z M372 611 L90 611 L80 531 L362 531 L372 611 Z " />
<glyph glyph-name="Edotaccent" unicode="&#x116;" horiz-adv-x="350" d="M366 667 L105 667 L23 0 L286 0 L301 123 L168 123 L187 273 L302 273 L318 399 L202 399 L220 543 L351 543 L366 667 Z M315 798 C315 831 290 857 257 857 C217 857 183 821 183 782 C183 749 207 724 240 724 C279 724 315 758 315 798 L315 798 Z " />
<glyph glyph-name="edotaccent" unicode="&#x117;" horiz-adv-x="367" d="M222 154 C220 139 215 118 209 107 C201 93 190 85 174 85 C161 85 153 90 148 95 C138 106 136 130 136 144 C136 160 138 182 142 201 L337 201 C345 247 346 283 346 289 C346 323 343 383 302 423 C280 444 253 455 219 455 C176 455 139 439 108 408 C46 347 21 244 21 167 C21 97 43 55 67 29 C96 -1 129 -9 164 -9 C195 -9 234 -2 267 29 C300 60 321 111 326 154 L222 154 Z M152 278 C154 296 163 331 177 346 C187 357 199 360 207 360 C221 360 229 353 235 342 C241 331 243 317 243 302 C243 294 242 286 241 278 L152 278 Z M304 591 C304 624 279 650 246 650 C206 650 172 614 172 575 C172 542 196 517 229 517 C268 517 304 551 304 591 L304 591 Z " />
<glyph glyph-name="Eogonek" unicode="&#x118;" horiz-adv-x="350" d="M366 667 L105 667 L23 0 L187 0 C171 -11 155 -25 145 -37 C128 -58 122 -80 122 -102 C122 -116 125 -135 140 -150 C157 -167 183 -170 202 -170 C220 -170 234 -167 249 -160 L273 -85 C264 -91 251 -95 238 -95 C227 -95 218 -92 213 -86 C210 -83 206 -77 206 -67 C206 -52 214 -40 222 -29 C230 -19 239 -9 250 0 L286 0 L301 123 L168 123 L187 273 L302 273 L318 399 L202 399 L220 543 L351 543 L366 667 Z " />
<glyph glyph-name="eogonek" unicode="&#x119;" horiz-adv-x="367" d="M219 138 C218 123 211 105 199 94 C191 87 183 85 174 85 C166 85 156 86 148 95 C138 106 136 131 136 148 C136 160 137 177 139 190 L334 190 C340 218 346 259 346 291 C346 306 346 380 306 421 C289 438 260 455 219 455 C177 455 139 440 105 405 C48 347 21 249 21 169 C21 113 35 59 68 27 C93 3 133 -10 174 -10 C139 -41 120 -72 120 -104 C120 -124 129 -140 139 -150 C149 -160 169 -170 201 -170 C218 -170 231 -166 244 -160 L267 -89 C258 -95 245 -99 234 -99 C224 -99 215 -96 209 -91 C203 -86 200 -78 200 -70 C200 -59 205 -46 219 -28 C239 -2 269 20 292 57 C307 81 318 110 323 138 L219 138 Z M151 267 C153 294 161 329 177 346 C187 357 199 360 207 360 C216 360 224 356 229 351 C239 341 243 320 243 299 C243 287 242 276 240 267 L151 267 Z " />
<glyph glyph-name="Ecaron" unicode="&#x11a;" horiz-adv-x="350" d="M366 667 L105 667 L23 0 L286 0 L301 123 L168 123 L187 273 L302 273 L318 399 L202 399 L220 543 L351 543 L366 667 Z M389 824 L348 886 L264 824 L198 886 L138 831 L252 724 L389 824 Z " />
<glyph glyph-name="ecaron" unicode="&#x11b;" horiz-adv-x="367" d="M222 154 C220 139 215 118 209 107 C201 93 190 85 174 85 C161 85 153 90 148 95 C138 106 136 130 136 144 C136 160 138 182 142 201 L337 201 C345 247 346 283 346 289 C346 323 343 383 302 423 C280 444 253 455 219 455 C176 455 139 439 108 408 C46 347 21 244 21 167 C21 97 43 55 67 29 C96 -1 129 -9 164 -9 C195 -9 234 -2 267 29 C300 60 321 111 326 154 L222 154 Z M152 278 C154 296 163 331 177 346 C187 357 199 360 207 360 C221 360 229 353 235 342 C241 331 243 317 243 302 C243 294 242 286 241 278 L152 278 Z M364 617 L323 679 L239 617 L173 679 L113 624 L227 517 L364 617 Z " />
<glyph glyph-name="Gcircumflex" unicode="&#x11c;" horiz-adv-x="517" d="M499 519 C483 615 424 677 324 677 C183 677 99 550 66 427 C51 370 44 310 44 251 C44 127 95 -11 241 -11 C354 -11 430 79 463 179 C484 241 491 306 498 371 L286 371 L272 253 L355 253 C347 199 328 109 258 109 C189 109 182 192 182 243 C182 318 206 561 310 561 C361 561 366 508 366 469 L499 519 Z M458 779 L344 886 L207 786 L248 724 L332 786 L398 724 L458 779 Z " />
<glyph glyph-name="gcircumflex" unicode="&#x11d;" horiz-adv-x="394" d="M381 447 L258 447 L251 393 C235 430 213 455 170 455 C53 455 20 246 20 158 C20 96 38 -9 119 -9 C162 -9 187 24 210 56 L202 4 C197 -32 188 -105 142 -105 C105 -105 103 -72 103 -51 L-5 -51 C-6 -52 -6 -61 -6 -70 C-6 -157 43 -206 130 -206 C200 -206 265 -177 299 -113 C315 -83 318 -56 322 -23 L381 447 Z M238 275 C238 239 228 105 179 105 C149 105 146 156 146 177 C146 213 159 343 208 343 C237 343 238 295 238 275 L238 275 Z M368 572 L254 679 L117 579 L158 517 L242 579 L308 517 L368 572 Z " />
<glyph glyph-name="Gbreve" unicode="&#x11e;" horiz-adv-x="517" d="M499 519 C483 615 424 677 324 677 C183 677 99 550 66 427 C51 370 44 310 44 251 C44 127 95 -11 241 -11 C354 -11 430 79 463 179 C484 241 491 306 498 371 L286 371 L272 253 L355 253 C347 199 328 109 258 109 C189 109 182 192 182 243 C182 318 206 561 310 561 C361 561 366 508 366 469 L499 519 Z M407 838 C403 826 396 815 388 809 C375 798 352 796 336 796 C326 796 305 797 292 809 C285 816 280 827 279 838 L213 838 C213 800 225 767 244 748 C268 723 300 718 328 718 C368 718 400 726 430 755 C446 771 466 798 473 838 L407 838 Z " />
<glyph glyph-name="gbreve" unicode="&#x11f;" horiz-adv-x="394" d="M381 447 L258 447 L251 393 C235 430 213 455 170 455 C53 455 20 246 20 158 C20 96 38 -9 119 -9 C162 -9 187 24 210 56 L202 4 C197 -32 188 -105 142 -105 C105 -105 103 -72 103 -51 L-5 -51 C-6 -52 -6 -61 -6 -70 C-6 -157 43 -206 130 -206 C200 -206 265 -177 299 -113 C315 -83 318 -56 322 -23 L381 447 Z M238 275 C238 239 228 105 179 105 C149 105 146 156 146 177 C146 213 159 343 208 343 C237 343 238 295 238 275 L238 275 Z M305 637 C301 625 294 614 286 608 C273 597 250 595 234 595 C224 595 203 596 190 608 C183 615 178 626 177 637 L111 637 C111 599 123 566 142 547 C166 522 198 517 226 517 C266 517 298 525 328 554 C344 570 364 597 371 637 L305 637 Z " />
<glyph glyph-name="Gdotaccent" unicode="&#x120;" horiz-adv-x="517" d="M499 519 C483 615 424 677 324 677 C183 677 99 550 66 427 C51 370 44 310 44 251 C44 127 95 -11 241 -11 C354 -11 430 79 463 179 C484 241 491 306 498 371 L286 371 L272 253 L355 253 C347 199 328 109 258 109 C189 109 182 192 182 243 C182 318 206 561 310 561 C361 561 366 508 366 469 L499 519 Z M399 798 C399 831 374 857 341 857 C301 857 267 821 267 782 C267 749 291 724 324 724 C363 724 399 758 399 798 L399 798 Z " />
<glyph glyph-name="gdotaccent" unicode="&#x121;" horiz-adv-x="394" d="M381 447 L258 447 L251 393 C235 430 213 455 170 455 C53 455 20 246 20 158 C20 96 38 -9 119 -9 C162 -9 187 24 210 56 L202 4 C197 -32 188 -105 142 -105 C105 -105 103 -72 103 -51 L-5 -51 C-6 -52 -6 -61 -6 -70 C-6 -157 43 -206 130 -206 C200 -206 265 -177 299 -113 C315 -83 318 -56 322 -23 L381 447 Z M238 275 C238 239 228 105 179 105 C149 105 146 156 146 177 C146 213 159 343 208 343 C237 343 238 295 238 275 L238 275 Z M306 591 C306 624 281 650 248 650 C208 650 174 614 174 575 C174 542 198 517 231 517 C270 517 306 551 306 591 L306 591 Z " />
<glyph glyph-name="Gcommaaccent" unicode="&#x122;" horiz-adv-x="517" d="M499 519 C483 615 424 677 324 677 C183 677 99 550 66 427 C51 370 44 310 44 251 C44 127 95 -11 241 -11 C354 -11 430 79 463 179 C484 241 491 306 498 371 L286 371 L272 253 L355 253 C347 199 328 109 258 109 C189 109 182 192 182 243 C182 318 206 561 310 561 C361 561 366 508 366 469 L499 519 Z M304 -46 L200 -46 L147 -214 L217 -214 L304 -46 Z " />
<glyph glyph-name="gcommaaccent" unicode="&#x123;" horiz-adv-x="394" d="M381 447 L258 447 L251 393 C235 430 213 455 170 455 C53 455 20 246 20 158 C20 96 38 -9 119 -9 C162 -9 187 24 210 56 L202 4 C197 -32 188 -105 142 -105 C105 -105 103 -72 103 -51 L-5 -51 C-6 -52 -6 -61 -6 -70 C-6 -157 43 -206 130 -206 C200 -206 265 -177 299 -113 C315 -83 318 -56 322 -23 L381 447 Z M238 275 C238 239 228 105 179 105 C149 105 146 156 146 177 C146 213 159 343 208 343 C237 343 238 295 238 275 L238 275 Z M148 495 L251 495 L309 677 L239 677 L148 495 Z " />
<glyph glyph-name="Hcircumflex" unicode="&#x124;" horiz-adv-x="494" d="M496 667 L366 667 L336 420 L205 420 L235 667 L105 667 L23 0 L153 0 L190 295 L321 295 L285 0 L415 0 L496 667 Z M438 779 L324 886 L187 786 L228 724 L312 786 L378 724 L438 779 Z " />
<glyph glyph-name="hcircumflex" unicode="&#x125;" horiz-adv-x="388" d="M224 729 L101 729 L11 0 L135 0 L166 255 C169 282 172 330 209 330 C226 330 232 316 232 301 C232 286 231 270 229 255 L197 0 L321 0 L357 299 C360 324 364 348 364 373 C364 418 346 455 296 455 C242 455 208 419 181 377 L224 729 Z M298 802 L184 909 L47 809 L88 747 L172 809 L238 747 L298 802 Z " />
<glyph glyph-name="Hbar" unicode="&#x126;" horiz-adv-x="494" d="M348 517 L337 420 L205 420 L216 517 L348 517 Z M415 0 L478 517 L528 517 L540 614 L490 614 L496 667 L366 667 L359 614 L228 614 L235 667 L105 667 L98 614 L48 614 L36 517 L86 517 L23 0 L153 0 L190 295 L321 295 L285 0 L415 0 Z " />
<glyph glyph-name="hbar" unicode="&#x127;" horiz-adv-x="395" d="M18 0 L142 0 L171 235 C174 262 177 310 214 310 C231 310 237 296 237 281 C237 266 236 250 234 235 L204 0 L328 0 L362 279 C365 304 369 328 369 353 C369 398 351 435 301 435 C247 435 213 399 186 357 L204 507 L312 507 L322 595 L214 595 L231 729 L107 729 L90 595 L35 595 L25 507 L80 507 L18 0 Z " />
<glyph glyph-name="Imacron" unicode="&#x12a;" horiz-adv-x="232" d="M235 667 L105 667 L23 0 L153 0 L235 667 Z M326 818 L44 818 L34 738 L316 738 L326 818 Z " />
<glyph glyph-name="imacron" unicode="&#x12b;" horiz-adv-x="203" d="M190 447 L66 447 L11 0 L135 0 L190 447 Z M283 611 L1 611 L-9 531 L273 531 L283 611 Z " />
<glyph glyph-name="Iogonek" unicode="&#x12e;" horiz-adv-x="232" d="M235 667 L105 667 L23 0 L90 0 C74 -11 58 -25 48 -37 C31 -58 25 -80 25 -102 C25 -116 28 -135 43 -150 C61 -168 86 -170 101 -170 C121 -170 136 -168 152 -160 L176 -85 C167 -91 154 -95 141 -95 C130 -95 121 -92 116 -86 C113 -83 109 -77 109 -67 C109 -52 117 -40 125 -29 C133 -19 142 -9 153 0 L235 667 Z " />
<glyph glyph-name="iogonek" unicode="&#x12f;" horiz-adv-x="203" d="M225 588 C225 627 197 658 157 658 C110 658 68 617 68 570 C68 532 97 500 136 500 C183 500 225 541 225 588 L225 588 Z M154 -97 C145 -107 133 -114 122 -114 C115 -114 105 -112 96 -103 C89 -96 86 -88 86 -79 C86 -72 88 -57 106 -34 C109 -30 114 -23 135 0 L190 447 L66 447 L11 0 L77 0 C64 -13 42 -36 32 -49 C19 -65 6 -88 6 -115 C6 -137 15 -152 24 -161 C39 -177 63 -185 83 -185 C109 -185 124 -174 131 -168 L154 -97 Z " />
<glyph glyph-name="Idotaccent" unicode="&#x130;" horiz-adv-x="232" d="M235 667 L105 667 L23 0 L153 0 L235 667 Z M250 798 C250 831 225 857 192 857 C152 857 118 821 118 782 C118 749 142 724 175 724 C214 724 250 758 250 798 L250 798 Z " />
<glyph glyph-name="dotlessi" unicode="&#x131;" horiz-adv-x="203" d="M190 447 L66 447 L11 0 L135 0 L190 447 Z " />
<glyph glyph-name="Jcircumflex" unicode="&#x134;" horiz-adv-x="305" d="M308 667 L178 667 L121 205 C116 162 109 105 53 105 C24 105 5 120 -11 142 L-27 10 C2 -5 34 -11 66 -11 C135 -11 194 27 223 89 C240 125 246 166 251 205 L308 667 Z M378 779 L264 886 L127 786 L168 724 L252 786 L318 724 L378 779 Z " />
<glyph glyph-name="jcircumflex" unicode="&#x135;" horiz-adv-x="201" d="M188 447 L64 447 L-16 -206 L108 -206 L188 447 Z M264 572 L150 679 L13 579 L54 517 L138 579 L204 517 L264 572 Z " />
<glyph glyph-name="Kcommaaccent" unicode="&#x136;" horiz-adv-x="445" d="M477 667 L345 667 L198 369 L235 667 L105 667 L23 0 L153 0 L195 339 L274 0 L407 0 L314 356 L477 667 Z M264 -46 L160 -46 L107 -214 L177 -214 L264 -46 Z " />
<glyph glyph-name="kcommaaccent" unicode="&#x137;" horiz-adv-x="383" d="M391 447 L259 447 L169 275 L224 729 L101 729 L11 0 L135 0 L164 233 L228 0 L358 0 L269 249 L391 447 Z M228 -46 L125 -46 L67 -228 L137 -228 L228 -46 Z " />
<glyph glyph-name="Lacute" unicode="&#x139;" horiz-adv-x="324" d="M305 125 L169 125 L235 667 L105 667 L23 0 L289 0 L305 125 Z M127 747 L188 711 L302 825 L221 875 L127 747 Z " />
<glyph glyph-name="lacute" unicode="&#x13a;" horiz-adv-x="204" d="M224 729 L101 729 L11 0 L135 0 L224 729 Z M296 869 L213 911 L113 783 L169 747 L296 869 Z " />
<glyph glyph-name="Lcommaaccent" unicode="&#x13b;" horiz-adv-x="324" d="M305 125 L169 125 L235 667 L105 667 L23 0 L289 0 L305 125 Z M214 -46 L110 -46 L57 -214 L127 -214 L214 -46 Z " />
<glyph glyph-name="lcommaaccent" unicode="&#x13c;" horiz-adv-x="204" d="M224 729 L101 729 L11 0 L135 0 L224 729 Z M116 -46 L13 -46 L-45 -228 L25 -228 L116 -46 Z " />
<glyph glyph-name="Lcaron" unicode="&#x13d;" horiz-adv-x="441" d="M305 125 L169 125 L235 667 L105 667 L23 0 L289 0 L305 125 Z M441 667 L337 667 L271 469 L341 469 L441 667 Z " />
<glyph glyph-name="lcaron" unicode="&#x13e;" horiz-adv-x="391" d="M224 729 L101 729 L11 0 L135 0 L224 729 Z M398 667 L295 667 L225 463 L295 463 L398 667 Z " />
<glyph glyph-name="Ldot" unicode="&#x13f;" horiz-adv-x="324" d="M305 125 L169 125 L235 667 L105 667 L23 0 L289 0 L305 125 Z M359 342 C359 375 334 401 301 401 C261 401 227 365 227 326 C227 293 251 268 284 268 C323 268 359 302 359 342 L359 342 Z " />
<glyph glyph-name="ldot" unicode="&#x140;" horiz-adv-x="326" d="M224 729 L101 729 L11 0 L135 0 L224 729 Z M347 373 C347 406 322 432 289 432 C249 432 215 396 215 357 C215 324 239 299 272 299 C311 299 347 333 347 373 L347 373 Z " />
<glyph glyph-name="Lslash" unicode="&#x141;" horiz-adv-x="324" d="M309 482 L203 406 L235 667 L105 667 L65 344 L10 302 L-4 186 L51 229 L23 0 L289 0 L305 125 L169 125 L189 290 L295 366 L309 482 Z " />
<glyph glyph-name="lslash" unicode="&#x142;" horiz-adv-x="222" d="M252 488 L200 448 L235 729 L111 729 L69 385 L17 343 L4 237 L56 279 L22 0 L145 0 L187 342 L239 382 L252 488 Z " />
<glyph glyph-name="Nacute" unicode="&#x143;" horiz-adv-x="510" d="M512 667 L380 667 L341 356 C339 341 339 327 339 312 C339 296 339 280 340 264 L228 667 L105 667 L23 0 L153 0 L192 316 C196 345 196 373 196 402 L308 0 L430 0 L512 667 Z M250 747 L311 711 L425 825 L344 875 L250 747 Z " />
<glyph glyph-name="nacute" unicode="&#x144;" horiz-adv-x="388" d="M190 447 L66 447 L11 0 L135 0 L166 255 C169 282 172 330 209 330 C226 330 232 316 232 301 C232 286 231 270 229 255 L197 0 L321 0 L357 299 C360 324 364 348 364 373 C364 418 346 455 296 455 C242 455 208 419 181 377 L190 447 Z M380 639 L297 681 L197 553 L253 517 L380 639 Z " />
<glyph glyph-name="Ncommaaccent" unicode="&#x145;" horiz-adv-x="510" d="M512 667 L380 667 L341 356 C339 341 339 327 339 312 C339 296 339 280 340 264 L228 667 L105 667 L23 0 L153 0 L192 316 C196 345 196 373 196 402 L308 0 L430 0 L512 667 Z M284 -46 L180 -46 L127 -214 L197 -214 L284 -46 Z " />
<glyph glyph-name="ncommaaccent" unicode="&#x146;" horiz-adv-x="388" d="M190 447 L66 447 L11 0 L135 0 L166 255 C169 282 172 330 209 330 C226 330 232 316 232 301 C232 286 231 270 229 255 L197 0 L321 0 L357 299 C360 324 364 348 364 373 C364 418 346 455 296 455 C242 455 208 419 181 377 L190 447 Z M213 -46 L110 -46 L52 -228 L122 -228 L213 -46 Z " />
<glyph glyph-name="Ncaron" unicode="&#x147;" horiz-adv-x="510" d="M512 667 L380 667 L341 356 C339 341 339 327 339 312 C339 296 339 280 340 264 L228 667 L105 667 L23 0 L153 0 L192 316 C196 345 196 373 196 402 L308 0 L430 0 L512 667 Z M449 824 L408 886 L324 824 L258 886 L198 831 L312 724 L449 824 Z " />
<glyph glyph-name="ncaron" unicode="&#x148;" horiz-adv-x="388" d="M190 447 L66 447 L11 0 L135 0 L166 255 C169 282 172 330 209 330 C226 330 232 316 232 301 C232 286 231 270 229 255 L197 0 L321 0 L357 299 C360 324 364 348 364 373 C364 418 346 455 296 455 C242 455 208 419 181 377 L190 447 Z M378 617 L337 679 L253 617 L187 679 L127 624 L241 517 L378 617 Z " />
<glyph glyph-name="Omacron" unicode="&#x14c;" horiz-adv-x="534" d="M517 434 C517 552 458 677 324 677 C180 677 97 549 65 423 C49 364 43 302 43 241 C43 185 49 132 78 83 C110 28 171 -11 236 -11 C360 -11 444 90 482 199 C507 270 517 358 517 434 L517 434 Z M378 427 C378 389 376 351 370 314 C362 255 330 116 253 116 C194 116 182 201 182 245 C182 283 184 321 190 358 C198 417 231 556 307 556 C367 556 378 472 378 427 L378 427 Z M488 818 L206 818 L196 738 L478 738 L488 818 Z " />
<glyph glyph-name="omacron" unicode="&#x14d;" horiz-adv-x="386" d="M363 289 C363 379 321 455 222 455 C80 455 23 296 23 177 C23 82 54 -9 165 -9 C320 -9 363 164 363 289 L363 289 Z M237 277 C237 241 227 103 178 103 C149 103 147 155 147 175 C147 211 160 343 208 343 C236 343 237 296 237 277 L237 277 Z M378 611 L96 611 L86 531 L368 531 L378 611 Z " />
<glyph glyph-name="Obreve" unicode="&#x14e;" horiz-adv-x="534" d="M517 434 C517 552 458 677 324 677 C180 677 97 549 65 423 C49 364 43 302 43 241 C43 185 49 132 78 83 C110 28 171 -11 236 -11 C360 -11 444 90 482 199 C507 270 517 358 517 434 L517 434 Z M378 427 C378 389 376 351 370 314 C362 255 330 116 253 116 C194 116 182 201 182 245 C182 283 184 321 190 358 C198 417 231 556 307 556 C367 556 378 472 378 427 L378 427 Z M407 838 C403 826 396 815 388 809 C375 798 352 796 336 796 C326 796 305 797 292 809 C285 816 280 827 279 838 L213 838 C213 800 225 767 244 748 C268 723 300 718 328 718 C368 718 400 726 430 755 C446 771 466 798 473 838 L407 838 Z " />
<glyph glyph-name="obreve" unicode="&#x14f;" horiz-adv-x="386" d="M363 289 C363 379 321 455 222 455 C80 455 23 296 23 177 C23 82 54 -9 165 -9 C320 -9 363 164 363 289 L363 289 Z M237 277 C237 241 227 103 178 103 C149 103 147 155 147 175 C147 211 160 343 208 343 C236 343 237 296 237 277 L237 277 Z M308 637 C304 625 297 614 289 608 C276 597 253 595 237 595 C227 595 206 596 193 608 C186 615 181 626 180 637 L114 637 C114 599 126 566 145 547 C169 522 201 517 229 517 C269 517 301 525 331 554 C347 570 367 597 374 637 L308 637 Z " />
<glyph glyph-name="Ohungarumlaut" unicode="&#x150;" horiz-adv-x="534" d="M517 434 C517 552 458 677 324 677 C180 677 97 549 65 423 C49 364 43 302 43 241 C43 185 49 132 78 83 C110 28 171 -11 236 -11 C360 -11 444 90 482 199 C507 270 517 358 517 434 L517 434 Z M378 427 C378 389 376 351 370 314 C362 255 330 116 253 116 C194 116 182 201 182 245 C182 283 184 321 190 358 C198 417 231 556 307 556 C367 556 378 472 378 427 L378 427 Z M488 846 L412 888 L338 760 L389 724 L488 846 Z M353 846 L276 888 L202 760 L253 724 L353 846 Z " />
<glyph glyph-name="ohungarumlaut" unicode="&#x151;" horiz-adv-x="386" d="M363 289 C363 379 321 455 222 455 C80 455 23 296 23 177 C23 82 54 -9 165 -9 C320 -9 363 164 363 289 L363 289 Z M237 277 C237 241 227 103 178 103 C149 103 147 155 147 175 C147 211 160 343 208 343 C236 343 237 296 237 277 L237 277 Z M409 639 L333 681 L259 553 L310 517 L409 639 Z M274 639 L197 681 L123 553 L174 517 L274 639 Z " />
<glyph glyph-name="OE" unicode="&#x152;" horiz-adv-x="665" d="M681 667 L412 667 L408 629 C382 664 347 677 304 677 C107 677 43 401 43 246 C43 133 72 -11 213 -11 C265 -11 304 14 337 52 L331 0 L600 0 L616 125 L474 125 L493 277 L619 277 L634 405 L508 405 L525 544 L666 544 L681 667 Z M378 429 C378 353 360 112 253 112 C189 112 183 203 183 250 C183 324 205 561 308 561 C374 561 378 477 378 429 L378 429 Z " />
<glyph glyph-name="oe" unicode="&#x153;" horiz-adv-x="575" d="M426 139 C423 115 409 86 381 86 C348 86 341 123 341 149 C341 162 342 176 344 189 L542 189 C548 222 553 255 553 288 C553 377 522 455 420 455 C374 455 347 440 313 411 C290 440 260 455 222 455 C124 455 62 368 37 282 C26 243 21 202 21 162 C21 76 58 -9 156 -9 C198 -9 231 10 259 40 C286 7 325 -9 367 -9 C460 -9 513 52 530 139 L426 139 Z M357 266 C361 296 371 357 411 357 C439 357 445 323 445 301 C445 289 443 278 442 266 L357 266 Z M238 276 C238 240 228 103 179 103 C149 103 147 154 147 175 C147 211 160 343 208 343 C237 343 238 296 238 276 L238 276 Z " />
<glyph glyph-name="Racute" unicode="&#x154;" horiz-adv-x="466" d="M105 667 L23 0 L153 0 L191 307 L269 0 L405 0 L328 303 C403 347 444 413 444 500 C444 551 428 604 385 635 C346 663 292 667 246 667 L105 667 Z M222 563 L247 563 C296 563 317 538 317 490 C317 430 285 379 220 379 C213 379 207 379 200 380 L222 563 Z M212 747 L273 711 L387 825 L306 875 L212 747 Z " />
<glyph glyph-name="racute" unicode="&#x155;" horiz-adv-x="274" d="M293 463 C240 456 215 432 183 392 L190 447 L66 447 L11 0 L135 0 L164 233 C172 299 183 344 260 344 C266 344 272 343 278 342 L293 463 Z M336 639 L253 681 L153 553 L209 517 L336 639 Z " />
<glyph glyph-name="Rcommaaccent" unicode="&#x156;" horiz-adv-x="466" d="M105 667 L23 0 L153 0 L191 307 L269 0 L405 0 L328 303 C403 347 444 413 444 500 C444 551 428 604 385 635 C346 663 292 667 246 667 L105 667 Z M222 563 L247 563 C296 563 317 538 317 490 C317 430 285 379 220 379 C213 379 207 379 200 380 L222 563 Z M269 -46 L165 -46 L112 -214 L182 -214 L269 -46 Z " />
<glyph glyph-name="rcommaaccent" unicode="&#x157;" horiz-adv-x="274" d="M293 463 C240 456 215 432 183 392 L190 447 L66 447 L11 0 L135 0 L164 233 C172 299 183 344 260 344 C266 344 272 343 278 342 L293 463 Z M183 -46 L80 -46 L22 -228 L92 -228 L183 -46 Z " />
<glyph glyph-name="Rcaron" unicode="&#x158;" horiz-adv-x="466" d="M105 667 L23 0 L153 0 L191 307 L269 0 L405 0 L328 303 C403 347 444 413 444 500 C444 551 428 604 385 635 C346 663 292 667 246 667 L105 667 Z M222 563 L247 563 C296 563 317 538 317 490 C317 430 285 379 220 379 C213 379 207 379 200 380 L222 563 Z M407 824 L366 886 L282 824 L216 886 L156 831 L270 724 L407 824 Z " />
<glyph glyph-name="rcaron" unicode="&#x159;" horiz-adv-x="274" d="M293 463 C240 456 215 432 183 392 L190 447 L66 447 L11 0 L135 0 L164 233 C172 299 183 344 260 344 C266 344 272 343 278 342 L293 463 Z M334 617 L293 679 L209 617 L143 679 L83 624 L197 517 L334 617 Z " />
<glyph glyph-name="Sacute" unicode="&#x15a;" horiz-adv-x="385" d="M374 645 C337 667 306 677 263 677 C140 677 65 565 65 451 C65 370 102 329 163 283 C174 275 185 267 195 258 C207 248 220 236 226 221 C229 214 229 205 229 198 C229 147 193 113 142 113 C106 113 79 128 51 149 L35 23 C67 -1 105 -11 145 -11 C276 -11 359 102 359 226 C359 371 195 387 195 483 C195 527 225 559 269 559 C305 559 333 540 358 516 L374 645 Z M227 747 L288 711 L402 825 L321 875 L227 747 Z " />
<glyph glyph-name="sacute" unicode="&#x15b;" horiz-adv-x="310" d="M318 417 C283 444 250 455 206 455 C117 455 41 398 41 304 C41 190 163 193 163 145 C163 120 144 103 120 103 C96 103 80 115 63 131 L-3 42 C34 11 74 -9 123 -9 C221 -9 285 76 285 169 C285 275 167 276 167 319 C167 340 182 356 203 356 C227 356 243 343 258 326 L318 417 Z M331 639 L248 681 L148 553 L204 517 L331 639 Z " />
<glyph glyph-name="Scircumflex" unicode="&#x15c;" horiz-adv-x="385" d="M374 645 C337 667 306 677 263 677 C140 677 65 565 65 451 C65 370 102 329 163 283 C174 275 185 267 195 258 C207 248 220 236 226 221 C229 214 229 205 229 198 C229 147 193 113 142 113 C106 113 79 128 51 149 L35 23 C67 -1 105 -11 145 -11 C276 -11 359 102 359 226 C359 371 195 387 195 483 C195 527 225 559 269 559 C305 559 333 540 358 516 L374 645 Z M403 779 L289 886 L152 786 L193 724 L277 786 L343 724 L403 779 Z " />
<glyph glyph-name="scircumflex" unicode="&#x15d;" horiz-adv-x="310" d="M318 417 C283 444 250 455 206 455 C117 455 41 398 41 304 C41 190 163 193 163 145 C163 120 144 103 120 103 C96 103 80 115 63 131 L-3 42 C34 11 74 -9 123 -9 C221 -9 285 76 285 169 C285 275 167 276 167 319 C167 340 182 356 203 356 C227 356 243 343 258 326 L318 417 Z M343 572 L229 679 L92 579 L133 517 L217 579 L283 517 L343 572 Z " />
<glyph glyph-name="Scedilla" unicode="&#x15e;" horiz-adv-x="385" d="M374 645 C337 667 306 677 263 677 C140 677 65 565 65 451 C65 370 102 329 163 283 C174 275 185 267 195 258 C207 248 220 236 226 221 C229 214 229 205 229 198 C229 147 193 113 142 113 C106 113 79 128 51 149 L35 23 C67 -1 105 -11 145 -11 C276 -11 359 102 359 226 C359 371 195 387 195 483 C195 527 225 559 269 559 C305 559 333 540 358 516 L374 645 Z M232 -77 L142 -42 L63 -169 L123 -205 L232 -77 Z " />
<glyph glyph-name="scedilla" unicode="&#x15f;" horiz-adv-x="310" d="M318 417 C283 444 250 455 206 455 C117 455 41 398 41 304 C41 190 163 193 163 145 C163 120 144 103 120 103 C96 103 80 115 63 131 L-3 42 C34 11 74 -9 123 -9 C221 -9 285 76 285 169 C285 275 167 276 167 319 C167 340 182 356 203 356 C227 356 243 343 258 326 L318 417 Z M193 -74 L119 -42 L36 -164 L87 -193 L193 -74 Z " />
<glyph glyph-name="Scaron" unicode="&#x160;" horiz-adv-x="385" d="M374 645 C337 667 306 677 263 677 C140 677 65 565 65 451 C65 370 102 329 163 283 C174 275 185 267 195 258 C207 248 220 236 226 221 C229 214 229 205 229 198 C229 147 193 113 142 113 C106 113 79 128 51 149 L35 23 C67 -1 105 -11 145 -11 C276 -11 359 102 359 226 C359 371 195 387 195 483 C195 527 225 559 269 559 C305 559 333 540 358 516 L374 645 Z M404 824 L363 886 L279 824 L213 886 L153 831 L267 724 L404 824 Z " />
<glyph glyph-name="scaron" unicode="&#x161;" horiz-adv-x="310" d="M318 417 C283 444 250 455 206 455 C117 455 41 398 41 304 C41 190 163 193 163 145 C163 120 144 103 120 103 C96 103 80 115 63 131 L-3 42 C34 11 74 -9 123 -9 C221 -9 285 76 285 169 C285 275 167 276 167 319 C167 340 182 356 203 356 C227 356 243 343 258 326 L318 417 Z M349 617 L308 679 L224 617 L158 679 L98 624 L212 517 L349 617 Z " />
<glyph glyph-name="Tcedilla" unicode="&#x162;" horiz-adv-x="334" d="M388 667 L54 667 L39 545 L141 545 L74 0 L204 0 L271 545 L373 545 L388 667 Z M218 -77 L128 -42 L49 -169 L109 -205 L218 -77 Z " />
<glyph glyph-name="tcedilla" unicode="&#x163;" horiz-adv-x="226" d="M251 447 L201 447 L217 574 L94 574 L78 447 L36 447 L23 343 L65 343 L23 0 L146 0 L189 343 L239 343 L251 447 Z M153 -74 L79 -42 L-4 -164 L47 -193 L153 -74 Z " />
<glyph glyph-name="Tcaron" unicode="&#x164;" horiz-adv-x="334" d="M388 667 L54 667 L39 545 L141 545 L74 0 L204 0 L271 545 L373 545 L388 667 Z M364 824 L323 886 L239 824 L173 886 L113 831 L227 724 L364 824 Z " />
<glyph glyph-name="tcaron" unicode="&#x165;" horiz-adv-x="401" d="M251 447 L201 447 L217 574 L94 574 L78 447 L36 447 L23 343 L65 343 L23 0 L146 0 L189 343 L239 343 L251 447 Z M408 677 L305 677 L235 473 L305 473 L408 677 Z " />
<glyph glyph-name="Utilde" unicode="&#x168;" horiz-adv-x="491" d="M494 667 L364 667 L309 224 C302 171 301 109 231 109 C189 109 176 136 176 174 C176 191 179 207 181 224 L235 667 L105 667 L46 188 C44 171 41 153 41 136 C41 30 116 -11 213 -11 C283 -11 357 9 399 68 C423 101 428 131 433 170 L494 667 Z M396 846 C388 827 385 811 361 811 C327 811 302 845 260 845 C194 845 175 780 163 727 L227 727 C232 742 241 755 258 755 C287 755 320 724 360 724 C425 724 446 790 460 842 L396 846 Z " />
<glyph glyph-name="utilde" unicode="&#x169;" horiz-adv-x="387" d="M374 447 L251 447 L219 191 C216 166 215 107 179 107 C159 107 154 123 154 140 C154 157 156 174 158 191 L190 447 L66 447 L32 168 C30 149 27 131 27 112 C27 34 90 -9 163 -9 C217 -9 273 16 306 60 C329 90 334 114 338 151 L374 447 Z M320 639 C312 620 309 604 285 604 C251 604 226 638 184 638 C118 638 99 573 87 520 L151 520 C156 535 165 548 182 548 C211 548 244 517 284 517 C349 517 370 583 384 635 L320 639 Z " />
<glyph glyph-name="Umacron" unicode="&#x16a;" horiz-adv-x="491" d="M494 667 L364 667 L309 224 C302 171 301 109 231 109 C189 109 176 136 176 174 C176 191 179 207 181 224 L235 667 L105 667 L46 188 C44 171 41 153 41 136 C41 30 116 -11 213 -11 C283 -11 357 9 399 68 C423 101 428 131 433 170 L494 667 Z M453 818 L171 818 L161 738 L443 738 L453 818 Z " />
<glyph glyph-name="umacron" unicode="&#x16b;" horiz-adv-x="387" d="M374 447 L251 447 L219 191 C216 166 215 107 179 107 C159 107 154 123 154 140 C154 157 156 174 158 191 L190 447 L66 447 L32 168 C30 149 27 131 27 112 C27 34 90 -9 163 -9 C217 -9 273 16 306 60 C329 90 334 114 338 151 L374 447 Z M378 611 L96 611 L86 531 L368 531 L378 611 Z " />
<glyph glyph-name="Ubreve" unicode="&#x16c;" horiz-adv-x="491" d="M494 667 L364 667 L309 224 C302 171 301 109 231 109 C189 109 176 136 176 174 C176 191 179 207 181 224 L235 667 L105 667 L46 188 C44 171 41 153 41 136 C41 30 116 -11 213 -11 C283 -11 357 9 399 68 C423 101 428 131 433 170 L494 667 Z M382 838 C378 826 371 815 363 809 C350 798 327 796 311 796 C301 796 280 797 267 809 C260 816 255 827 254 838 L188 838 C188 800 200 767 219 748 C243 723 275 718 303 718 C343 718 375 726 405 755 C421 771 441 798 448 838 L382 838 Z " />
<glyph glyph-name="ubreve" unicode="&#x16d;" horiz-adv-x="387" d="M374 447 L251 447 L219 191 C216 166 215 107 179 107 C159 107 154 123 154 140 C154 157 156 174 158 191 L190 447 L66 447 L32 168 C30 149 27 131 27 112 C27 34 90 -9 163 -9 C217 -9 273 16 306 60 C329 90 334 114 338 151 L374 447 Z M299 637 C295 625 288 614 280 608 C267 597 244 595 228 595 C218 595 197 596 184 608 C177 615 172 626 171 637 L105 637 C105 599 117 566 136 547 C160 522 192 517 220 517 C260 517 292 525 322 554 C338 570 358 597 365 637 L299 637 Z " />
<glyph glyph-name="Uring" unicode="&#x16e;" horiz-adv-x="491" d="M494 667 L364 667 L309 224 C302 171 301 109 231 109 C189 109 176 136 176 174 C176 191 179 207 181 224 L235 667 L105 667 L46 188 C44 171 41 153 41 136 C41 30 116 -11 213 -11 C283 -11 357 9 399 68 C423 101 428 131 433 170 L494 667 Z M218 810 C218 757 261 714 314 714 C367 714 410 757 410 810 C410 863 367 906 314 906 C261 906 218 863 218 810 L218 810 Z M273 810 C273 834 290 851 314 851 C338 851 355 834 355 810 C355 786 338 769 314 769 C290 769 273 786 273 810 L273 810 Z " />
<glyph glyph-name="uring" unicode="&#x16f;" horiz-adv-x="387" d="M374 447 L251 447 L219 191 C216 166 215 107 179 107 C159 107 154 123 154 140 C154 157 156 174 158 191 L190 447 L66 447 L32 168 C30 149 27 131 27 112 C27 34 90 -9 163 -9 C217 -9 273 16 306 60 C329 90 334 114 338 151 L374 447 Z M135 619 C135 566 178 523 231 523 C284 523 327 566 327 619 C327 672 284 715 231 715 C178 715 135 672 135 619 L135 619 Z M190 619 C190 643 207 660 231 660 C255 660 272 643 272 619 C272 595 255 578 231 578 C207 578 190 595 190 619 L190 619 Z " />
<glyph glyph-name="Uhungarumlaut" unicode="&#x170;" horiz-adv-x="491" d="M494 667 L364 667 L309 224 C302 171 301 109 231 109 C189 109 176 136 176 174 C176 191 179 207 181 224 L235 667 L105 667 L46 188 C44 171 41 153 41 136 C41 30 116 -11 213 -11 C283 -11 357 9 399 68 C423 101 428 131 433 170 L494 667 Z M461 846 L385 888 L311 760 L362 724 L461 846 Z M326 846 L249 888 L175 760 L226 724 L326 846 Z " />
<glyph glyph-name="uhungarumlaut" unicode="&#x171;" horiz-adv-x="387" d="M374 447 L251 447 L219 191 C216 166 215 107 179 107 C159 107 154 123 154 140 C154 157 156 174 158 191 L190 447 L66 447 L32 168 C30 149 27 131 27 112 C27 34 90 -9 163 -9 C217 -9 273 16 306 60 C329 90 334 114 338 151 L374 447 Z M395 639 L319 681 L245 553 L296 517 L395 639 Z M260 639 L183 681 L109 553 L160 517 L260 639 Z " />
<glyph glyph-name="Uogonek" unicode="&#x172;" horiz-adv-x="491" d="M494 667 L364 667 L306 199 C303 177 299 144 280 126 C266 112 248 109 232 109 C219 109 201 110 188 127 C177 141 176 159 176 172 C176 179 176 191 179 211 L235 667 L105 667 L46 196 C44 181 41 146 41 131 C41 89 57 56 77 35 C104 6 155 -12 204 -12 C213 -12 221 -10 230 -10 C212 -24 179 -56 179 -102 C179 -116 182 -135 197 -150 C215 -168 240 -170 255 -170 C275 -170 290 -168 306 -160 L330 -85 C321 -91 308 -95 295 -95 C284 -95 275 -92 270 -86 C267 -83 263 -77 263 -67 C263 -56 267 -45 275 -36 C280 -30 290 -21 320 -4 C340 7 358 14 383 42 C408 69 424 97 433 170 L494 667 Z " />
<glyph glyph-name="uogonek" unicode="&#x173;" horiz-adv-x="387" d="M374 447 L251 447 L218 181 C215 156 211 128 200 116 C195 111 185 107 178 107 C173 107 167 109 163 112 C155 119 154 132 154 139 C154 155 157 177 158 187 L190 447 L66 447 L32 169 C31 161 27 129 27 115 C27 75 41 47 62 27 C91 -1 129 -10 174 -10 C157 -25 120 -62 120 -104 C120 -121 127 -138 139 -150 C150 -161 168 -170 198 -170 C214 -170 229 -167 244 -160 L267 -89 C258 -95 245 -99 234 -99 C224 -99 215 -96 209 -91 C204 -86 200 -78 200 -69 C200 -54 209 -42 217 -33 C229 -20 240 -11 251 -3 C263 5 276 15 291 31 C317 60 331 92 338 151 L374 447 Z " />
<glyph glyph-name="Ydieresis" unicode="&#x178;" horiz-adv-x="440" d="M494 667 L349 667 L282 517 C268 485 257 460 244 423 C242 439 235 493 230 514 L197 667 L54 667 L164 285 L129 0 L259 0 L295 285 L494 667 Z M433 797 C433 830 408 856 375 856 C336 856 302 821 302 782 C302 750 325 724 358 724 C397 724 433 757 433 797 L433 797 Z M260 797 C260 830 235 856 202 856 C163 856 129 821 129 782 C129 749 153 724 186 724 C225 724 260 758 260 797 L260 797 Z " />
<glyph glyph-name="Zacute" unicode="&#x179;" horiz-adv-x="449" d="M485 667 L99 667 L84 541 L275 541 L-10 0 L385 0 L401 125 L194 125 L485 667 Z M220 747 L281 711 L395 825 L314 875 L220 747 Z " />
<glyph glyph-name="zacute" unicode="&#x17a;" horiz-adv-x="336" d="M349 447 L54 447 L42 343 L167 343 L-15 0 L280 0 L293 103 L171 103 L349 447 Z M334 639 L251 681 L151 553 L207 517 L334 639 Z " />
<glyph glyph-name="Zdotaccent" unicode="&#x17b;" horiz-adv-x="449" d="M485 667 L99 667 L84 541 L275 541 L-10 0 L385 0 L401 125 L194 125 L485 667 Z M368 798 C368 831 343 857 310 857 C270 857 236 821 236 782 C236 749 260 724 293 724 C332 724 368 758 368 798 L368 798 Z " />
<glyph glyph-name="zdotaccent" unicode="&#x17c;" horiz-adv-x="336" d="M349 447 L54 447 L42 343 L167 343 L-15 0 L280 0 L293 103 L171 103 L349 447 Z M282 591 C282 624 257 650 224 650 C184 650 150 614 150 575 C150 542 174 517 207 517 C246 517 282 551 282 591 L282 591 Z " />
<glyph glyph-name="Zcaron" unicode="&#x17d;" horiz-adv-x="449" d="M485 667 L99 667 L84 541 L275 541 L-10 0 L385 0 L401 125 L194 125 L485 667 Z M424 824 L383 886 L299 824 L233 886 L173 831 L287 724 L424 824 Z " />
<glyph glyph-name="zcaron" unicode="&#x17e;" horiz-adv-x="336" d="M349 447 L54 447 L42 343 L167 343 L-15 0 L280 0 L293 103 L171 103 L349 447 Z M342 617 L301 679 L217 617 L151 679 L91 624 L205 517 L342 617 Z " />
<glyph glyph-name="uni018F" unicode="&#x18f;" horiz-adv-x="523" d="M56 371 C49 327 43 271 43 227 C43 175 49 93 108 33 C140 1 172 -11 219 -11 C287 -11 339 13 383 55 C488 156 506 332 506 423 C506 467 501 569 435 630 C389 672 334 677 302 677 C239 677 190 658 149 621 C121 595 96 558 80 519 L202 469 C217 515 230 534 241 544 C254 556 269 561 288 561 C303 561 320 557 335 541 C368 507 369 422 364 371 L56 371 Z M171 253 L344 253 C339 218 320 163 291 134 C275 117 256 109 232 109 C217 109 204 114 192 126 C164 155 164 217 171 253 L171 253 Z " />
<glyph glyph-name="florin" unicode="&#x192;" horiz-adv-x="433" d="M420 728 C399 736 382 740 360 740 C321 740 280 726 254 696 C225 663 216 617 208 575 C201 538 193 500 182 447 L116 447 L103 379 L169 379 L119 126 C114 101 109 75 103 50 C96 25 90 -13 57 -13 C48 -13 38 -10 30 -6 L7 -124 C27 -129 47 -133 68 -133 C210 -133 221 13 242 117 L295 379 L365 379 L378 447 L308 447 L327 545 C332 570 336 616 372 616 C381 616 389 614 397 610 L420 728 Z " />
<glyph glyph-name="uni01CF" unicode="&#x1cf;" horiz-adv-x="232" d="M235 667 L105 667 L23 0 L153 0 L235 667 Z M314 824 L273 886 L189 824 L123 886 L63 831 L177 724 L314 824 Z " />
<glyph glyph-name="uni01D0" unicode="&#x1d0;" horiz-adv-x="203" d="M190 447 L66 447 L11 0 L135 0 L190 447 Z M269 617 L228 679 L144 617 L78 679 L18 624 L132 517 L269 617 Z " />
<glyph glyph-name="uni01DD" unicode="&#x1dd;" horiz-adv-x="373" d="M144 308 C147 323 154 339 162 348 C171 357 180 361 193 361 C208 361 217 355 221 351 C234 338 235 315 235 299 C235 284 234 271 232 256 L34 256 C30 239 23 201 23 157 C23 129 25 66 64 26 C94 -5 129 -9 155 -9 C203 -9 237 3 269 36 C328 97 350 203 350 283 C350 315 347 379 305 419 C274 448 234 455 202 455 C164 455 124 447 91 413 C68 390 52 357 44 328 L144 308 Z M221 179 C219 161 213 113 191 95 C186 91 177 86 165 86 C156 86 148 88 141 95 C128 108 127 134 127 143 C127 149 127 162 131 179 L221 179 Z " />
<glyph glyph-name="Gcaron" unicode="&#x1e6;" horiz-adv-x="517" d="M499 519 C483 615 424 677 324 677 C183 677 99 550 66 427 C51 370 44 310 44 251 C44 127 95 -11 241 -11 C354 -11 430 79 463 179 C484 241 491 306 498 371 L286 371 L272 253 L355 253 C347 199 328 109 258 109 C189 109 182 192 182 243 C182 318 206 561 310 561 C361 561 366 508 366 469 L499 519 Z M464 824 L423 886 L339 824 L273 886 L213 831 L327 724 L464 824 Z " />
<glyph glyph-name="gcaron" unicode="&#x1e7;" horiz-adv-x="394" d="M381 447 L258 447 L251 393 C235 430 213 455 170 455 C53 455 20 246 20 158 C20 96 38 -9 119 -9 C162 -9 187 24 210 56 L202 4 C197 -32 188 -105 142 -105 C105 -105 103 -72 103 -51 L-5 -51 C-6 -52 -6 -61 -6 -70 C-6 -157 43 -206 130 -206 C200 -206 265 -177 299 -113 C315 -83 318 -56 322 -23 L381 447 Z M238 275 C238 239 228 105 179 105 C149 105 146 156 146 177 C146 213 159 343 208 343 C237 343 238 295 238 275 L238 275 Z M374 617 L333 679 L249 617 L183 679 L123 624 L237 517 L374 617 Z " />
<glyph glyph-name="AEacute" unicode="&#x1fc;" horiz-adv-x="583" d="M549 0 L533 125 L408 125 L389 279 L518 279 L503 405 L373 405 L357 543 L486 543 L474 667 L206 667 L-25 0 L105 0 L138 111 L275 111 L285 0 L549 0 Z M173 216 L217 355 C231 400 241 447 250 494 C250 470 249 447 249 423 C249 401 251 379 253 357 C257 310 261 263 266 216 L173 216 Z M288 747 L349 711 L463 825 L382 875 L288 747 Z " />
<glyph glyph-name="aeacute" unicode="&#x1fd;" horiz-adv-x="562" d="M77 329 C106 342 134 352 166 352 C204 352 229 336 229 295 C229 281 227 266 226 252 C207 265 184 268 162 268 C73 268 13 196 13 110 C13 33 67 -9 141 -9 C191 -9 225 13 260 46 C284 7 317 -9 362 -9 C453 -9 505 51 518 137 L417 137 C415 110 401 83 371 83 C332 83 328 132 328 161 C328 171 329 182 330 192 L531 192 C534 225 538 258 538 291 C538 370 517 455 421 455 C368 455 334 433 305 390 C282 443 247 456 192 456 C156 456 123 447 90 436 L77 329 Z M340 269 C344 299 357 364 397 364 C429 364 433 323 433 299 C433 289 432 279 431 269 L340 269 Z M219 137 C219 109 194 84 166 84 C143 84 125 102 125 125 C125 153 150 178 178 178 C201 178 219 160 219 137 L219 137 Z M457 639 L374 681 L274 553 L330 517 L457 639 Z " />
<glyph glyph-name="Scommaaccent" unicode="&#x218;" horiz-adv-x="385" d="M374 645 C337 667 306 677 263 677 C140 677 65 565 65 451 C65 370 102 329 163 283 C174 275 185 267 195 258 C207 248 220 236 226 221 C229 214 229 205 229 198 C229 147 193 113 142 113 C106 113 79 128 51 149 L35 23 C67 -1 105 -11 145 -11 C276 -11 359 102 359 226 C359 371 195 387 195 483 C195 527 225 559 269 559 C305 559 333 540 358 516 L374 645 Z M214 -46 L110 -46 L57 -214 L127 -214 L214 -46 Z " />
<glyph glyph-name="scommaaccent" unicode="&#x219;" horiz-adv-x="310" d="M318 417 C283 444 250 455 206 455 C117 455 41 398 41 304 C41 190 163 193 163 145 C163 120 144 103 120 103 C96 103 80 115 63 131 L-3 42 C34 11 74 -9 123 -9 C221 -9 285 76 285 169 C285 275 167 276 167 319 C167 340 182 356 203 356 C227 356 243 343 258 326 L318 417 Z M178 -46 L75 -46 L17 -228 L87 -228 L178 -46 Z " />
<glyph glyph-name="Tcommaaccent" unicode="&#x21a;" horiz-adv-x="334" d="M388 667 L54 667 L39 545 L141 545 L74 0 L204 0 L271 545 L373 545 L388 667 Z M189 -46 L85 -46 L32 -214 L102 -214 L189 -46 Z " />
<glyph glyph-name="tcommaaccent" unicode="&#x21b;" horiz-adv-x="226" d="M251 447 L201 447 L217 574 L94 574 L78 447 L36 447 L23 343 L65 343 L23 0 L146 0 L189 343 L239 343 L251 447 Z M133 -46 L30 -46 L-28 -228 L42 -228 L133 -46 Z " />
<glyph glyph-name="uni0228" unicode="&#x228;" horiz-adv-x="350" d="M366 667 L105 667 L23 0 L286 0 L301 123 L168 123 L187 273 L302 273 L318 399 L202 399 L220 543 L351 543 L366 667 Z M237 -77 L147 -42 L68 -169 L128 -205 L237 -77 Z " />
<glyph glyph-name="uni0229" unicode="&#x229;" horiz-adv-x="367" d="M222 154 C220 139 215 118 209 107 C201 93 190 85 174 85 C161 85 153 90 148 95 C138 106 136 130 136 144 C136 160 138 182 142 201 L337 201 C345 247 346 283 346 289 C346 323 343 383 302 423 C280 444 253 455 219 455 C176 455 139 439 108 408 C46 347 21 244 21 167 C21 97 43 55 67 29 C96 -1 129 -9 164 -9 C195 -9 234 -2 267 29 C300 60 321 111 326 154 L222 154 Z M152 278 C154 296 163 331 177 346 C187 357 199 360 207 360 C221 360 229 353 235 342 C241 331 243 317 243 302 C243 294 242 286 241 278 L152 278 Z M224 -74 L150 -42 L67 -164 L118 -193 L224 -74 Z " />
<glyph glyph-name="uni0237" unicode="&#x237;" horiz-adv-x="201" d="M188 447 L64 447 L-16 -206 L108 -206 L188 447 Z " />
<glyph glyph-name="uni0259" unicode="&#x259;" horiz-adv-x="373" d="M144 308 C147 323 154 339 162 348 C171 357 180 361 193 361 C208 361 217 355 221 351 C234 338 235 315 235 299 C235 284 234 271 232 256 L34 256 C30 239 23 201 23 157 C23 129 25 66 64 26 C94 -5 129 -9 155 -9 C203 -9 237 3 269 36 C328 97 350 203 350 283 C350 315 347 379 305 419 C274 448 234 455 202 455 C164 455 124 447 91 413 C68 390 52 357 44 328 L144 308 Z M221 179 C219 161 213 113 191 95 C186 91 177 86 165 86 C156 86 148 88 141 95 C128 108 127 134 127 143 C127 149 127 162 131 179 L221 179 Z " />
<glyph glyph-name="afii57929" unicode="&#x2bc;" horiz-adv-x="197" d="M228 667 L125 667 L55 463 L125 463 L228 667 Z " />
<glyph glyph-name="circumflex" unicode="&#x2c6;" horiz-adv-x="500" d="M418 572 L304 679 L167 579 L208 517 L292 579 L358 517 L418 572 Z " />
<glyph glyph-name="caron" unicode="&#x2c7;" horiz-adv-x="500" d="M424 617 L383 679 L299 617 L233 679 L173 624 L287 517 L424 617 Z " />
<glyph glyph-name="uni02C9" unicode="&#x2c9;" horiz-adv-x="500" d="M438 611 L156 611 L146 531 L428 531 L438 611 Z " />
<glyph glyph-name="breve" unicode="&#x2d8;" horiz-adv-x="500" d="M365 637 C361 625 354 614 346 608 C333 597 310 595 294 595 C284 595 263 596 250 608 C243 615 238 626 237 637 L171 637 C171 599 183 566 202 547 C226 522 258 517 286 517 C326 517 358 525 388 554 C404 570 424 597 431 637 L365 637 Z " />
<glyph glyph-name="dotaccent" unicode="&#x2d9;" horiz-adv-x="500" d="M360 591 C360 624 335 650 302 650 C262 650 228 614 228 575 C228 542 252 517 285 517 C324 517 360 551 360 591 L360 591 Z " />
<glyph glyph-name="ring" unicode="&#x2da;" horiz-adv-x="500" d="M201 619 C201 566 244 523 297 523 C350 523 393 566 393 619 C393 672 350 715 297 715 C244 715 201 672 201 619 L201 619 Z M256 619 C256 643 273 660 297 660 C321 660 338 643 338 619 C338 595 321 578 297 578 C273 578 256 595 256 619 L256 619 Z " />
<glyph glyph-name="ogonek" unicode="&#x2db;" horiz-adv-x="500" d="M350 -97 C341 -107 329 -114 318 -114 C311 -114 301 -112 292 -103 C285 -96 282 -88 282 -79 C282 -72 284 -57 302 -34 C305 -30 310 -23 331 0 L273 0 C260 -13 238 -36 228 -49 C215 -65 202 -88 202 -115 C202 -137 211 -152 220 -161 C235 -177 259 -185 279 -185 C305 -185 320 -174 327 -168 L350 -97 Z " />
<glyph glyph-name="tilde" unicode="&#x2dc;" horiz-adv-x="500" d="M377 639 C369 620 366 604 342 604 C308 604 283 638 241 638 C175 638 156 573 144 520 L208 520 C213 535 222 548 239 548 C268 548 301 517 341 517 C406 517 427 583 441 635 L377 639 Z " />
<glyph glyph-name="hungarumlaut" unicode="&#x2dd;" horiz-adv-x="500" d="M471 639 L395 681 L321 553 L372 517 L471 639 Z M336 639 L259 681 L185 553 L236 517 L336 639 Z " />
<glyph glyph-name="acutecomb" unicode="&#x301;" horiz-adv-x="2" d="M-39 639 L-122 681 L-222 553 L-166 517 L-39 639 Z " />
<glyph glyph-name="&amp;#x394;" unicode="&#x394;" horiz-adv-x="667" d="M621 0 L370 667 L236 667 L-10 0 L621 0 Z M442 112 L166 112 L304 516 L442 112 Z " />
<glyph glyph-name="&amp;#x2206;" unicode="&#x2206;" horiz-adv-x="667" d="M621 0 L370 667 L236 667 L-10 0 L621 0 Z M442 112 L166 112 L304 516 L442 112 Z " />
<glyph glyph-name="&amp;#x3a9;" unicode="&#x3a9;" horiz-adv-x="667" d="M633 0 L633 111 L492 111 C591 171 633 251 633 366 C633 543 509 683 328 683 C147 683 23 543 23 366 C23 251 65 171 164 111 L23 111 L23 0 L292 0 L292 98 C192 155 152 239 152 352 C152 457 210 572 328 572 C446 572 504 456 504 352 C504 239 464 155 364 98 L364 0 L633 0 Z " />
<glyph glyph-name="&amp;#x2126;" unicode="&#x2126;" horiz-adv-x="667" d="M633 0 L633 111 L492 111 C591 171 633 251 633 366 C633 543 509 683 328 683 C147 683 23 543 23 366 C23 251 65 171 164 111 L23 111 L23 0 L292 0 L292 98 C192 155 152 239 152 352 C152 457 210 572 328 572 C446 572 504 456 504 352 C504 239 464 155 364 98 L364 0 L633 0 Z " />
<glyph glyph-name="pi" unicode="&#x3c0;" horiz-adv-x="659" d="M622 335 L622 447 L37 447 L37 335 L113 335 L113 0 L238 0 L238 335 L422 335 L422 0 L547 0 L547 335 L622 335 Z " />
<glyph glyph-name="afii10023" unicode="&#x401;" horiz-adv-x="350" d="M366 667 L105 667 L23 0 L286 0 L301 123 L168 123 L187 273 L302 273 L318 399 L202 399 L220 543 L351 543 L366 667 Z M393 783 C393 814 370 839 338 839 C301 839 269 806 269 768 C269 738 291 713 322 713 C359 713 393 745 393 783 L393 783 Z M228 783 C228 814 204 839 173 839 C136 839 104 806 104 768 C104 737 126 713 158 713 C195 713 228 746 228 783 L228 783 Z " />
<glyph glyph-name="afii10051" unicode="&#x402;" horiz-adv-x="532" d="M83 0 L213 0 L247 272 C260 279 277 285 300 285 C326 285 342 276 351 266 C369 246 370 213 370 203 C370 178 364 143 348 126 C339 116 327 111 312 111 C298 111 288 117 282 123 L239 11 C265 -5 290 -11 319 -11 C377 -11 417 10 445 41 C500 101 502 195 502 218 C502 261 495 320 451 363 C413 400 368 407 331 407 C306 407 286 405 262 395 L280 545 L402 545 L417 667 L63 667 L48 545 L150 545 L83 0 Z " />
<glyph glyph-name="afii10052" unicode="&#x403;" horiz-adv-x="343" d="M367 667 L105 667 L23 0 L153 0 L220 544 L352 544 L367 667 Z M197 747 L258 711 L372 825 L291 875 L197 747 Z " />
<glyph glyph-name="afii10053" unicode="&#x404;" horiz-adv-x="418" d="M367 155 C340 130 306 120 279 120 C254 120 227 133 208 161 C190 189 182 242 182 281 L365 281 L379 399 L206 399 C215 440 238 485 265 512 C291 537 320 548 346 548 C362 548 392 544 419 516 L438 655 C406 669 379 674 343 674 C274 674 226 658 175 610 C71 512 46 352 46 261 C46 165 77 92 119 48 C146 20 187 -7 247 -7 C275 -7 311 -2 348 17 L367 155 Z " />
<glyph glyph-name="afii10054" unicode="&#x405;" horiz-adv-x="385" d="M374 645 C337 667 306 677 263 677 C140 677 65 565 65 451 C65 370 102 329 163 283 C174 275 185 267 195 258 C207 248 220 236 226 221 C229 214 229 205 229 198 C229 147 193 113 142 113 C106 113 79 128 51 149 L35 23 C67 -1 105 -11 145 -11 C276 -11 359 102 359 226 C359 371 195 387 195 483 C195 527 225 559 269 559 C305 559 333 540 358 516 L374 645 Z " />
<glyph glyph-name="afii10055" unicode="&#x406;" horiz-adv-x="232" d="M235 667 L105 667 L23 0 L153 0 L235 667 Z " />
<glyph glyph-name="afii10056" unicode="&#x407;" horiz-adv-x="232" d="M235 667 L105 667 L23 0 L153 0 L235 667 Z M287 797 C287 830 270 856 247 856 C220 856 196 821 196 782 C196 750 212 724 235 724 C262 724 287 757 287 797 L287 797 Z M166 797 C166 830 149 856 126 856 C98 856 75 821 75 782 C75 749 91 724 115 724 C142 724 166 758 166 797 L166 797 Z " />
<glyph glyph-name="afii10057" unicode="&#x408;" horiz-adv-x="305" d="M308 667 L178 667 L121 205 C116 162 109 105 53 105 C24 105 5 120 -11 142 L-27 10 C2 -5 34 -11 66 -11 C135 -11 194 27 223 89 C240 125 246 166 251 205 L308 667 Z " />
<glyph glyph-name="afii10058" unicode="&#x409;" horiz-adv-x="691" d="M494 667 L146 667 L96 258 C85 171 67 147 57 137 C48 128 35 123 20 123 C3 123 -7 132 -13 138 L-30 3 C-11 -5 7 -9 30 -9 C63 -9 105 -5 141 30 C171 59 204 120 222 265 L257 542 L351 542 L284 0 L421 0 C499 0 563 17 608 63 C644 101 666 159 666 223 C666 289 640 330 616 353 C570 399 509 406 463 406 L462 406 L494 667 Z M448 292 C461 292 495 290 515 271 C534 253 536 228 536 214 C536 177 522 149 503 134 C481 116 453 114 430 114 L426 114 L448 292 Z " />
<glyph glyph-name="afii10059" unicode="&#x40a;" horiz-adv-x="692" d="M367 667 L335 406 L203 406 L235 667 L105 667 L23 0 L153 0 L190 292 L321 292 L285 0 L422 0 C500 0 564 17 609 63 C645 101 667 159 667 223 C667 289 641 330 617 353 C571 399 510 406 464 406 L463 406 L495 667 L367 667 Z M449 292 C462 292 496 290 516 271 C535 253 537 228 537 214 C537 177 523 149 504 134 C482 116 454 114 431 114 L427 114 L449 292 Z " />
<glyph glyph-name="afii10060" unicode="&#x40b;" horiz-adv-x="536" d="M83 0 L213 0 L246 272 C262 278 279 281 301 281 C317 281 335 279 349 268 C364 256 367 241 367 225 C367 218 366 205 362 170 L341 0 L471 0 L494 193 C500 242 501 257 501 269 C501 315 485 347 466 366 C429 404 372 406 343 406 C310 406 288 403 261 395 L280 545 L402 545 L417 667 L63 667 L48 545 L150 545 L83 0 Z " />
<glyph glyph-name="afii10061" unicode="&#x40c;" horiz-adv-x="445" d="M477 667 L345 667 L198 369 L235 667 L105 667 L23 0 L153 0 L195 339 L274 0 L407 0 L314 356 L477 667 Z M237 747 L298 711 L412 825 L331 875 L237 747 Z " />
<glyph glyph-name="afii10062" unicode="&#x40e;" horiz-adv-x="442" d="M60 667 L176 230 L80 0 L212 0 L496 667 L354 667 L292 498 C276 453 263 414 251 374 C246 434 239 460 231 502 L198 667 L60 667 Z M353 852 C349 837 340 819 329 810 C322 804 308 797 286 797 C269 797 254 801 241 813 C231 823 224 839 221 852 L118 824 C127 786 149 755 174 737 C209 711 251 708 282 708 C309 708 351 711 387 733 C415 750 442 782 456 823 L353 852 Z " />
<glyph glyph-name="afii10145" unicode="&#x40f;" horiz-adv-x="494" d="M105 667 L23 0 L159 0 L142 -130 L262 -130 L279 0 L414 0 L496 667 L366 667 L299 125 L168 125 L235 667 L105 667 Z " />
<glyph glyph-name="afii10017" unicode="&#x410;" horiz-adv-x="453" d="M422 0 L347 667 L210 667 L-25 0 L105 0 L142 112 L273 112 L284 0 L422 0 Z M175 215 C194 274 215 332 230 392 C239 426 246 461 253 495 C249 401 259 308 266 215 L175 215 Z " />
<glyph glyph-name="afii10018" unicode="&#x411;" horiz-adv-x="420" d="M105 667 L23 0 L162 0 C210 0 292 6 348 63 C378 93 403 142 403 217 C403 255 397 310 353 353 C318 387 260 408 203 406 L220 542 L391 542 L406 667 L105 667 Z M189 292 L191 292 C208 292 233 290 251 272 C260 263 271 246 271 216 C271 182 260 155 243 139 C220 117 191 114 171 114 L167 114 L189 292 Z " />
<glyph glyph-name="afii10019" unicode="&#x412;" horiz-adv-x="429" d="M105 667 L23 0 L161 0 C210 0 279 7 333 62 C368 97 389 148 389 209 C389 225 387 265 367 296 C355 314 334 332 306 342 C332 348 352 360 371 380 C405 415 415 453 415 502 C415 547 406 589 370 624 C329 664 284 667 244 667 L105 667 Z M222 558 C242 558 264 552 276 539 C283 531 291 517 291 492 C291 469 282 437 264 418 C251 404 228 393 201 393 L222 558 Z M189 291 L195 291 C207 291 225 290 241 274 C258 257 262 234 262 215 C262 191 258 163 234 140 C221 128 199 114 167 114 L189 291 Z " />
<glyph glyph-name="afii10020" unicode="&#x413;" horiz-adv-x="343" d="M367 667 L105 667 L23 0 L153 0 L220 544 L352 544 L367 667 Z " />
<glyph glyph-name="afii10021" unicode="&#x414;" horiz-adv-x="516" d="M147 667 L106 326 C97 249 83 187 48 153 C41 146 24 132 -3 125 L-35 -130 L85 -130 L102 0 L348 0 L331 -130 L451 -130 L483 125 L429 125 L496 667 L147 667 Z M260 542 L349 542 L297 125 L157 125 C176 141 193 161 206 193 C219 225 225 261 230 304 L260 542 Z " />
<glyph glyph-name="afii10022" unicode="&#x415;" horiz-adv-x="350" d="M366 667 L105 667 L23 0 L286 0 L301 123 L168 123 L187 273 L302 273 L318 399 L202 399 L220 543 L351 543 L366 667 Z " />
<glyph glyph-name="afii10024" unicode="&#x416;" horiz-adv-x="631" d="M584 0 L508 362 L667 667 L538 667 L394 365 L431 667 L305 667 L268 365 L198 667 L69 667 L154 364 L-12 0 L123 0 L264 335 L223 0 L349 0 L390 335 L452 0 L584 0 Z " />
<glyph glyph-name="afii10025" unicode="&#x417;" horiz-adv-x="396" d="M68 506 C80 520 96 533 109 541 C127 552 146 557 169 557 C200 557 219 548 229 538 C241 527 250 508 250 484 C250 450 234 431 220 421 C198 405 169 402 146 402 L126 402 L111 282 L122 282 C147 282 175 281 196 266 C213 253 225 230 225 204 C225 183 216 157 201 141 C181 120 154 117 132 117 C110 117 89 121 68 132 C50 142 36 153 26 167 L10 34 C57 -2 102 -11 143 -11 C220 -11 268 19 293 42 C333 78 365 145 365 208 C365 249 351 282 331 303 C315 320 293 333 272 339 C312 352 336 377 349 394 C364 414 382 450 382 506 C382 546 374 594 333 632 C292 670 242 677 204 677 C167 677 128 670 84 640 L68 506 Z " />
<glyph glyph-name="afii10026" unicode="&#x418;" horiz-adv-x="501" d="M23 0 L145 0 L351 407 C348 394 332 333 329 305 L291 0 L421 0 L503 667 L381 667 L174 265 C183 293 194 336 198 365 L235 667 L105 667 L23 0 Z " />
<glyph glyph-name="afii10027" unicode="&#x419;" horiz-adv-x="501" d="M23 0 L145 0 L351 407 C348 394 332 333 329 305 L291 0 L421 0 L503 667 L381 667 L174 265 C183 293 194 336 198 365 L235 667 L105 667 L23 0 Z M384 852 C380 837 371 819 360 810 C353 804 339 797 317 797 C300 797 285 801 272 813 C262 823 255 839 252 852 L149 824 C158 786 180 755 205 737 C240 711 282 708 313 708 C340 708 382 711 418 733 C446 750 473 782 487 823 L384 852 Z " />
<glyph glyph-name="afii10028" unicode="&#x41a;" horiz-adv-x="445" d="M477 667 L345 667 L198 369 L235 667 L105 667 L23 0 L153 0 L195 339 L274 0 L407 0 L314 356 L477 667 Z " />
<glyph glyph-name="afii10029" unicode="&#x41b;" horiz-adv-x="494" d="M146 667 L96 258 C85 171 67 147 57 137 C48 128 35 123 20 123 C3 123 -7 132 -13 138 L-30 3 C-11 -5 7 -9 30 -9 C63 -9 105 -5 141 30 C171 59 204 120 222 265 L257 542 L351 542 L284 0 L414 0 L496 667 L146 667 Z " />
<glyph glyph-name="afii10030" unicode="&#x41c;" horiz-adv-x="636" d="M600 667 L426 667 L325 273 L309 667 L138 667 L-2 0 L138 0 L217 480 C216 465 215 451 215 436 C215 403 218 369 219 336 C224 224 235 112 244 0 L344 0 L442 326 C457 377 471 428 480 480 L454 0 L587 0 L600 667 Z " />
<glyph glyph-name="afii10031" unicode="&#x41d;" horiz-adv-x="494" d="M496 667 L366 667 L336 420 L205 420 L235 667 L105 667 L23 0 L153 0 L190 295 L321 295 L285 0 L415 0 L496 667 Z " />
<glyph glyph-name="afii10032" unicode="&#x41e;" horiz-adv-x="534" d="M517 434 C517 552 458 677 324 677 C180 677 97 549 65 423 C49 364 43 302 43 241 C43 185 49 132 78 83 C110 28 171 -11 236 -11 C360 -11 444 90 482 199 C507 270 517 358 517 434 L517 434 Z M378 427 C378 389 376 351 370 314 C362 255 330 116 253 116 C194 116 182 201 182 245 C182 283 184 321 190 358 C198 417 231 556 307 556 C367 556 378 472 378 427 L378 427 Z " />
<glyph glyph-name="afii10033" unicode="&#x41f;" horiz-adv-x="489" d="M491 667 L105 667 L23 0 L153 0 L220 542 L346 542 L280 0 L410 0 L491 667 Z " />
<glyph glyph-name="afii10034" unicode="&#x420;" horiz-adv-x="428" d="M105 667 L23 0 L153 0 L187 274 C331 263 440 350 440 498 C440 555 421 614 370 645 C334 667 303 667 263 667 L105 667 Z M200 385 L222 560 L245 560 C295 560 311 537 311 489 C311 419 279 385 208 385 L200 385 Z " />
<glyph glyph-name="afii10035" unicode="&#x421;" horiz-adv-x="418" d="M367 155 C339 129 307 120 282 120 C264 120 236 126 215 153 C189 187 186 241 186 262 C186 340 213 459 266 512 C288 533 316 548 346 548 C362 548 392 544 419 516 L438 655 C409 669 384 674 354 674 C278 674 221 649 175 605 C85 521 46 370 46 252 C46 162 72 89 114 46 C152 7 197 -7 247 -7 C288 -7 320 3 348 17 L367 155 Z " />
<glyph glyph-name="afii10036" unicode="&#x422;" horiz-adv-x="334" d="M388 667 L54 667 L39 545 L141 545 L74 0 L204 0 L271 545 L373 545 L388 667 Z " />
<glyph glyph-name="afii10037" unicode="&#x423;" horiz-adv-x="442" d="M60 667 L176 230 L80 0 L212 0 L496 667 L354 667 L292 498 C276 453 263 414 251 374 C246 434 239 460 231 502 L198 667 L60 667 Z " />
<glyph glyph-name="afii10038" unicode="&#x424;" horiz-adv-x="610" d="M210 0 L340 0 L351 86 C418 91 479 120 517 159 C570 214 593 304 593 387 C593 428 587 495 545 547 C520 578 476 610 416 618 L425 696 L295 696 L286 618 C213 614 164 582 137 558 C49 480 43 356 43 314 C43 223 75 172 101 145 C129 116 171 93 221 86 L210 0 Z M391 500 C413 497 432 487 444 474 C468 448 470 408 470 390 C470 346 458 272 426 237 C421 232 397 208 355 204 L391 500 Z M245 204 C224 207 206 217 195 229 C180 245 167 272 167 316 C167 365 179 435 217 472 C241 495 267 499 281 500 L245 204 Z " />
<glyph glyph-name="afii10039" unicode="&#x425;" horiz-adv-x="436" d="M479 667 L339 667 C305 604 265 540 244 471 C244 534 217 606 200 667 L54 667 L153 344 L-28 0 L118 0 C151 68 186 135 212 206 C212 150 242 57 257 0 L408 0 L299 344 L479 667 Z " />
<glyph glyph-name="afii10040" unicode="&#x426;" horiz-adv-x="506" d="M105 667 L23 0 L357 0 L338 -130 L458 -130 L492 125 L423 125 L490 667 L360 667 L293 125 L168 125 L235 667 L105 667 Z " />
<glyph glyph-name="afii10041" unicode="&#x427;" horiz-adv-x="468" d="M258 0 L388 0 L470 667 L340 667 L309 416 C284 406 263 406 256 406 C241 406 221 410 210 419 C196 431 194 448 194 460 C194 474 196 488 198 502 L218 667 L88 667 L66 488 C60 442 60 423 60 414 C60 383 66 350 95 322 C116 302 154 281 220 281 C250 281 272 285 294 292 L258 0 Z " />
<glyph glyph-name="afii10042" unicode="&#x428;" horiz-adv-x="723" d="M105 667 L23 0 L643 0 L725 667 L595 667 L528 125 L413 125 L480 667 L350 667 L283 125 L168 125 L235 667 L105 667 Z " />
<glyph glyph-name="afii10043" unicode="&#x429;" horiz-adv-x="747" d="M105 667 L23 0 L598 0 L581 -130 L701 -130 L733 125 L658 125 L725 667 L595 667 L528 125 L413 125 L480 667 L350 667 L283 125 L168 125 L235 667 L105 667 Z " />
<glyph glyph-name="afii10044" unicode="&#x42a;" horiz-adv-x="492" d="M78 0 L217 0 C295 0 359 17 404 63 C440 101 462 159 462 223 C462 289 436 330 412 353 C366 399 305 406 259 406 L258 406 L290 667 L75 667 L60 542 L145 542 L78 0 Z M244 292 C257 292 291 290 311 271 C330 253 332 228 332 214 C332 177 318 149 299 134 C277 116 249 114 226 114 L222 114 L244 292 Z " />
<glyph glyph-name="afii10045" unicode="&#x42b;" horiz-adv-x="626" d="M546 0 L628 667 L498 667 L416 0 L546 0 Z M105 667 L23 0 L160 0 C238 0 302 17 347 63 C384 101 405 159 405 221 C405 290 378 330 355 353 C309 399 247 406 204 406 L203 406 L235 667 L105 667 Z M189 292 C207 292 236 288 254 271 C273 253 275 228 275 214 C275 177 261 149 242 134 C220 117 191 114 171 114 L167 114 L189 292 Z " />
<glyph glyph-name="afii10046" unicode="&#x42c;" horiz-adv-x="437" d="M105 667 L23 0 L162 0 C240 0 304 17 349 63 C385 101 407 159 407 223 C407 289 381 330 357 353 C311 399 250 406 204 406 L203 406 L235 667 L105 667 Z M189 292 C202 292 236 290 256 271 C275 253 277 228 277 214 C277 177 263 149 244 134 C222 116 194 114 171 114 L167 114 L189 292 Z " />
<glyph glyph-name="afii10047" unicode="&#x42d;" horiz-adv-x="433" d="M25 20 C55 -2 81 -7 118 -7 C187 -7 247 7 305 65 C401 162 416 323 416 403 C416 515 385 582 347 621 C309 660 264 674 214 674 C185 674 150 669 114 655 L95 519 C118 536 150 548 180 548 C215 548 235 531 243 523 C265 501 275 462 275 426 C275 417 274 408 273 399 L118 399 L101 281 L260 281 C253 232 227 176 196 149 C177 132 150 120 121 120 C99 120 69 128 44 158 L25 20 Z " />
<glyph glyph-name="afii10048" unicode="&#x42e;" horiz-adv-x="739" d="M203 406 L235 667 L105 667 L23 0 L153 0 L188 281 L258 281 C254 215 261 109 308 49 C346 0 395 -11 441 -11 C504 -11 556 10 601 54 C690 141 722 299 722 421 C722 489 711 573 651 630 C613 666 570 677 524 677 C466 677 415 659 369 611 C319 559 285 478 275 406 L203 406 Z M512 556 C527 556 541 551 553 538 C576 513 583 470 583 418 C583 324 558 184 508 137 C490 120 473 116 458 116 C446 116 430 120 417 136 C397 160 391 214 391 250 C391 298 397 358 408 407 C426 488 450 520 463 533 C473 543 489 556 512 556 L512 556 Z " />
<glyph glyph-name="afii10049" unicode="&#x42f;" horiz-adv-x="469" d="M5 0 L155 0 L293 276 L259 0 L389 0 L471 667 L331 667 C243 667 178 656 130 606 C103 578 73 526 73 443 C73 408 79 372 102 340 C116 320 137 302 164 290 L5 0 Z M328 561 L305 374 L296 374 C272 374 247 381 232 394 C222 403 208 422 208 457 C208 488 218 518 237 536 C262 560 297 561 316 561 L328 561 Z " />
<glyph glyph-name="afii10065" unicode="&#x430;" horiz-adv-x="390" d="M377 447 L254 447 L247 392 C236 428 213 455 173 455 C87 455 46 342 33 272 C25 234 22 196 22 157 C22 95 35 -9 117 -9 C157 -9 185 20 205 51 L199 0 L323 0 L377 447 Z M238 276 C238 240 228 103 179 103 C149 103 147 154 147 175 C147 211 159 343 209 343 C237 343 238 295 238 276 L238 276 Z " />
<glyph glyph-name="afii10066" unicode="&#x431;" horiz-adv-x="395" d="M311 550 C339 560 371 574 393 607 C410 632 419 668 420 700 L321 700 C320 687 314 677 308 671 C297 660 279 655 228 637 L214 632 C181 620 157 605 133 580 C82 525 65 454 54 398 C40 329 30 262 30 186 C30 149 32 72 77 27 C105 -1 140 -9 171 -9 C228 -9 268 14 296 44 C351 103 370 208 370 288 C370 323 366 386 328 424 C313 439 288 455 251 455 C225 455 203 446 186 433 C173 422 157 402 149 389 C154 424 170 464 196 491 C220 515 251 528 279 538 L311 550 Z M215 343 C219 343 226 342 231 336 C235 332 244 320 244 274 C244 248 240 209 234 181 C225 137 213 120 205 112 C199 106 193 103 185 103 C179 103 174 105 169 110 C155 124 154 162 154 168 C154 197 159 239 164 263 C166 275 175 314 194 333 C198 337 205 343 215 343 L215 343 Z " />
<glyph glyph-name="afii10067" unicode="&#x432;" horiz-adv-x="363" d="M66 447 L11 0 L179 0 C220 0 263 2 301 41 C328 68 340 105 340 136 C340 170 326 194 310 207 C296 219 280 226 275 228 C293 232 307 240 319 253 C336 271 349 297 349 332 C349 374 331 401 314 416 C281 445 234 447 209 447 L66 447 Z M168 266 L179 362 C194 362 212 360 221 352 C229 345 235 332 235 319 C235 304 228 289 217 280 C205 270 184 266 168 266 L168 266 Z M145 85 L158 190 C171 190 190 188 202 178 C209 172 217 162 217 145 C217 127 209 110 199 101 C186 89 162 85 145 85 L145 85 Z " />
<glyph glyph-name="afii10068" unicode="&#x433;" horiz-adv-x="282" d="M283 343 L296 447 L66 447 L11 0 L135 0 L177 343 L283 343 Z " />
<glyph glyph-name="afii10069" unicode="&#x434;" horiz-adv-x="419" d="M104 447 L78 238 C73 198 65 155 37 129 C26 118 9 109 -8 104 L-35 -104 L67 -104 L81 0 L284 0 L270 -104 L372 -104 L399 104 L354 104 L396 447 L104 447 Z M234 104 L132 104 C145 115 156 128 165 145 C176 165 182 189 187 229 L201 343 L263 343 L234 104 Z " />
<glyph glyph-name="afii10070" unicode="&#x435;" horiz-adv-x="367" d="M222 154 C220 139 215 118 209 107 C201 93 190 85 174 85 C161 85 153 90 148 95 C138 106 136 130 136 144 C136 160 138 182 142 201 L337 201 C345 247 346 283 346 289 C346 323 343 383 302 423 C280 444 253 455 219 455 C176 455 139 439 108 408 C46 347 21 244 21 167 C21 97 43 55 67 29 C96 -1 129 -9 164 -9 C195 -9 234 -2 267 29 C300 60 321 111 326 154 L222 154 Z M152 278 C154 296 163 331 177 346 C187 357 199 360 207 360 C221 360 229 353 235 342 C241 331 243 317 243 302 C243 294 242 286 241 278 L152 278 Z " />
<glyph glyph-name="afii10072" unicode="&#x436;" horiz-adv-x="541" d="M499 0 L436 239 L553 447 L425 447 L330 241 L355 447 L238 447 L213 241 L166 447 L41 447 L110 240 L-16 0 L114 0 L209 206 L183 0 L300 0 L326 206 L369 0 L499 0 Z " />
<glyph glyph-name="afii10073" unicode="&#x437;" horiz-adv-x="340" d="M245 232 C270 238 286 252 295 262 C310 279 320 303 320 336 C320 367 310 393 288 415 C253 450 206 455 174 455 C130 455 83 445 37 411 L77 316 C87 327 98 335 109 341 C121 348 132 350 146 350 C151 350 169 349 180 341 C188 335 193 325 193 313 C193 302 189 290 173 282 C162 277 143 274 128 274 L106 274 L94 180 L119 180 C134 180 153 178 164 172 C171 168 180 160 180 144 C180 132 174 121 167 115 C158 107 143 103 129 103 C114 103 99 107 88 114 C78 120 66 131 59 139 L-5 48 C12 33 33 20 54 10 C85 -4 114 -9 146 -9 C188 -9 231 0 267 36 C295 64 310 102 310 140 C310 176 296 196 287 206 C276 218 260 227 245 232 L245 232 Z " />
<glyph glyph-name="afii10074" unicode="&#x438;" horiz-adv-x="404" d="M66 447 L11 0 L122 0 L212 169 C230 203 249 245 262 280 C251 239 242 191 236 146 L218 0 L336 0 L391 447 L280 447 L185 265 C179 254 173 242 137 171 C158 234 165 287 166 298 L184 447 L66 447 Z " />
<glyph glyph-name="afii10075" unicode="&#x439;" horiz-adv-x="404" d="M66 447 L11 0 L122 0 L212 169 C230 203 249 245 262 280 C251 239 242 191 236 146 L218 0 L336 0 L391 447 L280 447 L185 265 C179 254 173 242 137 171 C158 234 165 287 166 298 L184 447 L66 447 Z M292 642 C289 627 281 612 271 603 C260 594 248 590 235 590 C218 590 204 595 196 603 C187 611 179 627 177 642 L90 613 C99 574 122 549 141 535 C172 513 208 510 235 510 C265 510 297 514 328 537 C341 547 367 570 380 613 L292 642 Z " />
<glyph glyph-name="afii10076" unicode="&#x43a;" horiz-adv-x="382" d="M341 0 L266 225 L390 447 L256 447 L165 243 L190 447 L66 447 L11 0 L135 0 L160 204 L211 0 L341 0 Z " />
<glyph glyph-name="afii10077" unicode="&#x43b;" horiz-adv-x="413" d="M400 447 L100 447 L71 208 C66 164 60 129 41 112 C31 103 21 102 10 102 C-1 102 -8 103 -16 111 L-30 0 C-12 -7 4 -9 26 -9 C55 -9 94 -4 124 25 C160 59 174 122 183 194 L201 343 L263 343 L221 0 L345 0 L400 447 Z " />
<glyph glyph-name="afii10078" unicode="&#x43c;" horiz-adv-x="516" d="M278 0 L338 173 C349 206 360 238 370 288 L353 0 L474 0 L468 447 L342 447 L254 168 L236 447 L103 447 L-6 0 L116 0 L171 288 C171 240 173 196 177 155 L191 0 L278 0 Z " />
<glyph glyph-name="afii10079" unicode="&#x43d;" horiz-adv-x="389" d="M190 447 L66 447 L11 0 L135 0 L157 186 L219 186 L197 0 L321 0 L376 447 L252 447 L232 290 L170 290 L190 447 Z " />
<glyph glyph-name="afii10080" unicode="&#x43e;" horiz-adv-x="386" d="M363 289 C363 379 321 455 222 455 C80 455 23 296 23 177 C23 82 54 -9 165 -9 C320 -9 363 164 363 289 L363 289 Z M237 277 C237 241 227 103 178 103 C149 103 147 155 147 175 C147 211 160 343 208 343 C236 343 237 296 237 277 L237 277 Z " />
<glyph glyph-name="afii10081" unicode="&#x43f;" horiz-adv-x="387" d="M66 447 L11 0 L135 0 L177 343 L237 343 L195 0 L319 0 L374 447 L66 447 Z " />
<glyph glyph-name="afii10082" unicode="&#x440;" horiz-adv-x="389" d="M189 447 L65 447 L-15 -206 L109 -206 L140 51 C153 18 175 -9 213 -9 C299 -9 342 110 356 179 C364 217 367 256 367 295 C367 358 355 455 272 455 C230 455 201 426 182 392 L189 447 Z M241 272 C241 236 229 103 180 103 C151 103 149 151 149 171 C149 207 160 343 209 343 C238 343 241 293 241 272 L241 272 Z " />
<glyph glyph-name="afii10083" unicode="&#x441;" horiz-adv-x="277" d="M284 443 C261 453 248 456 223 456 C169 456 129 437 95 395 C46 335 22 248 22 172 C22 85 56 -9 158 -9 C186 -9 204 -4 230 7 L244 121 C232 113 220 108 205 108 C156 108 149 156 149 195 C149 248 169 348 237 348 C251 348 261 344 270 333 L284 443 Z " />
<glyph glyph-name="afii10084" unicode="&#x442;" horiz-adv-x="295" d="M307 343 L320 447 L36 447 L23 343 L103 343 L61 0 L185 0 L227 343 L307 343 Z " />
<glyph glyph-name="afii10085" unicode="&#x443;" horiz-adv-x="359" d="M389 447 L265 447 L176 192 C175 223 171 254 167 284 L145 447 L22 447 L96 9 L3 -206 L123 -206 L389 447 Z " />
<glyph glyph-name="afii10086" unicode="&#x444;" horiz-adv-x="530" d="M150 -206 L274 -206 L299 -6 C372 -4 416 33 432 47 C475 87 507 156 507 248 C507 292 501 354 457 400 C434 425 398 445 356 453 L382 667 L258 667 L232 453 C158 447 113 410 97 394 C58 356 23 290 23 192 C23 148 30 89 76 43 C93 25 125 1 175 -6 L150 -206 Z M331 345 C347 343 361 337 370 327 C389 307 391 270 391 256 C391 219 382 159 352 128 C343 119 327 107 302 103 L331 345 Z M200 103 C189 104 172 108 158 127 C142 148 139 177 139 193 C139 235 150 293 178 321 C188 332 205 343 229 345 L200 103 Z " />
<glyph glyph-name="afii10087" unicode="&#x445;" horiz-adv-x="380" d="M392 447 L265 447 L235 401 C223 383 213 367 201 339 C197 360 190 389 183 406 L167 447 L41 447 L125 240 L-31 0 L96 0 L140 70 C154 92 162 102 178 135 C187 102 193 87 201 65 L225 0 L355 0 L255 240 L392 447 Z " />
<glyph glyph-name="afii10088" unicode="&#x446;" horiz-adv-x="401" d="M271 0 L257 -104 L361 -104 L388 104 L334 104 L376 447 L252 447 L210 104 L148 104 L190 447 L66 447 L11 0 L271 0 Z " />
<glyph glyph-name="afii10089" unicode="&#x447;" horiz-adv-x="383" d="M191 0 L315 0 L370 447 L246 447 L226 285 C219 282 209 278 195 278 C186 278 174 280 167 286 C161 292 159 302 159 310 C159 315 160 320 160 323 L176 447 L54 447 L39 325 C37 310 35 295 35 278 C35 256 39 227 62 204 C78 188 106 174 155 174 C177 174 195 177 214 184 L191 0 Z " />
<glyph glyph-name="afii10090" unicode="&#x448;" horiz-adv-x="563" d="M326 104 L368 447 L248 447 L206 104 L144 104 L186 447 L66 447 L11 0 L495 0 L550 447 L430 447 L388 104 L326 104 Z " />
<glyph glyph-name="afii10091" unicode="&#x449;" horiz-adv-x="579" d="M326 104 L368 447 L248 447 L206 104 L144 104 L186 447 L66 447 L11 0 L449 0 L436 -104 L540 -104 L566 104 L508 104 L550 447 L430 447 L388 104 L326 104 Z " />
<glyph glyph-name="afii10092" unicode="&#x44a;" horiz-adv-x="411" d="M57 0 L220 0 C252 0 307 5 348 45 C371 67 391 102 391 154 C391 211 365 241 340 258 C307 280 266 283 228 283 L216 283 L236 447 L41 447 L28 343 L99 343 L57 0 Z M192 88 L205 195 L207 195 C220 195 239 194 250 185 C257 180 265 170 265 150 C265 134 260 115 248 104 C236 93 216 88 198 88 L192 88 Z " />
<glyph glyph-name="afii10093" unicode="&#x44b;" horiz-adv-x="545" d="M477 0 L532 447 L408 447 L353 0 L477 0 Z M66 447 L11 0 L170 0 C198 0 251 3 292 39 C316 60 341 97 341 155 C341 186 333 229 290 258 C257 280 216 283 178 283 L170 283 L190 447 L66 447 Z M146 88 L159 195 L161 195 C174 195 193 194 204 185 C211 180 219 170 219 150 C219 134 214 115 202 104 C190 93 170 88 152 88 L146 88 Z " />
<glyph glyph-name="afii10094" unicode="&#x44c;" horiz-adv-x="365" d="M66 447 L11 0 L174 0 C206 0 261 5 302 45 C325 67 345 102 345 154 C345 211 319 241 294 258 C261 280 220 283 182 283 L170 283 L190 447 L66 447 Z M146 88 L159 195 L161 195 C174 195 193 194 204 185 C211 180 219 170 219 150 C219 134 214 115 202 104 C190 93 170 88 152 88 L146 88 Z " />
<glyph glyph-name="afii10095" unicode="&#x44d;" horiz-adv-x="323" d="M10 23 C43 -5 72 -9 100 -9 C148 -9 187 1 225 41 C297 115 300 235 300 263 C300 327 283 381 251 414 C228 438 193 456 141 456 C116 456 92 451 64 437 L50 321 C73 347 97 350 111 350 C125 350 143 347 157 332 C170 318 177 294 177 273 L73 273 L62 183 L168 183 C164 162 152 138 140 125 C123 108 103 105 89 105 C74 105 46 109 25 140 L10 23 Z " />
<glyph glyph-name="afii10096" unicode="&#x44e;" horiz-adv-x="569" d="M169 280 L190 447 L66 447 L11 0 L135 0 L157 176 L210 176 C210 112 220 58 256 24 C284 -2 318 -9 347 -9 C404 -9 444 14 472 44 C526 103 546 207 546 284 C546 325 539 381 502 418 C483 437 453 455 404 455 C360 455 320 442 285 406 C255 375 232 327 223 280 L169 280 Z M391 343 C395 343 402 342 407 336 C411 332 420 320 420 274 C420 248 416 209 410 181 C401 137 389 120 381 112 C375 106 369 103 361 103 C355 103 350 105 345 110 C331 124 330 162 330 168 C330 197 335 239 340 263 C342 275 351 314 370 333 C374 337 381 343 391 343 L391 343 Z " />
<glyph glyph-name="afii10097" unicode="&#x44f;" horiz-adv-x="393" d="M0 0 L134 0 L222 169 L201 0 L325 0 L380 447 L253 447 C182 447 126 438 86 397 C48 358 41 310 41 274 C41 250 44 227 60 204 C70 190 84 177 105 169 L0 0 Z M230 238 L227 238 C216 238 198 239 184 249 C169 260 166 275 166 288 C166 309 173 327 184 337 C200 352 220 353 240 353 L244 353 L230 238 Z " />
<glyph glyph-name="afii10071" unicode="&#x451;" horiz-adv-x="367" d="M251 562 C251 547 255 534 266 523 C277 512 290 508 302 508 C320 508 340 517 352 529 C365 542 372 559 372 577 C372 594 365 607 355 617 C345 627 334 632 319 632 C302 632 285 625 273 613 C259 599 251 580 251 562 L251 562 Z M222 154 C220 139 215 118 209 107 C201 93 190 85 174 85 C161 85 153 90 148 95 C138 106 136 130 136 144 C136 160 138 182 142 201 L337 201 C345 247 346 283 346 289 C346 323 343 383 302 423 C280 444 253 455 219 455 C176 455 139 439 108 408 C46 347 21 244 21 167 C21 97 43 55 67 29 C96 -1 129 -9 164 -9 C195 -9 234 -2 267 29 C300 60 321 111 326 154 L222 154 Z M152 278 C154 296 163 331 177 346 C187 357 199 360 207 360 C221 360 229 353 235 342 C241 331 243 317 243 302 C243 294 242 286 241 278 L152 278 Z M84 562 C84 547 88 534 99 523 C110 512 123 508 135 508 C153 508 173 517 185 529 C198 542 205 559 205 577 C205 594 198 607 188 617 C178 627 167 632 152 632 C135 632 118 625 106 613 C92 599 84 580 84 562 L84 562 Z " />
<glyph glyph-name="afii10099" unicode="&#x452;" horiz-adv-x="394" d="M231 729 L107 729 L90 595 L35 595 L25 507 L80 507 L18 0 L142 0 L172 243 C174 259 178 288 193 302 C198 306 205 310 215 310 C225 310 230 306 233 302 C238 295 239 282 239 270 C239 264 238 258 238 254 L203 -33 C200 -61 192 -75 184 -83 C174 -92 162 -94 153 -94 C139 -94 131 -91 123 -85 L109 -195 C131 -203 150 -206 172 -206 C204 -206 245 -201 278 -167 C309 -135 319 -90 323 -58 L365 283 C367 298 370 330 370 350 C370 365 369 395 353 414 C345 424 329 435 302 435 C270 435 245 422 224 403 C210 390 195 371 186 357 L204 507 L313 507 L323 595 L215 595 L231 729 Z " />
<glyph glyph-name="afii10100" unicode="&#x453;" horiz-adv-x="282" d="M283 343 L296 447 L66 447 L11 0 L135 0 L177 343 L283 343 Z M326 639 L243 681 L143 553 L199 517 L326 639 Z " />
<glyph glyph-name="afii10101" unicode="&#x454;" horiz-adv-x="327" d="M280 130 C256 105 232 103 218 103 C200 103 177 106 162 128 C153 141 148 163 149 182 L251 182 L263 274 L161 274 C164 291 173 313 187 327 C201 341 217 348 240 348 C280 348 296 329 303 318 L317 433 C283 452 255 456 231 456 C183 456 137 443 99 405 C42 347 23 246 23 173 C23 100 45 56 69 31 C101 -2 141 -9 177 -9 C211 -9 239 -3 265 12 L280 130 Z " />
<glyph glyph-name="afii10102" unicode="&#x455;" horiz-adv-x="310" d="M318 417 C283 444 250 455 206 455 C117 455 41 398 41 304 C41 190 163 193 163 145 C163 120 144 103 120 103 C96 103 80 115 63 131 L-3 42 C34 11 74 -9 123 -9 C221 -9 285 76 285 169 C285 275 167 276 167 319 C167 340 182 356 203 356 C227 356 243 343 258 326 L318 417 Z " />
<glyph glyph-name="afii10103" unicode="&#x456;" horiz-adv-x="203" d="M225 602 C225 641 197 672 157 672 C110 672 68 631 68 584 C68 546 97 514 136 514 C183 514 225 555 225 602 L225 602 Z M190 447 L66 447 L11 0 L135 0 L190 447 Z " />
<glyph glyph-name="afii10104" unicode="&#x457;" horiz-adv-x="203" d="M190 447 L66 447 L11 0 L135 0 L190 447 Z M231 590 C231 623 217 649 199 649 C176 649 158 614 158 575 C158 543 171 517 189 517 C211 517 231 550 231 590 L231 590 Z M134 590 C134 623 120 649 102 649 C80 649 60 614 60 575 C60 542 74 517 92 517 C115 517 134 551 134 590 L134 590 Z " />
<glyph glyph-name="afii10105" unicode="&#x458;" horiz-adv-x="201" d="M223 602 C223 641 195 672 155 672 C108 672 66 631 66 584 C66 546 95 514 134 514 C181 514 223 555 223 602 L223 602 Z M188 447 L64 447 L-16 -206 L108 -206 L188 447 Z " />
<glyph glyph-name="afii10106" unicode="&#x459;" horiz-adv-x="575" d="M400 447 L100 447 L71 208 C66 164 60 129 41 112 C31 103 21 102 10 102 C-1 102 -8 103 -16 111 L-30 0 C-12 -7 4 -9 26 -9 C55 -9 94 -4 124 25 C160 59 174 122 183 194 L201 343 L263 343 L221 0 L384 0 C416 0 471 5 512 45 C535 67 555 102 555 154 C555 211 529 241 504 258 C471 280 430 283 392 283 L380 283 L400 447 Z M356 88 L369 195 L371 195 C384 195 403 194 414 185 C421 180 429 170 429 150 C429 134 424 115 412 104 C400 93 380 88 362 88 L356 88 Z " />
<glyph glyph-name="afii10107" unicode="&#x45a;" horiz-adv-x="550" d="M251 447 L231 283 L169 283 L190 447 L66 447 L11 0 L135 0 L159 195 L220 195 L196 0 L359 0 C391 0 446 5 487 45 C510 67 530 102 530 154 C530 211 504 241 479 258 C446 280 405 283 367 283 L355 283 L375 447 L251 447 Z M331 88 L344 195 L346 195 C359 195 378 194 389 185 C396 180 404 170 404 150 C404 134 399 115 387 104 C375 93 355 88 337 88 L331 88 Z " />
<glyph glyph-name="afii10108" unicode="&#x45b;" horiz-adv-x="395" d="M18 0 L142 0 L171 235 C174 262 179 310 214 310 C231 310 237 296 237 281 C237 266 236 250 234 235 L204 0 L328 0 L362 279 C365 304 369 328 369 353 C369 398 351 435 301 435 C247 435 213 399 186 357 L204 507 L312 507 L322 595 L214 595 L231 729 L107 729 L90 595 L35 595 L25 507 L80 507 L18 0 Z " />
<glyph glyph-name="afii10109" unicode="&#x45c;" horiz-adv-x="382" d="M341 0 L266 225 L390 447 L256 447 L165 243 L190 447 L66 447 L11 0 L135 0 L160 204 L211 0 L341 0 Z M367 639 L284 681 L184 553 L240 517 L367 639 Z " />
<glyph glyph-name="afii10110" unicode="&#x45e;" horiz-adv-x="359" d="M389 447 L265 447 L176 192 C175 223 171 254 167 284 L145 447 L22 447 L96 9 L3 -206 L123 -206 L389 447 Z M273 642 C270 627 262 612 252 603 C241 594 229 590 216 590 C199 590 185 595 177 603 C168 611 160 627 158 642 L71 613 C80 574 103 549 122 535 C153 513 189 510 216 510 C246 510 278 514 309 537 C322 547 348 570 361 613 L273 642 Z " />
<glyph glyph-name="afii10193" unicode="&#x45f;" horiz-adv-x="389" d="M114 0 L101 -104 L205 -104 L218 0 L321 0 L376 447 L252 447 L210 104 L148 104 L190 447 L66 447 L11 0 L114 0 Z " />
<glyph glyph-name="afii10146" unicode="&#x462;" horiz-adv-x="470" d="M56 0 L195 0 C273 0 337 17 382 63 C418 101 440 159 440 223 C440 289 414 330 390 353 C362 381 315 406 242 406 L236 406 L247 498 L361 498 L375 612 L261 612 L272 696 L142 696 L131 612 L54 612 L40 498 L117 498 L56 0 Z M222 292 C235 292 269 290 289 271 C308 253 310 228 310 214 C310 177 296 149 277 134 C255 116 227 114 204 114 L200 114 L222 292 Z " />
<glyph glyph-name="afii10194" unicode="&#x463;" horiz-adv-x="382" d="M28 0 L191 0 C223 0 278 5 319 45 C342 67 362 102 362 154 C362 211 336 241 311 258 C278 280 237 283 199 283 L187 283 L195 343 L285 343 L298 447 L208 447 L235 667 L110 667 L83 447 L33 447 L20 343 L70 343 L28 0 Z M163 88 L176 195 C191 195 210 194 221 185 C228 180 236 170 236 150 C236 134 231 115 219 104 C207 93 187 88 169 88 L163 88 Z " />
<glyph glyph-name="afii10147" unicode="&#x472;" horiz-adv-x="534" d="M324 677 C271 677 214 659 163 608 C77 522 43 377 43 244 C43 181 54 102 109 43 C147 3 191 -11 238 -11 C286 -11 342 5 394 55 C486 143 517 298 517 423 C517 488 506 574 446 630 C422 653 383 677 324 677 L324 677 Z M198 406 C207 452 233 508 258 533 C276 551 293 556 306 556 C322 556 338 549 348 538 C365 521 379 484 378 406 L198 406 Z M364 281 C357 229 332 166 304 139 C284 119 265 116 253 116 C235 116 220 124 207 142 C178 182 181 252 183 281 L364 281 Z " />
<glyph glyph-name="afii10195" unicode="&#x473;" horiz-adv-x="386" d="M222 455 C178 455 138 440 103 405 C45 347 23 251 23 173 C23 150 25 76 65 31 C93 0 128 -9 162 -9 C204 -9 250 2 289 44 C343 103 363 207 363 284 C363 325 356 381 319 418 C301 436 269 455 222 455 L222 455 Z M159 274 C162 292 172 326 188 341 C194 347 200 350 208 350 C216 350 221 347 224 344 C235 334 237 313 237 274 L159 274 Z M228 182 C224 158 216 124 200 107 C195 102 188 97 178 97 C171 97 166 100 162 104 C156 110 147 126 147 182 L228 182 Z " />
<glyph glyph-name="afii10148" unicode="&#x474;" horiz-adv-x="478" d="M532 667 L397 667 L293 409 C291 404 289 399 287 394 C267 340 257 283 242 228 L242 284 C242 326 238 368 232 409 L194 667 L54 667 L162 0 L268 0 L532 667 Z " />
<glyph glyph-name="afii10196" unicode="&#x475;" horiz-adv-x="361" d="M391 447 L264 447 C234 363 202 279 174 194 C167 279 155 363 145 447 L24 447 L95 0 L209 0 L391 447 Z " />
<glyph glyph-name="afii10050" unicode="&#x490;" horiz-adv-x="383" d="M105 667 L23 0 L153 0 L220 544 L388 544 L418 792 L298 792 L283 667 L105 667 Z " />
<glyph glyph-name="afii10098" unicode="&#x491;" horiz-adv-x="333" d="M135 0 L177 343 L322 343 L347 547 L243 547 L231 447 L66 447 L11 0 L135 0 Z " />
<glyph glyph-name="uni0492" unicode="&#x492;" horiz-adv-x="361" d="M370 544 L385 667 L123 667 L90 402 L25 402 L10 275 L75 275 L41 0 L171 0 L205 275 L326 275 L341 402 L220 402 L238 544 L370 544 Z " />
<glyph glyph-name="uni0493" unicode="&#x493;" horiz-adv-x="308" d="M309 343 L322 447 L92 447 L69 260 L18 260 L5 156 L56 156 L37 0 L161 0 L180 156 L264 156 L277 260 L193 260 L203 343 L309 343 Z " />
<glyph glyph-name="uni0494" unicode="&#x494;" horiz-adv-x="472" d="M374 544 L389 667 L105 667 L23 0 L153 0 L187 272 C200 279 217 285 240 285 C266 285 282 276 291 266 C309 246 310 213 310 203 C310 178 304 143 288 126 C279 116 267 111 252 111 C238 111 228 117 222 123 L179 11 C205 -5 230 -11 259 -11 C317 -11 357 10 385 41 C440 101 442 195 442 218 C442 261 435 320 391 363 C353 400 308 407 271 407 C246 407 226 405 202 395 L220 544 L374 544 Z " />
<glyph glyph-name="uni0495" unicode="&#x495;" horiz-adv-x="369" d="M293 343 L306 447 L66 447 L11 0 L135 0 L154 156 C174 156 190 148 198 139 C215 120 216 83 216 71 C216 42 210 3 203 -20 C193 -52 178 -73 161 -85 C145 -96 130 -98 122 -98 L109 -206 L119 -206 C185 -206 233 -179 264 -149 C338 -78 344 35 344 72 C344 124 332 182 299 216 C274 242 229 260 181 261 C176 261 172 260 167 260 L177 343 L293 343 Z " />
<glyph glyph-name="uni0496" unicode="&#x496;" horiz-adv-x="637" d="M198 667 L69 667 L154 364 L-12 0 L123 0 L264 335 L223 0 L349 0 L390 335 L452 0 L491 0 L475 -130 L595 -130 L626 125 L557 125 L508 362 L667 667 L538 667 L394 365 L431 667 L305 667 L268 365 L198 667 Z " />
<glyph glyph-name="uni0497" unicode="&#x497;" horiz-adv-x="541" d="M41 447 L110 240 L-16 0 L114 0 L209 206 L183 0 L300 0 L326 206 L369 0 L409 0 L397 -104 L501 -104 L526 104 L472 104 L436 239 L553 447 L425 447 L330 241 L355 447 L238 447 L213 241 L166 447 L41 447 Z " />
<glyph glyph-name="uni0498" unicode="&#x498;" horiz-adv-x="396" d="M68 506 C80 520 96 533 109 541 C127 552 146 557 169 557 C200 557 219 548 229 538 C241 527 250 508 250 484 C250 450 234 431 220 421 C198 405 169 402 146 402 L126 402 L111 282 L122 282 C147 282 175 281 196 266 C213 253 225 230 225 204 C225 183 216 157 201 141 C181 120 154 117 132 117 C110 117 89 121 68 132 C50 142 36 153 26 167 L10 34 C34 14 63 0 99 -4 L83 -130 L203 -130 L219 0 C248 6 281 20 311 54 C344 91 365 142 365 207 C365 236 358 273 331 303 C315 320 293 333 272 339 C312 352 336 377 349 394 C364 414 382 450 382 506 C382 546 374 594 333 632 C293 670 242 677 202 677 C167 677 128 671 84 640 L68 506 Z " />
<glyph glyph-name="uni0499" unicode="&#x499;" horiz-adv-x="340" d="M255 232 C271 239 287 251 299 267 C312 284 320 307 320 336 C320 367 310 393 288 415 C253 450 206 455 174 455 C130 455 83 445 37 411 L77 316 C87 327 98 335 109 341 C121 348 132 350 146 350 C151 350 169 349 180 341 C188 335 193 325 193 313 C193 302 189 290 173 282 C162 277 143 274 128 274 L106 274 L94 180 L119 180 C134 180 153 178 164 172 C171 168 180 160 180 144 C180 132 174 121 167 115 C158 107 143 103 129 103 C114 103 99 107 88 114 C78 120 66 131 59 139 L-5 48 C37 15 65 4 90 -1 L77 -104 L181 -104 L193 -2 C220 2 245 13 268 37 C302 73 310 114 310 144 C310 162 307 184 293 203 C288 209 277 222 255 232 L255 232 Z " />
<glyph glyph-name="uni049A" unicode="&#x49a;" horiz-adv-x="449" d="M477 667 L345 667 L198 369 L235 667 L105 667 L23 0 L153 0 L195 339 L269 0 L308 0 L292 -130 L412 -130 L443 125 L374 125 L318 359 L477 667 Z " />
<glyph glyph-name="uni049B" unicode="&#x49b;" horiz-adv-x="382" d="M66 447 L11 0 L135 0 L160 204 L211 0 L244 0 L231 -104 L335 -104 L361 104 L307 104 L266 225 L390 447 L256 447 L165 243 L190 447 L66 447 Z " />
<glyph glyph-name="uni049C" unicode="&#x49c;" horiz-adv-x="558" d="M188 281 L238 281 L219 129 L295 129 L319 330 L378 0 L512 0 L438 358 L590 667 L458 667 L324 369 L348 559 L272 559 L253 406 L203 406 L235 667 L105 667 L23 0 L153 0 L188 281 Z " />
<glyph glyph-name="uni049D" unicode="&#x49d;" horiz-adv-x="476" d="M157 182 L189 182 L177 78 L247 78 L263 202 L305 0 L438 0 L373 232 L484 447 L354 447 L267 245 L283 376 L213 376 L200 265 L168 265 L190 447 L66 447 L11 0 L135 0 L157 182 Z " />
<glyph glyph-name="uni04A0" unicode="&#x4a0;" horiz-adv-x="517" d="M549 667 L417 667 L270 369 L307 667 L63 667 L48 545 L162 545 L95 0 L225 0 L267 339 L346 0 L483 0 L390 359 L549 667 Z " />
<glyph glyph-name="uni04A1" unicode="&#x4a1;" horiz-adv-x="450" d="M409 0 L334 225 L458 447 L324 447 L233 243 L258 447 L43 447 L30 343 L121 343 L79 0 L203 0 L228 204 L279 0 L409 0 Z " />
<glyph glyph-name="uni04A2" unicode="&#x4a2;" horiz-adv-x="514" d="M105 667 L23 0 L153 0 L190 295 L321 295 L285 0 L365 0 L349 -130 L469 -130 L500 125 L431 125 L496 667 L366 667 L336 420 L205 420 L235 667 L105 667 Z " />
<glyph glyph-name="uni04A3" unicode="&#x4a3;" horiz-adv-x="401" d="M190 447 L66 447 L11 0 L135 0 L157 186 L219 186 L197 0 L271 0 L259 -104 L363 -104 L388 104 L334 104 L376 447 L252 447 L232 290 L170 290 L190 447 Z " />
<glyph glyph-name="uni04A4" unicode="&#x4a4;" horiz-adv-x="585" d="M609 667 L365 667 L335 420 L205 420 L235 667 L105 667 L23 0 L153 0 L190 295 L320 295 L283 0 L413 0 L480 544 L594 544 L609 667 Z " />
<glyph glyph-name="uni04A5" unicode="&#x4a5;" horiz-adv-x="454" d="M190 447 L66 447 L11 0 L135 0 L157 186 L219 186 L197 0 L321 0 L363 343 L455 343 L468 447 L252 447 L232 290 L170 290 L190 447 Z " />
<glyph glyph-name="uni04AA" unicode="&#x4aa;" horiz-adv-x="420" d="M185 -123 L305 -123 L329 -4 C339 -2 348 0 359 4 L375 130 C358 124 340 120 322 120 C224 120 184 218 184 302 C184 413 249 548 376 548 C393 548 409 546 425 541 L440 662 C417 671 399 674 375 674 C177 674 46 466 46 285 C46 160 102 44 213 6 L185 -123 Z " />
<glyph glyph-name="uni04AB" unicode="&#x4ab;" horiz-adv-x="277" d="M284 443 C262 454 245 456 223 456 C179 456 143 445 107 409 C56 357 22 261 22 174 C22 131 28 90 45 58 C62 25 83 10 107 2 L94 -104 L198 -104 L211 0 C218 1 224 3 230 7 L244 121 C237 116 223 108 203 108 C193 108 180 110 169 121 C158 132 149 153 149 195 C149 254 167 302 188 325 C202 340 220 348 235 348 C242 348 259 347 270 333 L284 443 Z " />
<glyph glyph-name="uni04AE" unicode="&#x4ae;" horiz-adv-x="440" d="M494 667 L349 667 L282 517 C268 485 257 460 244 423 C242 439 235 493 230 514 L197 667 L54 667 L164 285 L129 0 L259 0 L295 285 L494 667 Z " />
<glyph glyph-name="uni04AF" unicode="&#x4af;" horiz-adv-x="365" d="M20 447 L95 39 L64 -206 L188 -206 L219 39 L395 447 L270 447 L220 317 C207 283 193 246 176 188 C172 250 166 286 161 326 L145 447 L20 447 Z " />
<glyph glyph-name="uni04B0" unicode="&#x4b0;" horiz-adv-x="442" d="M496 667 L351 667 L284 517 C270 485 259 460 246 423 C244 439 237 493 232 514 L199 667 L56 667 L167 289 L164 270 L58 270 L44 150 L150 150 L131 0 L261 0 L280 150 L386 150 L400 270 L294 270 L296 289 L496 667 Z " />
<glyph glyph-name="uni04B1" unicode="&#x4b1;" horiz-adv-x="369" d="M101 59 L99 42 L1 42 L-10 -46 L88 -46 L69 -206 L193 -206 L213 -46 L311 -46 L322 42 L224 42 L226 59 L399 447 L274 447 L224 317 C211 283 197 246 180 188 C176 250 170 286 165 326 L149 447 L24 447 L101 59 Z " />
<glyph glyph-name="uni04B2" unicode="&#x4b2;" horiz-adv-x="441" d="M479 667 L339 667 C305 604 265 540 244 471 C244 534 217 606 200 667 L54 667 L153 344 L-28 0 L118 0 C151 68 186 135 212 206 C212 150 242 57 257 0 L301 0 L285 -130 L405 -130 L436 125 L367 125 L299 344 L479 667 Z " />
<glyph glyph-name="uni04B3" unicode="&#x4b3;" horiz-adv-x="380" d="M392 447 L265 447 L235 401 C223 383 213 367 201 339 C197 360 190 389 183 406 L167 447 L41 447 L125 240 L-31 0 L96 0 L140 70 C154 92 162 102 178 135 C187 102 193 87 201 65 L225 0 L249 0 L236 -104 L340 -104 L366 104 L312 104 L255 240 L392 447 Z " />
<glyph glyph-name="uni04B6" unicode="&#x4b6;" horiz-adv-x="486" d="M337 0 L319 -130 L439 -130 L472 125 L403 125 L470 667 L340 667 L309 416 C284 406 263 406 256 406 C241 406 221 410 210 419 C196 431 194 448 194 460 C194 474 196 488 198 502 L218 667 L88 667 L66 488 C60 442 60 423 60 414 C60 383 66 350 95 322 C116 302 154 281 220 281 C250 281 272 285 294 292 L258 0 L337 0 Z " />
<glyph glyph-name="uni04B7" unicode="&#x4b7;" horiz-adv-x="395" d="M54 447 L39 325 C37 310 35 295 35 278 C35 256 39 227 62 204 C78 188 106 174 155 174 C177 174 195 177 214 184 L191 0 L265 0 L253 -104 L357 -104 L382 104 L328 104 L370 447 L246 447 L226 285 C219 282 209 278 195 278 C186 278 174 280 167 286 C161 292 159 302 159 310 C159 315 160 320 160 323 L176 447 L54 447 Z " />
<glyph glyph-name="uni04B8" unicode="&#x4b8;" horiz-adv-x="526" d="M316 0 L446 0 L528 667 L398 667 L367 417 C352 410 335 406 316 406 L335 563 L259 563 L240 407 C228 408 215 412 207 419 C194 430 192 447 192 460 C192 473 194 486 197 509 L216 667 L88 667 L66 488 C63 462 60 444 60 425 C60 364 85 330 111 311 C140 290 185 281 220 281 L225 281 L207 137 L283 137 L301 284 C317 285 334 288 352 294 L316 0 Z " />
<glyph glyph-name="uni04B9" unicode="&#x4b9;" horiz-adv-x="431" d="M254 370 L196 370 L184 272 C177 272 167 274 162 279 C158 283 154 290 154 304 C154 315 156 328 158 340 L172 447 L54 447 L40 338 C37 317 35 299 35 282 C35 260 38 230 61 206 C90 176 140 173 172 173 L161 83 L219 83 L230 174 C241 175 251 177 261 181 L239 0 L363 0 L418 447 L294 447 L273 277 C263 273 253 270 242 270 L254 370 Z " />
<glyph glyph-name="uni04BA" unicode="&#x4ba;" horiz-adv-x="476" d="M235 667 L105 667 L23 0 L153 0 L186 272 C202 278 219 281 241 281 C257 281 275 279 289 268 C304 256 307 241 307 225 C307 218 306 205 302 170 L281 0 L411 0 L434 193 C440 242 441 257 441 269 C441 315 425 347 406 366 C369 404 312 406 283 406 C250 406 228 403 201 395 L235 667 Z " />
<glyph glyph-name="uni04BB" unicode="&#x4bb;" horiz-adv-x="388" d="M224 729 L101 729 L11 0 L135 0 L166 255 C169 282 172 330 209 330 C226 330 232 316 232 301 C232 286 231 270 229 255 L197 0 L321 0 L357 299 C360 324 364 348 364 373 C364 418 346 455 296 455 C242 455 208 419 181 377 L224 729 Z " />
<glyph glyph-name="uni04C0" unicode="&#x4c0;" horiz-adv-x="204" d="M216 667 L93 667 L11 0 L135 0 L216 667 Z " />
<glyph glyph-name="uni04C1" unicode="&#x4c1;" horiz-adv-x="631" d="M584 0 L508 362 L667 667 L538 667 L394 365 L431 667 L305 667 L268 365 L198 667 L69 667 L154 364 L-12 0 L123 0 L264 335 L223 0 L349 0 L390 335 L452 0 L584 0 Z M457 852 C453 837 444 819 433 810 C426 804 412 797 390 797 C373 797 358 801 345 813 C335 823 328 839 325 852 L222 824 C231 786 253 755 278 737 C313 711 355 708 386 708 C413 708 455 711 491 733 C519 750 546 782 560 823 L457 852 Z " />
<glyph glyph-name="uni04C2" unicode="&#x4c2;" horiz-adv-x="541" d="M499 0 L436 239 L553 447 L425 447 L330 241 L355 447 L238 447 L213 241 L166 447 L41 447 L110 240 L-16 0 L114 0 L209 206 L183 0 L300 0 L326 206 L369 0 L499 0 Z M362 642 C359 627 351 612 341 603 C330 594 318 590 305 590 C288 590 274 595 266 603 C257 611 249 627 247 642 L160 613 C169 574 192 549 211 535 C242 513 278 510 305 510 C335 510 367 514 398 537 C411 547 437 570 450 613 L362 642 Z " />
<glyph glyph-name="uni04C3" unicode="&#x4c3;" horiz-adv-x="475" d="M477 667 L345 667 L198 369 L235 667 L105 667 L23 0 L153 0 L187 272 C201 279 219 285 236 285 C261 285 276 275 285 266 C296 254 305 234 305 199 C305 189 302 146 300 130 L294 88 C283 9 271 -17 259 -28 C251 -35 242 -38 231 -38 C215 -38 206 -29 201 -26 L160 -138 C187 -155 212 -160 241 -160 C293 -160 327 -142 347 -124 C397 -79 414 13 422 74 L428 118 C431 141 435 200 435 215 C435 253 428 286 406 319 C385 350 360 367 328 376 L477 667 Z " />
<glyph glyph-name="uni04C4" unicode="&#x4c4;" horiz-adv-x="382" d="M66 447 L11 0 L135 0 L154 156 C175 156 190 148 198 139 C214 121 215 92 215 77 C215 43 212 13 202 -20 C195 -41 184 -69 160 -85 C144 -96 129 -98 121 -98 L108 -206 L120 -206 C194 -206 241 -171 265 -147 C336 -76 343 41 343 89 C343 118 341 150 324 181 C309 209 289 225 265 235 L390 447 L256 447 L168 265 L190 447 L66 447 Z " />
<glyph glyph-name="uni04C7" unicode="&#x4c7;" horiz-adv-x="494" d="M105 667 L23 0 L153 0 L190 295 L321 295 L285 0 C281 -33 274 -90 218 -90 C189 -90 170 -75 154 -53 L138 -185 C167 -200 199 -206 231 -206 C300 -206 359 -168 388 -106 C405 -70 411 -29 416 10 L496 667 L366 667 L336 420 L205 420 L235 667 L105 667 Z " />
<glyph glyph-name="uni04C8" unicode="&#x4c8;" horiz-adv-x="389" d="M190 447 L66 447 L11 0 L135 0 L157 186 L219 186 L194 -24 C191 -50 188 -71 175 -83 C165 -92 153 -94 144 -94 C130 -94 122 -91 114 -85 L100 -195 C122 -203 141 -206 163 -206 C195 -206 236 -201 269 -167 C300 -135 310 -90 314 -58 L376 447 L252 447 L232 290 L170 290 L190 447 Z " />
<glyph glyph-name="uni04D0" unicode="&#x4d0;" horiz-adv-x="453" d="M422 0 L347 667 L210 667 L-25 0 L105 0 L142 112 L273 112 L284 0 L422 0 Z M175 215 C194 274 215 332 230 392 C239 426 246 461 253 495 C249 401 259 308 266 215 L175 215 Z M348 852 C344 837 335 819 324 810 C317 804 303 797 281 797 C264 797 249 801 236 813 C226 823 219 839 216 852 L113 824 C122 786 144 755 169 737 C204 711 246 708 277 708 C304 708 346 711 382 733 C410 750 437 782 451 823 L348 852 Z " />
<glyph glyph-name="uni04D1" unicode="&#x4d1;" horiz-adv-x="390" d="M377 447 L254 447 L247 392 C236 428 213 455 173 455 C87 455 46 342 33 272 C25 234 22 196 22 157 C22 95 35 -9 117 -9 C157 -9 185 20 205 51 L199 0 L323 0 L377 447 Z M238 276 C238 240 228 103 179 103 C149 103 147 154 147 175 C147 211 159 343 209 343 C237 343 238 295 238 276 L238 276 Z M308 642 C305 627 297 612 287 603 C276 594 264 590 251 590 C234 590 220 595 212 603 C203 611 195 627 193 642 L106 613 C115 574 138 549 157 535 C188 513 224 510 251 510 C281 510 313 514 344 537 C357 547 383 570 396 613 L308 642 Z " />
<glyph glyph-name="uni04D2" unicode="&#x4d2;" horiz-adv-x="453" d="M422 0 L347 667 L210 667 L-25 0 L105 0 L142 112 L273 112 L284 0 L422 0 Z M175 215 C194 274 215 332 230 392 C239 426 246 461 253 495 C249 401 259 308 266 215 L175 215 Z M433 797 C433 830 408 856 375 856 C336 856 302 821 302 782 C302 750 325 724 358 724 C397 724 433 757 433 797 L433 797 Z M260 797 C260 830 235 856 202 856 C163 856 129 821 129 782 C129 749 153 724 186 724 C225 724 260 758 260 797 L260 797 Z " />
<glyph glyph-name="uni04D3" unicode="&#x4d3;" horiz-adv-x="390" d="M377 447 L254 447 L247 392 C236 428 213 455 173 455 C87 455 46 342 33 272 C25 234 22 196 22 157 C22 95 35 -9 117 -9 C157 -9 185 20 205 51 L199 0 L323 0 L377 447 Z M238 276 C238 240 228 103 179 103 C149 103 147 154 147 175 C147 211 159 343 209 343 C237 343 238 295 238 276 L238 276 Z M392 590 C392 623 367 649 334 649 C295 649 261 614 261 575 C261 543 284 517 317 517 C356 517 392 550 392 590 L392 590 Z M219 590 C219 623 194 649 161 649 C122 649 88 614 88 575 C88 542 112 517 145 517 C184 517 219 551 219 590 L219 590 Z " />
<glyph glyph-name="uni04D4" unicode="&#x4d4;" horiz-adv-x="583" d="M549 0 L533 125 L408 125 L389 279 L518 279 L503 405 L373 405 L357 543 L486 543 L474 667 L206 667 L-25 0 L105 0 L138 111 L275 111 L285 0 L549 0 Z M173 216 L217 355 C231 400 241 447 250 494 C250 470 249 447 249 423 C249 401 251 379 253 357 C257 310 261 263 266 216 L173 216 Z " />
<glyph glyph-name="uni04D5" unicode="&#x4d5;" horiz-adv-x="562" d="M77 329 C106 342 134 352 166 352 C204 352 229 336 229 295 C229 281 227 266 226 252 C207 265 184 268 162 268 C73 268 13 196 13 110 C13 33 67 -9 141 -9 C191 -9 225 13 260 46 C284 7 317 -9 362 -9 C453 -9 505 51 518 137 L417 137 C415 110 401 83 371 83 C332 83 328 132 328 161 C328 171 329 182 330 192 L531 192 C534 225 538 258 538 291 C538 370 517 455 421 455 C368 455 334 433 305 390 C282 443 247 456 192 456 C156 456 123 447 90 436 L77 329 Z M340 269 C344 299 357 364 397 364 C429 364 433 323 433 299 C433 289 432 279 431 269 L340 269 Z M219 137 C219 109 194 84 166 84 C143 84 125 102 125 125 C125 153 150 178 178 178 C201 178 219 160 219 137 L219 137 Z " />
<glyph glyph-name="uni04D6" unicode="&#x4d6;" horiz-adv-x="350" d="M366 667 L105 667 L23 0 L286 0 L301 123 L168 123 L187 273 L302 273 L318 399 L202 399 L220 543 L351 543 L366 667 Z M318 852 C314 837 305 819 294 810 C287 804 273 797 251 797 C234 797 219 801 206 813 C196 823 189 839 186 852 L83 824 C92 786 114 755 139 737 C174 711 216 708 247 708 C274 708 316 711 352 733 C380 750 407 782 421 823 L318 852 Z " />
<glyph glyph-name="uni04D7" unicode="&#x4d7;" horiz-adv-x="367" d="M222 154 C220 139 215 118 209 107 C201 93 190 85 174 85 C161 85 153 90 148 95 C138 106 136 130 136 144 C136 160 138 182 142 201 L337 201 C345 247 346 283 346 289 C346 323 343 383 302 423 C280 444 253 455 219 455 C176 455 139 439 108 408 C46 347 21 244 21 167 C21 97 43 55 67 29 C96 -1 129 -9 164 -9 C195 -9 234 -2 267 29 C300 60 321 111 326 154 L222 154 Z M152 278 C154 296 163 331 177 346 C187 357 199 360 207 360 C221 360 229 353 235 342 C241 331 243 317 243 302 C243 294 242 286 241 278 L152 278 Z M293 642 C290 627 282 612 272 603 C261 594 249 590 236 590 C219 590 205 595 197 603 C188 611 180 627 178 642 L91 613 C100 574 123 549 142 535 C173 513 209 510 236 510 C266 510 298 514 329 537 C342 547 368 570 381 613 L293 642 Z " />
<glyph glyph-name="uni04D8" unicode="&#x4d8;" horiz-adv-x="523" d="M56 371 C49 327 43 271 43 227 C43 175 49 93 108 33 C140 1 172 -11 219 -11 C287 -11 339 13 383 55 C488 156 506 332 506 423 C506 467 501 569 435 630 C389 672 334 677 302 677 C239 677 190 658 149 621 C121 595 96 558 80 519 L202 469 C217 515 230 534 241 544 C254 556 269 561 288 561 C303 561 320 557 335 541 C368 507 369 422 364 371 L56 371 Z M171 253 L344 253 C339 218 320 163 291 134 C275 117 256 109 232 109 C217 109 204 114 192 126 C164 155 164 217 171 253 L171 253 Z " />
<glyph glyph-name="afii10846" unicode="&#x4d9;" horiz-adv-x="373" d="M144 308 C147 323 154 339 162 348 C171 357 180 361 193 361 C208 361 217 355 221 351 C234 338 235 315 235 299 C235 284 234 271 232 256 L34 256 C30 239 23 201 23 157 C23 129 25 66 64 26 C94 -5 129 -9 155 -9 C203 -9 237 3 269 36 C328 97 350 203 350 283 C350 315 347 379 305 419 C274 448 234 455 202 455 C164 455 124 447 91 413 C68 390 52 357 44 328 L144 308 Z M221 179 C219 161 213 113 191 95 C186 91 177 86 165 86 C156 86 148 88 141 95 C128 108 127 134 127 143 C127 149 127 162 131 179 L221 179 Z " />
<glyph glyph-name="uni04DA" unicode="&#x4da;" horiz-adv-x="523" d="M56 371 C49 327 43 271 43 227 C43 175 49 93 108 33 C140 1 172 -11 219 -11 C287 -11 339 13 383 55 C488 156 506 332 506 423 C506 467 501 569 435 630 C389 672 334 677 302 677 C239 677 190 658 149 621 C121 595 96 558 80 519 L202 469 C217 515 230 534 241 544 C254 556 269 561 288 561 C303 561 320 557 335 541 C368 507 369 422 364 371 L56 371 Z M171 253 L344 253 C339 218 320 163 291 134 C275 117 256 109 232 109 C217 109 204 114 192 126 C164 155 164 217 171 253 L171 253 Z M463 797 C463 830 438 856 405 856 C366 856 332 821 332 782 C332 750 355 724 388 724 C427 724 463 757 463 797 L463 797 Z M290 797 C290 830 265 856 232 856 C193 856 159 821 159 782 C159 749 183 724 216 724 C255 724 290 758 290 797 L290 797 Z " />
<glyph glyph-name="uni04DB" unicode="&#x4db;" horiz-adv-x="373" d="M144 308 C147 323 154 339 162 348 C171 357 180 361 193 361 C208 361 217 355 221 351 C234 338 235 315 235 299 C235 284 234 271 232 256 L34 256 C30 239 23 201 23 157 C23 129 25 66 64 26 C94 -5 129 -9 155 -9 C203 -9 237 3 269 36 C328 97 350 203 350 283 C350 315 347 379 305 419 C274 448 234 455 202 455 C164 455 124 447 91 413 C68 390 52 357 44 328 L144 308 Z M221 179 C219 161 213 113 191 95 C186 91 177 86 165 86 C156 86 148 88 141 95 C128 108 127 134 127 143 C127 149 127 162 131 179 L221 179 Z M363 590 C363 623 338 649 305 649 C266 649 232 614 232 575 C232 543 255 517 288 517 C327 517 363 550 363 590 L363 590 Z M190 590 C190 623 165 649 132 649 C93 649 59 614 59 575 C59 542 83 517 116 517 C155 517 190 551 190 590 L190 590 Z " />
<glyph glyph-name="uni04DC" unicode="&#x4dc;" horiz-adv-x="631" d="M584 0 L508 362 L667 667 L538 667 L394 365 L431 667 L305 667 L268 365 L198 667 L69 667 L154 364 L-12 0 L123 0 L264 335 L223 0 L349 0 L390 335 L452 0 L584 0 Z M528 797 C528 830 503 856 470 856 C431 856 397 821 397 782 C397 750 420 724 453 724 C492 724 528 757 528 797 L528 797 Z M355 797 C355 830 330 856 297 856 C258 856 224 821 224 782 C224 749 248 724 281 724 C320 724 355 758 355 797 L355 797 Z " />
<glyph glyph-name="uni04DD" unicode="&#x4dd;" horiz-adv-x="541" d="M499 0 L436 239 L553 447 L425 447 L330 241 L355 447 L238 447 L213 241 L166 447 L41 447 L110 240 L-16 0 L114 0 L209 206 L183 0 L300 0 L326 206 L369 0 L499 0 Z M453 590 C453 623 428 649 395 649 C356 649 322 614 322 575 C322 543 345 517 378 517 C417 517 453 550 453 590 L453 590 Z M280 590 C280 623 255 649 222 649 C183 649 149 614 149 575 C149 542 173 517 206 517 C245 517 280 551 280 590 L280 590 Z " />
<glyph glyph-name="uni04DE" unicode="&#x4de;" horiz-adv-x="396" d="M68 506 C80 520 96 533 109 541 C127 552 146 557 169 557 C200 557 219 548 229 538 C241 527 250 508 250 484 C250 450 234 431 220 421 C198 405 169 402 146 402 L126 402 L111 282 L122 282 C147 282 175 281 196 266 C213 253 225 230 225 204 C225 183 216 157 201 141 C181 120 154 117 132 117 C110 117 89 121 68 132 C50 142 36 153 26 167 L10 34 C57 -2 102 -11 143 -11 C220 -11 268 19 293 42 C333 78 365 145 365 208 C365 249 351 282 331 303 C315 320 293 333 272 339 C312 352 336 377 349 394 C364 414 382 450 382 506 C382 546 374 594 333 632 C292 670 242 677 204 677 C167 677 128 670 84 640 L68 506 Z M381 797 C381 830 356 856 323 856 C284 856 250 821 250 782 C250 750 273 724 306 724 C345 724 381 757 381 797 L381 797 Z M208 797 C208 830 183 856 150 856 C111 856 77 821 77 782 C77 749 101 724 134 724 C173 724 208 758 208 797 L208 797 Z " />
<glyph glyph-name="uni04DF" unicode="&#x4df;" horiz-adv-x="340" d="M245 232 C270 238 286 252 295 262 C310 279 320 303 320 336 C320 367 310 393 288 415 C253 450 206 455 174 455 C130 455 83 445 37 411 L77 316 C87 327 98 335 109 341 C121 348 132 350 146 350 C151 350 169 349 180 341 C188 335 193 325 193 313 C193 302 189 290 173 282 C162 277 143 274 128 274 L106 274 L94 180 L119 180 C134 180 153 178 164 172 C171 168 180 160 180 144 C180 132 174 121 167 115 C158 107 143 103 129 103 C114 103 99 107 88 114 C78 120 66 131 59 139 L-5 48 C12 33 33 20 54 10 C85 -4 114 -9 146 -9 C188 -9 231 0 267 36 C295 64 310 102 310 140 C310 176 296 196 287 206 C276 218 260 227 245 232 L245 232 Z M348 590 C348 623 323 649 290 649 C251 649 217 614 217 575 C217 543 240 517 273 517 C312 517 348 550 348 590 L348 590 Z M175 590 C175 623 150 649 117 649 C78 649 44 614 44 575 C44 542 68 517 101 517 C140 517 175 551 175 590 L175 590 Z " />
<glyph glyph-name="uni04E2" unicode="&#x4e2;" horiz-adv-x="501" d="M23 0 L145 0 L351 407 C348 394 332 333 329 305 L291 0 L421 0 L503 667 L381 667 L174 265 C183 293 194 336 198 365 L235 667 L105 667 L23 0 Z M458 818 L176 818 L166 738 L448 738 L458 818 Z " />
<glyph glyph-name="uni04E3" unicode="&#x4e3;" horiz-adv-x="404" d="M66 447 L11 0 L122 0 L212 169 C230 203 249 245 262 280 C251 239 242 191 236 146 L218 0 L336 0 L391 447 L280 447 L185 265 C179 254 173 242 137 171 C158 234 165 287 166 298 L184 447 L66 447 Z M390 611 L108 611 L98 531 L380 531 L390 611 Z " />
<glyph glyph-name="uni04E4" unicode="&#x4e4;" horiz-adv-x="501" d="M23 0 L145 0 L351 407 C348 394 332 333 329 305 L291 0 L421 0 L503 667 L381 667 L174 265 C183 293 194 336 198 365 L235 667 L105 667 L23 0 Z M473 797 C473 830 448 856 415 856 C376 856 342 821 342 782 C342 750 365 724 398 724 C437 724 473 757 473 797 L473 797 Z M300 797 C300 830 275 856 242 856 C203 856 169 821 169 782 C169 749 193 724 226 724 C265 724 300 758 300 797 L300 797 Z " />
<glyph glyph-name="uni04E5" unicode="&#x4e5;" horiz-adv-x="404" d="M66 447 L11 0 L122 0 L212 169 C230 203 249 245 262 280 C251 239 242 191 236 146 L218 0 L336 0 L391 447 L280 447 L185 265 C179 254 173 242 137 171 C158 234 165 287 166 298 L184 447 L66 447 Z M393 590 C393 623 368 649 335 649 C296 649 262 614 262 575 C262 543 285 517 318 517 C357 517 393 550 393 590 L393 590 Z M220 590 C220 623 195 649 162 649 C123 649 89 614 89 575 C89 542 113 517 146 517 C185 517 220 551 220 590 L220 590 Z " />
<glyph glyph-name="uni04E6" unicode="&#x4e6;" horiz-adv-x="534" d="M517 434 C517 552 458 677 324 677 C180 677 97 549 65 423 C49 364 43 302 43 241 C43 185 49 132 78 83 C110 28 171 -11 236 -11 C360 -11 444 90 482 199 C507 270 517 358 517 434 L517 434 Z M378 427 C378 389 376 351 370 314 C362 255 330 116 253 116 C194 116 182 201 182 245 C182 283 184 321 190 358 C198 417 231 556 307 556 C367 556 378 472 378 427 L378 427 Z M493 797 C493 830 468 856 435 856 C396 856 362 821 362 782 C362 750 385 724 418 724 C457 724 493 757 493 797 L493 797 Z M320 797 C320 830 295 856 262 856 C223 856 189 821 189 782 C189 749 213 724 246 724 C285 724 320 758 320 797 L320 797 Z " />
<glyph glyph-name="uni04E7" unicode="&#x4e7;" horiz-adv-x="386" d="M363 289 C363 379 321 455 222 455 C80 455 23 296 23 177 C23 82 54 -9 165 -9 C320 -9 363 164 363 289 L363 289 Z M237 277 C237 241 227 103 178 103 C149 103 147 155 147 175 C147 211 160 343 208 343 C236 343 237 296 237 277 L237 277 Z M383 590 C383 623 358 649 325 649 C286 649 252 614 252 575 C252 543 275 517 308 517 C347 517 383 550 383 590 L383 590 Z M210 590 C210 623 185 649 152 649 C113 649 79 614 79 575 C79 542 103 517 136 517 C175 517 210 551 210 590 L210 590 Z " />
<glyph glyph-name="uni04E8" unicode="&#x4e8;" horiz-adv-x="534" d="M324 677 C271 677 214 659 163 608 C77 522 43 377 43 244 C43 181 54 102 109 43 C147 3 191 -11 238 -11 C286 -11 342 5 394 55 C486 143 517 298 517 423 C517 488 506 574 446 630 C422 653 383 677 324 677 L324 677 Z M198 406 C207 452 233 508 258 533 C276 551 293 556 306 556 C322 556 338 549 348 538 C365 521 379 484 378 406 L198 406 Z M364 281 C357 229 332 166 304 139 C284 119 265 116 253 116 C235 116 220 124 207 142 C178 182 181 252 183 281 L364 281 Z " />
<glyph glyph-name="uni04E9" unicode="&#x4e9;" horiz-adv-x="386" d="M222 455 C178 455 138 440 103 405 C45 347 23 251 23 173 C23 150 25 76 65 31 C93 0 128 -9 162 -9 C204 -9 250 2 289 44 C343 103 363 207 363 284 C363 325 356 381 319 418 C301 436 269 455 222 455 L222 455 Z M159 274 C162 292 172 326 188 341 C194 347 200 350 208 350 C216 350 221 347 224 344 C235 334 237 313 237 274 L159 274 Z M228 182 C224 158 216 124 200 107 C195 102 188 97 178 97 C171 97 166 100 162 104 C156 110 147 126 147 182 L228 182 Z " />
<glyph glyph-name="uni04EA" unicode="&#x4ea;" horiz-adv-x="534" d="M324 677 C271 677 214 659 163 608 C77 522 43 377 43 244 C43 181 54 102 109 43 C147 3 191 -11 238 -11 C286 -11 342 5 394 55 C486 143 517 298 517 423 C517 488 506 574 446 630 C422 653 383 677 324 677 L324 677 Z M198 406 C207 452 233 508 258 533 C276 551 293 556 306 556 C322 556 338 549 348 538 C365 521 379 484 378 406 L198 406 Z M364 281 C357 229 332 166 304 139 C284 119 265 116 253 116 C235 116 220 124 207 142 C178 182 181 252 183 281 L364 281 Z M493 797 C493 830 468 856 435 856 C396 856 362 821 362 782 C362 750 385 724 418 724 C457 724 493 757 493 797 L493 797 Z M320 797 C320 830 295 856 262 856 C223 856 189 821 189 782 C189 749 213 724 246 724 C285 724 320 758 320 797 L320 797 Z " />
<glyph glyph-name="uni04EB" unicode="&#x4eb;" horiz-adv-x="386" d="M222 455 C178 455 138 440 103 405 C45 347 23 251 23 173 C23 150 25 76 65 31 C93 0 128 -9 162 -9 C204 -9 250 2 289 44 C343 103 363 207 363 284 C363 325 356 381 319 418 C301 436 269 455 222 455 L222 455 Z M159 274 C162 292 172 326 188 341 C194 347 200 350 208 350 C216 350 221 347 224 344 C235 334 237 313 237 274 L159 274 Z M228 182 C224 158 216 124 200 107 C195 102 188 97 178 97 C171 97 166 100 162 104 C156 110 147 126 147 182 L228 182 Z M383 590 C383 623 358 649 325 649 C286 649 252 614 252 575 C252 543 275 517 308 517 C347 517 383 550 383 590 L383 590 Z M210 590 C210 623 185 649 152 649 C113 649 79 614 79 575 C79 542 103 517 136 517 C175 517 210 551 210 590 L210 590 Z " />
<glyph glyph-name="uni04EE" unicode="&#x4ee;" horiz-adv-x="442" d="M60 667 L176 230 L80 0 L212 0 L496 667 L354 667 L292 498 C276 453 263 414 251 374 C246 434 239 460 231 502 L198 667 L60 667 Z M438 818 L156 818 L146 738 L428 738 L438 818 Z " />
<glyph glyph-name="uni04EF" unicode="&#x4ef;" horiz-adv-x="359" d="M389 447 L265 447 L176 192 C175 223 171 254 167 284 L145 447 L22 447 L96 9 L3 -206 L123 -206 L389 447 Z M364 611 L82 611 L72 531 L354 531 L364 611 Z " />
<glyph glyph-name="uni04F0" unicode="&#x4f0;" horiz-adv-x="442" d="M60 667 L176 230 L80 0 L212 0 L496 667 L354 667 L292 498 C276 453 263 414 251 374 C246 434 239 460 231 502 L198 667 L60 667 Z M438 797 C438 830 413 856 380 856 C341 856 307 821 307 782 C307 750 330 724 363 724 C402 724 438 757 438 797 L438 797 Z M265 797 C265 830 240 856 207 856 C168 856 134 821 134 782 C134 749 158 724 191 724 C230 724 265 758 265 797 L265 797 Z " />
<glyph glyph-name="uni04F1" unicode="&#x4f1;" horiz-adv-x="359" d="M389 447 L265 447 L176 192 C175 223 171 254 167 284 L145 447 L22 447 L96 9 L3 -206 L123 -206 L389 447 Z M364 590 C364 623 339 649 306 649 C267 649 233 614 233 575 C233 543 256 517 289 517 C328 517 364 550 364 590 L364 590 Z M191 590 C191 623 166 649 133 649 C94 649 60 614 60 575 C60 542 84 517 117 517 C156 517 191 551 191 590 L191 590 Z " />
<glyph glyph-name="uni04F2" unicode="&#x4f2;" horiz-adv-x="442" d="M60 667 L176 230 L80 0 L212 0 L496 667 L354 667 L292 498 C276 453 263 414 251 374 C246 434 239 460 231 502 L198 667 L60 667 Z M444 846 L368 888 L294 760 L345 724 L444 846 Z M309 846 L232 888 L158 760 L209 724 L309 846 Z " />
<glyph glyph-name="uni04F3" unicode="&#x4f3;" horiz-adv-x="359" d="M389 447 L265 447 L176 192 C175 223 171 254 167 284 L145 447 L22 447 L96 9 L3 -206 L123 -206 L389 447 Z M377 639 L301 681 L227 553 L278 517 L377 639 Z M242 639 L165 681 L91 553 L142 517 L242 639 Z " />
<glyph glyph-name="uni04F4" unicode="&#x4f4;" horiz-adv-x="468" d="M258 0 L388 0 L470 667 L340 667 L309 416 C284 406 263 406 256 406 C241 406 221 410 210 419 C196 431 194 448 194 460 C194 474 196 488 198 502 L218 667 L88 667 L66 488 C60 442 60 423 60 414 C60 383 66 350 95 322 C116 302 154 281 220 281 C250 281 272 285 294 292 L258 0 Z M438 797 C438 830 413 856 380 856 C341 856 307 821 307 782 C307 750 330 724 363 724 C402 724 438 757 438 797 L438 797 Z M265 797 C265 830 240 856 207 856 C168 856 134 821 134 782 C134 749 158 724 191 724 C230 724 265 758 265 797 L265 797 Z " />
<glyph glyph-name="uni04F5" unicode="&#x4f5;" horiz-adv-x="383" d="M191 0 L315 0 L370 447 L246 447 L226 285 C219 282 209 278 195 278 C186 278 174 280 167 286 C161 292 159 302 159 310 C159 315 160 320 160 323 L176 447 L54 447 L39 325 C37 310 35 295 35 278 C35 256 39 227 62 204 C78 188 106 174 155 174 C177 174 195 177 214 184 L191 0 Z M376 590 C376 623 351 649 318 649 C279 649 245 614 245 575 C245 543 268 517 301 517 C340 517 376 550 376 590 L376 590 Z M203 590 C203 623 178 649 145 649 C106 649 72 614 72 575 C72 542 96 517 129 517 C168 517 203 551 203 590 L203 590 Z " />
<glyph glyph-name="uni04F8" unicode="&#x4f8;" horiz-adv-x="626" d="M546 0 L628 667 L498 667 L416 0 L546 0 Z M105 667 L23 0 L160 0 C238 0 302 17 347 63 C384 101 405 159 405 221 C405 290 378 330 355 353 C309 399 247 406 204 406 L203 406 L235 667 L105 667 Z M189 292 C207 292 236 288 254 271 C273 253 275 228 275 214 C275 177 261 149 242 134 C220 117 191 114 171 114 L167 114 L189 292 Z M523 797 C523 830 498 856 465 856 C426 856 392 821 392 782 C392 750 415 724 448 724 C487 724 523 757 523 797 L523 797 Z M350 797 C350 830 325 856 292 856 C253 856 219 821 219 782 C219 749 243 724 276 724 C315 724 350 758 350 797 L350 797 Z " />
<glyph glyph-name="uni04F9" unicode="&#x4f9;" horiz-adv-x="545" d="M477 0 L532 447 L408 447 L353 0 L477 0 Z M66 447 L11 0 L170 0 C198 0 251 3 292 39 C316 60 341 97 341 155 C341 186 333 229 290 258 C257 280 216 283 178 283 L170 283 L190 447 L66 447 Z M146 88 L159 195 L161 195 C174 195 193 194 204 185 C211 180 219 170 219 150 C219 134 214 115 202 104 C190 93 170 88 152 88 L146 88 Z M455 590 C455 623 430 649 397 649 C358 649 324 614 324 575 C324 543 347 517 380 517 C419 517 455 550 455 590 L455 590 Z M282 590 C282 623 257 649 224 649 C185 649 151 614 151 575 C151 542 175 517 208 517 C247 517 282 551 282 590 L282 590 Z " />
<glyph glyph-name="uni1E9E" unicode="&#x1e9e;" horiz-adv-x="440" d="M214 500 C216 516 221 536 230 549 C238 561 249 568 265 568 C276 568 284 564 290 558 C299 545 300 534 300 517 C300 496 297 485 295 476 L235 403 L224 315 C239 314 251 310 259 301 C271 288 272 266 272 252 C272 228 268 180 252 146 C246 134 239 123 227 117 C220 113 209 112 200 112 L186 0 C188 -1 209 -5 219 -5 C230 -5 289 -7 333 43 C385 102 402 190 402 262 C402 295 398 323 378 347 C363 365 348 375 338 381 L420 472 C424 496 426 518 426 539 C426 579 409 620 381 643 C351 668 315 677 273 677 C236 677 191 667 152 633 C111 597 90 553 83 491 L23 0 L153 0 L214 500 Z " />
<glyph glyph-name="uni2010" unicode="&#x2010;" horiz-adv-x="268" d="M213 191 L227 299 L59 299 L45 191 L213 191 Z " />
<glyph glyph-name="uni2011" unicode="&#x2011;" horiz-adv-x="268" d="M213 191 L227 299 L59 299 L45 191 L213 191 Z " />
<glyph glyph-name="figuredash" unicode="&#x2012;" horiz-adv-x="574" d="M500 288 L512 388 L78 388 L66 288 L500 288 Z " />
<glyph glyph-name="endash" unicode="&#x2013;" horiz-adv-x="574" d="M500 195 L512 295 L78 295 L66 195 L500 195 Z " />
<glyph glyph-name="emdash" unicode="&#x2014;" horiz-adv-x="820" d="M758 295 L78 295 L66 195 L746 195 L758 295 Z " />
<glyph glyph-name="afii00208" unicode="&#x2015;" horiz-adv-x="820" d="M758 295 L78 295 L66 195 L746 195 L758 295 Z " />
<glyph glyph-name="quoteleft" unicode="&#x2018;" horiz-adv-x="274" d="M61 443 L194 443 L316 713 L228 713 L61 443 Z " />
<glyph glyph-name="quoteright" unicode="&#x2019;" horiz-adv-x="274" d="M307 713 L176 713 L56 443 L143 443 L307 713 Z " />
<glyph glyph-name="quotesinglbase" unicode="&#x201a;" horiz-adv-x="270" d="M237 121 L106 121 L-14 -149 L73 -149 L237 121 Z " />
<glyph glyph-name="quotedblleft" unicode="&#x201c;" horiz-adv-x="439" d="M61 443 L193 443 L316 713 L228 713 L61 443 Z M226 443 L358 443 L480 713 L392 713 L226 443 Z " />
<glyph glyph-name="quotedblright" unicode="&#x201d;" horiz-adv-x="439" d="M471 713 L340 713 L220 443 L307 443 L471 713 Z M307 713 L176 713 L56 443 L143 443 L307 713 Z " />
<glyph glyph-name="quotedblbase" unicode="&#x201e;" horiz-adv-x="434" d="M230 121 L99 121 L-21 -149 L66 -149 L230 121 Z M401 121 L270 121 L150 -149 L237 -149 L401 121 Z " />
<glyph glyph-name="dagger" unicode="&#x2020;" horiz-adv-x="432" d="M414 439 L428 556 L317 556 L339 729 L214 729 L192 556 L81 556 L67 439 L178 439 L100 -193 L225 -193 L303 439 L414 439 Z " />
<glyph glyph-name="daggerdbl" unicode="&#x2021;" horiz-adv-x="433" d="M377 100 L392 217 L281 217 L308 439 L419 439 L433 556 L322 556 L344 729 L219 729 L197 556 L86 556 L72 439 L183 439 L156 217 L45 217 L30 100 L141 100 L105 -193 L230 -193 L266 100 L377 100 Z " />
<glyph glyph-name="bullet" unicode="&#x2022;" horiz-adv-x="1000" d="M652 340 C652 415 591 480 515 480 C438 480 377 416 377 340 C377 265 438 200 514 200 C591 200 652 264 652 340 L652 340 Z " />
<glyph glyph-name="ellipsis" unicode="&#x2026;" horiz-adv-x="739" d="M675 88 C675 127 646 157 607 157 C561 157 519 115 519 69 C519 31 549 0 587 0 C634 0 675 41 675 88 L675 88 Z M429 88 C429 127 400 157 361 157 C314 157 273 116 273 69 C273 30 302 0 341 0 C388 0 429 41 429 88 L429 88 Z M183 88 C183 127 154 157 115 157 C68 157 27 116 27 69 C27 31 55 0 94 0 C141 0 183 41 183 88 L183 88 Z " />
<glyph glyph-name="perthousand" unicode="&#x2030;" horiz-adv-x="1041" d="M341 549 C341 606 310 671 228 671 C114 671 64 549 64 461 C64 395 100 328 180 328 C302 328 341 464 341 549 L341 549 Z M236 538 C236 522 227 419 191 419 C169 419 169 458 169 463 C169 480 177 581 214 581 C235 581 236 542 236 538 L236 538 Z M602 667 L517 667 L144 0 L231 0 L602 667 Z M683 214 C683 271 652 336 570 336 C456 336 406 214 406 126 C406 60 442 -7 522 -7 C644 -7 683 129 683 214 L683 214 Z M578 203 C578 187 569 84 533 84 C511 84 511 123 511 128 C511 145 519 246 556 246 C577 246 578 207 578 203 L578 203 Z M1006 214 C1006 271 975 336 893 336 C779 336 729 214 729 126 C729 60 765 -7 845 -7 C967 -7 1006 129 1006 214 L1006 214 Z M901 203 C901 187 892 84 856 84 C834 84 834 123 834 128 C834 145 842 246 879 246 C900 246 901 207 901 203 L901 203 Z " />
<glyph glyph-name="guilsinglleft" unicode="&#x2039;" horiz-adv-x="239" d="M231 406 L169 440 L30 234 L119 28 L190 66 L121 234 L231 406 Z " />
<glyph glyph-name="guilsinglright" unicode="&#x203a;" horiz-adv-x="239" d="M210 234 L122 440 L51 406 L119 234 L10 66 L71 28 L210 234 Z " />
<glyph glyph-name="fraction" unicode="&#x2044;" horiz-adv-x="144" d="M314 667 L238 667 L-157 0 L-81 0 L314 667 Z " />
<glyph glyph-name="Euro" unicode="&#x20ac;" horiz-adv-x="433" d="M397 155 C369 129 337 120 312 120 C275 120 254 141 245 153 C228 175 217 214 217 248 L340 248 L377 316 L219 316 C221 333 224 352 229 371 L406 371 L443 439 L249 439 C260 465 278 495 297 513 C322 537 351 548 376 548 C392 548 422 544 449 516 L468 655 C439 669 414 674 384 674 C308 674 251 649 205 605 C162 565 126 503 107 439 L45 439 L8 371 L89 371 L80 316 L26 316 L-11 248 L77 248 C77 187 93 99 144 46 C175 13 219 -7 277 -7 C318 -7 350 3 378 17 L397 155 Z " />
<glyph glyph-name="uni20B4" unicode="&#x20b4;" horiz-adv-x="433" d="M122 516 C142 533 184 559 225 559 C245 559 258 552 267 543 C278 531 281 516 281 505 C281 472 267 451 254 439 L46 439 L38 371 L196 371 L138 316 L31 316 L22 248 L85 248 C56 214 45 177 45 143 C45 80 77 43 87 32 C118 0 157 -11 205 -11 C270 -11 312 10 333 23 L348 149 C298 115 256 113 239 113 C225 113 205 115 191 129 C179 141 177 154 177 167 C177 192 183 220 212 248 L416 248 L425 316 L272 316 L330 371 L432 371 L440 439 L386 439 C401 460 412 486 412 523 C412 569 396 608 373 633 C338 671 295 677 254 677 C219 677 185 669 138 645 L122 516 Z " />
<glyph glyph-name="&amp;#x20b6;" unicode="&#x20b6;" horiz-adv-x="433" d="M289 667 L131 667 L94 372 L31 372 L21 282 L85 282 L76 219 L12 219 L4 151 L68 151 L49 0 L179 0 L198 151 L308 151 L316 219 L206 219 L214 282 C358 271 467 358 466 498 C466 555 447 614 396 645 C360 667 329 667 289 667 L289 667 Z M224 372 L248 560 L271 560 C321 560 337 534 337 479 C337 407 305 372 234 372 L224 372 Z " />
<glyph glyph-name="&amp;#x20b7;" unicode="&#x20b7;" horiz-adv-x="433" d="M289 667 L131 667 L94 372 L31 372 L21 282 L85 282 L76 219 L12 219 L4 151 L68 151 L49 0 L179 0 L198 151 L308 151 L316 219 L206 219 L214 282 C358 271 467 358 466 498 C466 555 447 614 396 645 C360 667 329 667 289 667 L289 667 Z M224 372 L248 560 L271 560 C321 560 337 534 337 479 C337 407 305 372 234 372 L224 372 Z " />
<glyph glyph-name="&amp;#x20b9;" unicode="&#x20b9;" horiz-adv-x="433" d="M289 667 L131 667 L94 372 L31 372 L21 282 L85 282 L76 219 L12 219 L4 151 L68 151 L49 0 L179 0 L198 151 L308 151 L316 219 L206 219 L214 282 C358 271 467 358 466 498 C466 555 447 614 396 645 C360 667 329 667 289 667 L289 667 Z M224 372 L248 560 L271 560 C321 560 337 534 337 479 C337 407 305 372 234 372 L224 372 Z " />
<glyph glyph-name="&amp;#x20ba;" unicode="&#x20ba;" horiz-adv-x="433" d="M289 667 L131 667 L94 372 L31 372 L21 282 L85 282 L76 219 L12 219 L4 151 L68 151 L49 0 L179 0 L198 151 L308 151 L316 219 L206 219 L214 282 C358 271 467 358 466 498 C466 555 447 614 396 645 C360 667 329 667 289 667 L289 667 Z M224 372 L248 560 L271 560 C321 560 337 534 337 479 C337 407 305 372 234 372 L224 372 Z " />
<glyph glyph-name="&amp;#x20bb;" unicode="&#x20bb;" horiz-adv-x="433" d="M289 667 L131 667 L94 372 L31 372 L21 282 L85 282 L76 219 L12 219 L4 151 L68 151 L49 0 L179 0 L198 151 L308 151 L316 219 L206 219 L214 282 C358 271 467 358 466 498 C466 555 447 614 396 645 C360 667 329 667 289 667 L289 667 Z M224 372 L248 560 L271 560 C321 560 337 534 337 479 C337 407 305 372 234 372 L224 372 Z " />
<glyph glyph-name="&amp;#x20bc;" unicode="&#x20bc;" horiz-adv-x="433" d="M289 667 L131 667 L94 372 L31 372 L21 282 L85 282 L76 219 L12 219 L4 151 L68 151 L49 0 L179 0 L198 151 L308 151 L316 219 L206 219 L214 282 C358 271 467 358 466 498 C466 555 447 614 396 645 C360 667 329 667 289 667 L289 667 Z M224 372 L248 560 L271 560 C321 560 337 534 337 479 C337 407 305 372 234 372 L224 372 Z " />
<glyph glyph-name="&amp;#x20bd;" unicode="&#x20bd;" horiz-adv-x="433" d="M289 667 L131 667 L94 372 L31 372 L21 282 L85 282 L76 219 L12 219 L4 151 L68 151 L49 0 L179 0 L198 151 L308 151 L316 219 L206 219 L214 282 C358 271 467 358 466 498 C466 555 447 614 396 645 C360 667 329 667 289 667 L289 667 Z M224 372 L248 560 L271 560 C321 560 337 534 337 479 C337 407 305 372 234 372 L224 372 Z " />
<glyph glyph-name="&amp;#x20be;" unicode="&#x20be;" horiz-adv-x="433" d="M289 667 L131 667 L94 372 L31 372 L21 282 L85 282 L76 219 L12 219 L4 151 L68 151 L49 0 L179 0 L198 151 L308 151 L316 219 L206 219 L214 282 C358 271 467 358 466 498 C466 555 447 614 396 645 C360 667 329 667 289 667 L289 667 Z M224 372 L248 560 L271 560 C321 560 337 534 337 479 C337 407 305 372 234 372 L224 372 Z " />
<glyph glyph-name="&amp;#x20bf;" unicode="&#x20bf;" horiz-adv-x="433" d="M289 667 L131 667 L94 372 L31 372 L21 282 L85 282 L76 219 L12 219 L4 151 L68 151 L49 0 L179 0 L198 151 L308 151 L316 219 L206 219 L214 282 C358 271 467 358 466 498 C466 555 447 614 396 645 C360 667 329 667 289 667 L289 667 Z M224 372 L248 560 L271 560 C321 560 337 534 337 479 C337 407 305 372 234 372 L224 372 Z " />
<glyph glyph-name="&amp;#x20c0;" unicode="&#x20c0;" horiz-adv-x="433" d="M289 667 L131 667 L94 372 L31 372 L21 282 L85 282 L76 219 L12 219 L4 151 L68 151 L49 0 L179 0 L198 151 L308 151 L316 219 L206 219 L214 282 C358 271 467 358 466 498 C466 555 447 614 396 645 C360 667 329 667 289 667 L289 667 Z M224 372 L248 560 L271 560 C321 560 337 534 337 479 C337 407 305 372 234 372 L224 372 Z " />
<glyph glyph-name="&amp;#x20c1;" unicode="&#x20c1;" horiz-adv-x="433" d="M289 667 L131 667 L94 372 L31 372 L21 282 L85 282 L76 219 L12 219 L4 151 L68 151 L49 0 L179 0 L198 151 L308 151 L316 219 L206 219 L214 282 C358 271 467 358 466 498 C466 555 447 614 396 645 C360 667 329 667 289 667 L289 667 Z M224 372 L248 560 L271 560 C321 560 337 534 337 479 C337 407 305 372 234 372 L224 372 Z " />
<glyph glyph-name="&amp;#x20c2;" unicode="&#x20c2;" horiz-adv-x="433" d="M289 667 L131 667 L94 372 L31 372 L21 282 L85 282 L76 219 L12 219 L4 151 L68 151 L49 0 L179 0 L198 151 L308 151 L316 219 L206 219 L214 282 C358 271 467 358 466 498 C466 555 447 614 396 645 C360 667 329 667 289 667 L289 667 Z M224 372 L248 560 L271 560 C321 560 337 534 337 479 C337 407 305 372 234 372 L224 372 Z " />
<glyph glyph-name="&amp;#x20c3;" unicode="&#x20c3;" horiz-adv-x="433" d="M289 667 L131 667 L94 372 L31 372 L21 282 L85 282 L76 219 L12 219 L4 151 L68 151 L49 0 L179 0 L198 151 L308 151 L316 219 L206 219 L214 282 C358 271 467 358 466 498 C466 555 447 614 396 645 C360 667 329 667 289 667 L289 667 Z M224 372 L248 560 L271 560 C321 560 337 534 337 479 C337 407 305 372 234 372 L224 372 Z " />
<glyph glyph-name="&amp;#x20c4;" unicode="&#x20c4;" horiz-adv-x="433" d="M289 667 L131 667 L94 372 L31 372 L21 282 L85 282 L76 219 L12 219 L4 151 L68 151 L49 0 L179 0 L198 151 L308 151 L316 219 L206 219 L214 282 C358 271 467 358 466 498 C466 555 447 614 396 645 C360 667 329 667 289 667 L289 667 Z M224 372 L248 560 L271 560 C321 560 337 534 337 479 C337 407 305 372 234 372 L224 372 Z " />
<glyph glyph-name="&amp;#x20c5;" unicode="&#x20c5;" horiz-adv-x="433" d="M289 667 L131 667 L94 372 L31 372 L21 282 L85 282 L76 219 L12 219 L4 151 L68 151 L49 0 L179 0 L198 151 L308 151 L316 219 L206 219 L214 282 C358 271 467 358 466 498 C466 555 447 614 396 645 C360 667 329 667 289 667 L289 667 Z M224 372 L248 560 L271 560 C321 560 337 534 337 479 C337 407 305 372 234 372 L224 372 Z " />
<glyph glyph-name="&amp;#x20c6;" unicode="&#x20c6;" horiz-adv-x="433" d="M289 667 L131 667 L94 372 L31 372 L21 282 L85 282 L76 219 L12 219 L4 151 L68 151 L49 0 L179 0 L198 151 L308 151 L316 219 L206 219 L214 282 C358 271 467 358 466 498 C466 555 447 614 396 645 C360 667 329 667 289 667 L289 667 Z M224 372 L248 560 L271 560 C321 560 337 534 337 479 C337 407 305 372 234 372 L224 372 Z " />
<glyph glyph-name="&amp;#x20c7;" unicode="&#x20c7;" horiz-adv-x="433" d="M289 667 L131 667 L94 372 L31 372 L21 282 L85 282 L76 219 L12 219 L4 151 L68 151 L49 0 L179 0 L198 151 L308 151 L316 219 L206 219 L214 282 C358 271 467 358 466 498 C466 555 447 614 396 645 C360 667 329 667 289 667 L289 667 Z M224 372 L248 560 L271 560 C321 560 337 534 337 479 C337 407 305 372 234 372 L224 372 Z " />
<glyph glyph-name="&amp;#x20c8;" unicode="&#x20c8;" horiz-adv-x="433" d="M289 667 L131 667 L94 372 L31 372 L21 282 L85 282 L76 219 L12 219 L4 151 L68 151 L49 0 L179 0 L198 151 L308 151 L316 219 L206 219 L214 282 C358 271 467 358 466 498 C466 555 447 614 396 645 C360 667 329 667 289 667 L289 667 Z M224 372 L248 560 L271 560 C321 560 337 534 337 479 C337 407 305 372 234 372 L224 372 Z " />
<glyph glyph-name="&amp;#x20c9;" unicode="&#x20c9;" horiz-adv-x="433" d="M289 667 L131 667 L94 372 L31 372 L21 282 L85 282 L76 219 L12 219 L4 151 L68 151 L49 0 L179 0 L198 151 L308 151 L316 219 L206 219 L214 282 C358 271 467 358 466 498 C466 555 447 614 396 645 C360 667 329 667 289 667 L289 667 Z M224 372 L248 560 L271 560 C321 560 337 534 337 479 C337 407 305 372 234 372 L224 372 Z " />
<glyph glyph-name="&amp;#x20ca;" unicode="&#x20ca;" horiz-adv-x="433" d="M289 667 L131 667 L94 372 L31 372 L21 282 L85 282 L76 219 L12 219 L4 151 L68 151 L49 0 L179 0 L198 151 L308 151 L316 219 L206 219 L214 282 C358 271 467 358 466 498 C466 555 447 614 396 645 C360 667 329 667 289 667 L289 667 Z M224 372 L248 560 L271 560 C321 560 337 534 337 479 C337 407 305 372 234 372 L224 372 Z " />
<glyph glyph-name="&amp;#x20cb;" unicode="&#x20cb;" horiz-adv-x="433" d="M289 667 L131 667 L94 372 L31 372 L21 282 L85 282 L76 219 L12 219 L4 151 L68 151 L49 0 L179 0 L198 151 L308 151 L316 219 L206 219 L214 282 C358 271 467 358 466 498 C466 555 447 614 396 645 C360 667 329 667 289 667 L289 667 Z M224 372 L248 560 L271 560 C321 560 337 534 337 479 C337 407 305 372 234 372 L224 372 Z " />
<glyph glyph-name="&amp;#x20cc;" unicode="&#x20cc;" horiz-adv-x="433" d="M289 667 L131 667 L94 372 L31 372 L21 282 L85 282 L76 219 L12 219 L4 151 L68 151 L49 0 L179 0 L198 151 L308 151 L316 219 L206 219 L214 282 C358 271 467 358 466 498 C466 555 447 614 396 645 C360 667 329 667 289 667 L289 667 Z M224 372 L248 560 L271 560 C321 560 337 534 337 479 C337 407 305 372 234 372 L224 372 Z " />
<glyph glyph-name="&amp;#x20cd;" unicode="&#x20cd;" horiz-adv-x="433" d="M289 667 L131 667 L94 372 L31 372 L21 282 L85 282 L76 219 L12 219 L4 151 L68 151 L49 0 L179 0 L198 151 L308 151 L316 219 L206 219 L214 282 C358 271 467 358 466 498 C466 555 447 614 396 645 C360 667 329 667 289 667 L289 667 Z M224 372 L248 560 L271 560 C321 560 337 534 337 479 C337 407 305 372 234 372 L224 372 Z " />
<glyph glyph-name="&amp;#x20ce;" unicode="&#x20ce;" horiz-adv-x="433" d="M289 667 L131 667 L94 372 L31 372 L21 282 L85 282 L76 219 L12 219 L4 151 L68 151 L49 0 L179 0 L198 151 L308 151 L316 219 L206 219 L214 282 C358 271 467 358 466 498 C466 555 447 614 396 645 C360 667 329 667 289 667 L289 667 Z M224 372 L248 560 L271 560 C321 560 337 534 337 479 C337 407 305 372 234 372 L224 372 Z " />
<glyph glyph-name="&amp;#x20cf;" unicode="&#x20cf;" horiz-adv-x="433" d="M289 667 L131 667 L94 372 L31 372 L21 282 L85 282 L76 219 L12 219 L4 151 L68 151 L49 0 L179 0 L198 151 L308 151 L316 219 L206 219 L214 282 C358 271 467 358 466 498 C466 555 447 614 396 645 C360 667 329 667 289 667 L289 667 Z M224 372 L248 560 L271 560 C321 560 337 534 337 479 C337 407 305 372 234 372 L224 372 Z " />
<glyph glyph-name="uni20B8" unicode="&#x20b8;" horiz-adv-x="433" d="M421 527 L87 527 L73 415 L175 415 L124 0 L254 0 L305 415 L407 415 L421 527 Z M426 575 L438 667 L104 667 L92 575 L426 575 Z " />
<glyph glyph-name="afii61352" unicode="&#x2116;" horiz-adv-x="783" d="M512 667 L380 667 L341 356 C339 341 339 327 339 312 C339 296 339 280 340 264 L228 667 L105 667 L23 0 L153 0 L192 316 C196 345 196 373 196 402 L308 0 L430 0 L512 667 Z M788 562 C788 628 751 677 682 677 C583 677 537 579 537 492 C537 421 565 363 644 363 C753 363 788 471 788 562 L788 562 Z M749 307 L532 307 L523 227 L740 227 L749 307 Z M690 550 C690 527 683 446 653 446 C635 446 633 479 633 491 C633 514 640 594 672 594 C690 594 690 562 690 550 L690 550 Z " />
<glyph glyph-name="uni2117" unicode="&#x2117;" horiz-adv-x="762" d="M295 535 L295 145 L385 145 L385 302 L404 302 C458 302 486 319 499 332 C512 344 529 369 529 417 C529 460 515 487 498 504 C469 532 426 535 393 535 L295 535 Z M385 370 L385 467 L399 467 C410 467 423 466 433 456 C439 450 444 438 444 420 C444 415 443 394 431 382 C420 370 404 370 391 370 L385 370 Z M741 333 C741 408 719 498 640 578 C579 640 498 681 394 681 C290 681 209 640 148 578 C69 498 47 408 47 333 C47 258 69 168 148 88 C209 26 290 -15 394 -15 C498 -15 579 26 640 88 C719 168 741 258 741 333 L741 333 Z M394 621 C464 621 528 598 583 545 C644 486 673 408 673 334 C673 259 644 181 583 122 C528 69 464 46 394 46 C324 46 260 69 205 122 C144 181 115 259 115 334 C115 408 144 486 205 545 C260 598 324 621 394 621 L394 621 Z " />
<glyph glyph-name="trademark" unicode="&#x2122;" horiz-adv-x="593" d="M598 667 L485 667 L431 464 L420 667 L310 667 L227 287 L319 287 L357 512 L378 287 L444 287 L517 517 L506 287 L594 287 L598 667 Z M265 667 L54 667 L45 591 L107 591 L69 287 L155 287 L193 591 L255 591 L265 667 Z " />
<glyph glyph-name="partialdiff" unicode="&#x2202;" horiz-adv-x="500" d="M58 558 C149 550 247 518 307 444 C322 426 332 405 342 384 C308 418 266 433 218 433 C98 433 11 337 11 219 C11 91 115 -9 242 -9 C403 -9 485 116 485 266 C485 379 444 484 358 559 C276 630 179 653 74 665 L58 558 Z M244 329 C308 329 351 279 351 217 C351 156 309 102 245 102 C181 102 138 154 138 216 C138 260 161 303 203 321 C211 324 225 329 234 329 L244 329 Z " />
<glyph glyph-name="product" unicode="&#x220f;" horiz-adv-x="729" d="M692 -250 L692 -139 L611 -139 L611 639 L692 639 L692 750 L42 750 L42 639 L125 639 L125 -139 L42 -139 L42 -250 L328 -250 L328 -139 L249 -139 L249 639 L486 639 L486 -139 L406 -139 L406 -250 L692 -250 Z " />
<glyph glyph-name="summation" unicode="&#x2211;" horiz-adv-x="667" d="M629 -250 L629 -3 L513 -3 L506 -139 L163 -139 L413 267 L163 639 L497 639 L509 506 L620 506 L620 750 L24 750 L24 627 L268 267 L24 -126 L24 -250 L629 -250 Z " />
<glyph glyph-name="minus" unicode="&#x2212;" horiz-adv-x="500" d="M481 282 L481 397 L47 397 L47 282 L481 282 Z " />
<glyph glyph-name="uni2215" unicode="&#x2215;" horiz-adv-x="470" d="M525 729 L418 729 L-62 -193 L48 -193 L525 729 Z " />
<glyph glyph-name="uni2219" unicode="&#x2219;" horiz-adv-x="279" d="M248 345 C248 396 212 435 160 435 C100 435 47 381 47 321 C47 271 85 233 135 233 C195 233 248 285 248 345 L248 345 Z " />
<glyph glyph-name="radical" unicode="&#x221a;" horiz-adv-x="667" d="M706 716 L706 827 L419 827 L328 446 C305 349 287 250 280 150 L270 150 C267 198 266 248 255 295 L234 385 L40 385 L40 274 L133 274 L192 0 L355 0 L526 716 L706 716 Z " />
</font>
</svg>
